<svg width="360" height="225" viewBox="0 0 360 225" fill="none" xmlns="http://www.w3.org/2000/svg">
<path d="M124.276 139.971H134.898V95.1804H124.276V139.971ZM163.614 140.611C175.835 140.611 183.322 134.468 183.322 125.126C183.322 117.448 178.459 113.033 169.309 111.881L160.99 110.793C158.751 110.473 155.999 109.705 155.999 106.89C155.999 104.267 158.303 102.603 161.63 102.603C165.341 102.603 167.645 104.267 168.413 107.594L179.739 107.53C179.099 99.5315 172.252 94.5405 162.014 94.5405C151.584 94.5405 145.314 99.7875 145.314 108.042C145.314 114.888 149.537 118.856 157.919 119.943L167.069 121.095C169.565 121.479 172.188 122.375 172.188 125.766C172.188 129.541 168.989 131.781 163.806 131.781C157.407 131.781 153.568 128.39 153.184 122.311H141.154C141.602 132.805 149.793 140.611 163.614 140.611ZM211.917 140.611C225.866 140.611 236.296 130.757 236.296 117.576C236.296 104.459 225.866 94.5405 211.917 94.5405C197.968 94.5405 187.538 104.459 187.538 117.576C187.538 130.757 197.968 140.611 211.917 140.611ZM211.917 131.077C204.175 131.077 198.736 125.51 198.736 117.576C198.736 109.705 204.175 104.139 211.917 104.139C219.659 104.139 225.098 109.705 225.098 117.576C225.098 125.51 219.659 131.077 211.917 131.077Z" fill="#050038"/>
<path d="M27.4433 182.878V195.969H25.8581V182.878H27.4433ZM37.7808 186.151C37.7041 185.503 37.3931 185 36.8476 184.642C36.3022 184.284 35.6331 184.105 34.8405 184.105C34.261 184.105 33.7539 184.199 33.3192 184.386C32.8888 184.574 32.5522 184.832 32.3093 185.16C32.0706 185.488 31.9513 185.861 31.9513 186.278C31.9513 186.628 32.0344 186.928 32.2006 187.18C32.371 187.427 32.5884 187.634 32.8526 187.8C33.1168 187.962 33.3938 188.096 33.6835 188.202C33.9733 188.305 34.2397 188.388 34.4826 188.452L35.8121 188.81C36.153 188.899 36.5323 189.023 36.9499 189.18C37.3718 189.338 37.7745 189.553 38.158 189.826C38.5458 190.094 38.8654 190.44 39.1168 190.862C39.3682 191.283 39.4939 191.801 39.4939 192.415C39.4939 193.122 39.3085 193.761 38.9378 194.332C38.5713 194.903 38.0344 195.357 37.327 195.694C36.6239 196.031 35.7695 196.199 34.7638 196.199C33.8263 196.199 33.0145 196.048 32.3284 195.745C31.6466 195.442 31.1097 195.021 30.7176 194.479C30.3299 193.938 30.1104 193.31 30.0593 192.594H31.6956C31.7382 193.088 31.9044 193.497 32.1942 193.821C32.4882 194.141 32.859 194.379 33.3064 194.537C33.7581 194.69 34.2439 194.767 34.7638 194.767C35.3689 194.767 35.9122 194.669 36.3938 194.473C36.8753 194.273 37.2567 193.996 37.538 193.642C37.8192 193.284 37.9598 192.866 37.9598 192.389C37.9598 191.955 37.8384 191.601 37.5955 191.328C37.3526 191.055 37.033 190.834 36.6367 190.663C36.2404 190.493 35.8121 190.344 35.3519 190.216L33.7411 189.756C32.7183 189.462 31.9087 189.042 31.3121 188.496C30.7155 187.951 30.4172 187.237 30.4172 186.355C30.4172 185.622 30.6154 184.983 31.0117 184.438C31.4122 183.888 31.9492 183.462 32.6225 183.159C33.3 182.852 34.0564 182.699 34.8916 182.699C35.7354 182.699 36.4854 182.85 37.1416 183.153C37.7979 183.451 38.3178 183.86 38.7013 184.38C39.0891 184.9 39.2936 185.49 39.3149 186.151H37.7808ZM53.1457 189.423C53.1457 190.804 52.8964 191.997 52.3979 193.003C51.8993 194.009 51.2153 194.784 50.346 195.33C49.4767 195.875 48.4838 196.148 47.3673 196.148C46.2508 196.148 45.2579 195.875 44.3886 195.33C43.5193 194.784 42.8354 194.009 42.3368 193.003C41.8382 191.997 41.5889 190.804 41.5889 189.423C41.5889 188.043 41.8382 186.849 42.3368 185.844C42.8354 184.838 43.5193 184.062 44.3886 183.517C45.2579 182.972 46.2508 182.699 47.3673 182.699C48.4838 182.699 49.4767 182.972 50.346 183.517C51.2153 184.062 51.8993 184.838 52.3979 185.844C52.8964 186.849 53.1457 188.043 53.1457 189.423ZM51.6116 189.423C51.6116 188.29 51.422 187.333 51.0427 186.553C50.6677 185.773 50.1585 185.183 49.515 184.783C48.8758 184.382 48.1599 184.182 47.3673 184.182C46.5747 184.182 45.8567 184.382 45.2132 184.783C44.574 185.183 44.0648 185.773 43.6855 186.553C43.3105 187.333 43.123 188.29 43.123 189.423C43.123 190.557 43.3105 191.513 43.6855 192.293C44.0648 193.073 44.574 193.663 45.2132 194.064C45.8567 194.464 46.5747 194.665 47.3673 194.665C48.1599 194.665 48.8758 194.464 49.515 194.064C50.1585 193.663 50.6677 193.073 51.0427 192.293C51.422 191.513 51.6116 190.557 51.6116 189.423ZM61.2317 188.72V190.126H55.5044V188.72H61.2317ZM63.2452 195.969V194.818L67.5662 190.088C68.0733 189.534 68.4909 189.053 68.819 188.643C69.1471 188.23 69.39 187.842 69.5477 187.48C69.7096 187.114 69.7906 186.73 69.7906 186.33C69.7906 185.869 69.6798 185.471 69.4582 185.134C69.2409 184.798 68.9426 184.538 68.5633 184.354C68.1841 184.171 67.7579 184.08 67.2849 184.08C66.7821 184.08 66.3432 184.184 65.9682 184.393C65.5974 184.597 65.3098 184.885 65.1052 185.256C64.905 185.626 64.8048 186.061 64.8048 186.56H63.2963C63.2963 185.793 63.4731 185.119 63.8268 184.54C64.1805 183.96 64.6621 183.509 65.2714 183.185C65.8851 182.861 66.5733 182.699 67.3361 182.699C68.1031 182.699 68.7828 182.861 69.3751 183.185C69.9675 183.509 70.4319 183.945 70.7686 184.495C71.1052 185.045 71.2736 185.656 71.2736 186.33C71.2736 186.811 71.1862 187.282 71.0115 187.742C70.841 188.198 70.5427 188.707 70.1166 189.27C69.6947 189.828 69.1088 190.51 68.3588 191.315L65.4185 194.46V194.562H71.5037V195.969H63.2452ZM74.5527 195.969L80.4078 184.386V184.284H73.6578V182.878H82.0442V184.361L76.2146 195.969H74.5527ZM88.4154 196.148C87.4524 196.148 86.6321 195.886 85.9545 195.362C85.2769 194.833 84.7592 194.068 84.4012 193.067C84.0433 192.061 83.8643 190.847 83.8643 189.423C83.8643 188.009 84.0433 186.8 84.4012 185.799C84.7634 184.793 85.2833 184.026 85.9609 183.498C86.6427 182.965 87.4609 182.699 88.4154 182.699C89.37 182.699 90.186 182.965 90.8636 183.498C91.5454 184.026 92.0653 184.793 92.4232 185.799C92.7855 186.8 92.9666 188.009 92.9666 189.423C92.9666 190.847 92.7876 192.061 92.4296 193.067C92.0717 194.068 91.5539 194.833 90.8764 195.362C90.1988 195.886 89.3785 196.148 88.4154 196.148ZM88.4154 194.741C89.37 194.741 90.1115 194.281 90.6399 193.361C91.1683 192.44 91.4325 191.128 91.4325 189.423C91.4325 188.29 91.311 187.325 91.0681 186.528C90.8295 185.731 90.4843 185.124 90.0326 184.706C89.5852 184.288 89.0461 184.08 88.4154 184.08C87.4694 184.08 86.7301 184.546 86.1974 185.479C85.6647 186.408 85.3984 187.723 85.3984 189.423C85.3984 190.557 85.5177 191.52 85.7563 192.312C85.995 193.105 86.338 193.708 86.7855 194.121C87.2372 194.535 87.7805 194.741 88.4154 194.741ZM99.6654 196.148C98.7024 196.148 97.8821 195.886 97.2045 195.362C96.5269 194.833 96.0092 194.068 95.6512 193.067C95.2933 192.061 95.1143 190.847 95.1143 189.423C95.1143 188.009 95.2933 186.8 95.6512 185.799C96.0134 184.793 96.5333 184.026 97.2109 183.498C97.8927 182.965 98.7109 182.699 99.6654 182.699C100.62 182.699 101.436 182.965 102.114 183.498C102.795 184.026 103.315 184.793 103.673 185.799C104.035 186.8 104.217 188.009 104.217 189.423C104.217 190.847 104.038 192.061 103.68 193.067C103.322 194.068 102.804 194.833 102.126 195.362C101.449 195.886 100.629 196.148 99.6654 196.148ZM99.6654 194.741C100.62 194.741 101.361 194.281 101.89 193.361C102.418 192.44 102.682 191.128 102.682 189.423C102.682 188.29 102.561 187.325 102.318 186.528C102.079 185.731 101.734 185.124 101.283 184.706C100.835 184.288 100.296 184.08 99.6654 184.08C98.7194 184.08 97.9801 184.546 97.4474 185.479C96.9147 186.408 96.6484 187.723 96.6484 189.423C96.6484 190.557 96.7677 191.52 97.0063 192.312C97.245 193.105 97.588 193.708 98.0355 194.121C98.4872 194.535 99.0305 194.741 99.6654 194.741ZM111.248 182.878V195.969H109.663V184.54H109.586L106.39 186.662V185.051L109.663 182.878H111.248ZM124.217 196.173C123.271 196.173 122.455 195.964 121.769 195.547C121.087 195.125 120.561 194.537 120.19 193.783C119.824 193.024 119.641 192.142 119.641 191.136C119.641 190.131 119.824 189.244 120.19 188.477C120.561 187.706 121.077 187.105 121.737 186.675C122.402 186.24 123.178 186.023 124.064 186.023C124.575 186.023 125.08 186.108 125.579 186.278C126.077 186.449 126.531 186.726 126.94 187.109C127.349 187.489 127.675 187.991 127.918 188.618C128.161 189.244 128.283 190.016 128.283 190.932V191.571H120.714V190.267H126.749C126.749 189.713 126.638 189.219 126.416 188.784C126.199 188.349 125.888 188.006 125.483 187.755C125.082 187.504 124.609 187.378 124.064 187.378C123.463 187.378 122.943 187.527 122.504 187.825C122.07 188.119 121.735 188.503 121.501 188.976C121.266 189.449 121.149 189.956 121.149 190.497V191.366C121.149 192.108 121.277 192.737 121.533 193.252C121.793 193.763 122.153 194.153 122.613 194.422C123.073 194.686 123.608 194.818 124.217 194.818C124.614 194.818 124.972 194.763 125.291 194.652C125.615 194.537 125.894 194.366 126.129 194.141C126.363 193.911 126.544 193.625 126.672 193.284L128.129 193.693C127.976 194.188 127.718 194.622 127.356 194.997C126.994 195.368 126.546 195.658 126.013 195.866C125.481 196.071 124.882 196.173 124.217 196.173ZM132.086 190.062V195.969H130.577V186.151H132.035V187.685H132.163C132.393 187.186 132.742 186.786 133.211 186.483C133.68 186.176 134.285 186.023 135.026 186.023C135.691 186.023 136.273 186.159 136.771 186.432C137.27 186.7 137.658 187.109 137.935 187.659C138.212 188.205 138.35 188.895 138.35 189.73V195.969H136.842V189.832C136.842 189.061 136.641 188.46 136.241 188.03C135.84 187.595 135.29 187.378 134.592 187.378C134.11 187.378 133.68 187.482 133.3 187.691C132.925 187.9 132.629 188.205 132.412 188.605C132.195 189.006 132.086 189.491 132.086 190.062ZM145.377 186.151V187.429H140.288V186.151H145.377ZM141.771 183.798H143.28V193.156C143.28 193.582 143.342 193.902 143.465 194.115C143.593 194.324 143.755 194.464 143.951 194.537C144.151 194.605 144.362 194.639 144.584 194.639C144.75 194.639 144.886 194.631 144.993 194.614C145.1 194.592 145.185 194.575 145.249 194.562L145.556 195.918C145.453 195.956 145.31 195.994 145.127 196.033C144.944 196.075 144.712 196.097 144.431 196.097C144.004 196.097 143.587 196.005 143.178 195.822C142.773 195.638 142.436 195.359 142.168 194.984C141.904 194.609 141.771 194.136 141.771 193.565V183.798ZM151.657 196.173C150.711 196.173 149.895 195.964 149.209 195.547C148.527 195.125 148 194.537 147.63 193.783C147.263 193.024 147.08 192.142 147.08 191.136C147.08 190.131 147.263 189.244 147.63 188.477C148 187.706 148.516 187.105 149.177 186.675C149.841 186.24 150.617 186.023 151.503 186.023C152.015 186.023 152.52 186.108 153.018 186.278C153.517 186.449 153.971 186.726 154.38 187.109C154.789 187.489 155.115 187.991 155.358 188.618C155.601 189.244 155.722 190.016 155.722 190.932V191.571H148.154V190.267H154.188C154.188 189.713 154.077 189.219 153.856 188.784C153.638 188.349 153.327 188.006 152.922 187.755C152.522 187.504 152.049 187.378 151.503 187.378C150.902 187.378 150.383 187.527 149.944 187.825C149.509 188.119 149.174 188.503 148.94 188.976C148.706 189.449 148.589 189.956 148.589 190.497V191.366C148.589 192.108 148.716 192.737 148.972 193.252C149.232 193.763 149.592 194.153 150.052 194.422C150.513 194.686 151.047 194.818 151.657 194.818C152.053 194.818 152.411 194.763 152.731 194.652C153.054 194.537 153.334 194.366 153.568 194.141C153.802 193.911 153.983 193.625 154.111 193.284L155.569 193.693C155.415 194.188 155.157 194.622 154.795 194.997C154.433 195.368 153.986 195.658 153.453 195.866C152.92 196.071 152.322 196.173 151.657 196.173ZM158.017 195.969V186.151H159.474V187.634H159.576C159.755 187.148 160.079 186.754 160.548 186.451C161.017 186.148 161.545 185.997 162.133 185.997C162.244 185.997 162.383 185.999 162.549 186.004C162.715 186.008 162.841 186.014 162.926 186.023V187.557C162.875 187.544 162.758 187.525 162.574 187.499C162.395 187.469 162.206 187.455 162.005 187.455C161.528 187.455 161.102 187.555 160.727 187.755C160.356 187.951 160.062 188.224 159.845 188.573C159.632 188.918 159.525 189.312 159.525 189.756V195.969H158.017ZM164.714 199.651V186.151H166.171V187.71H166.35C166.461 187.54 166.615 187.322 166.811 187.058C167.011 186.79 167.296 186.551 167.667 186.342C168.042 186.129 168.549 186.023 169.189 186.023C170.015 186.023 170.744 186.229 171.375 186.643C172.005 187.056 172.497 187.642 172.851 188.401C173.205 189.159 173.382 190.054 173.382 191.085C173.382 192.125 173.205 193.026 172.851 193.789C172.497 194.548 172.007 195.136 171.381 195.553C170.755 195.967 170.032 196.173 169.214 196.173C168.583 196.173 168.078 196.069 167.699 195.86C167.32 195.647 167.028 195.406 166.823 195.138C166.619 194.865 166.461 194.639 166.35 194.46H166.223V199.651H164.714ZM166.197 191.06C166.197 191.801 166.306 192.455 166.523 193.022C166.74 193.585 167.058 194.026 167.475 194.345C167.893 194.661 168.404 194.818 169.01 194.818C169.64 194.818 170.167 194.652 170.588 194.32C171.015 193.983 171.334 193.531 171.547 192.964C171.765 192.393 171.873 191.759 171.873 191.06C171.873 190.369 171.767 189.747 171.554 189.193C171.345 188.635 171.027 188.194 170.601 187.87C170.179 187.542 169.649 187.378 169.01 187.378C168.396 187.378 167.88 187.533 167.463 187.844C167.045 188.151 166.73 188.582 166.517 189.136C166.304 189.685 166.197 190.327 166.197 191.06ZM175.683 195.969V186.151H177.14V187.634H177.242C177.421 187.148 177.745 186.754 178.214 186.451C178.683 186.148 179.211 185.997 179.799 185.997C179.91 185.997 180.049 185.999 180.215 186.004C180.381 186.008 180.507 186.014 180.592 186.023V187.557C180.541 187.544 180.424 187.525 180.24 187.499C180.061 187.469 179.872 187.455 179.671 187.455C179.194 187.455 178.768 187.555 178.393 187.755C178.022 187.951 177.728 188.224 177.511 188.573C177.298 188.918 177.191 189.312 177.191 189.756V195.969H175.683ZM182.38 195.969V186.151H183.889V195.969H182.38ZM183.147 184.514C182.853 184.514 182.6 184.414 182.386 184.214C182.178 184.013 182.073 183.773 182.073 183.491C182.073 183.21 182.178 182.969 182.386 182.769C182.6 182.569 182.853 182.469 183.147 182.469C183.441 182.469 183.693 182.569 183.901 182.769C184.114 182.969 184.221 183.21 184.221 183.491C184.221 183.773 184.114 184.013 183.901 184.214C183.693 184.414 183.441 184.514 183.147 184.514ZM193.606 188.349L192.251 188.733C192.166 188.507 192.04 188.288 191.874 188.075C191.712 187.857 191.49 187.678 191.209 187.538C190.928 187.397 190.568 187.327 190.129 187.327C189.528 187.327 189.027 187.465 188.627 187.742C188.23 188.015 188.032 188.362 188.032 188.784C188.032 189.159 188.169 189.455 188.441 189.673C188.714 189.89 189.14 190.071 189.72 190.216L191.177 190.574C192.055 190.787 192.709 191.113 193.14 191.552C193.57 191.987 193.785 192.547 193.785 193.233C193.785 193.795 193.623 194.298 193.299 194.741C192.98 195.185 192.532 195.534 191.957 195.79C191.382 196.045 190.713 196.173 189.95 196.173C188.948 196.173 188.12 195.956 187.463 195.521C186.807 195.087 186.392 194.452 186.217 193.616L187.649 193.259C187.785 193.787 188.043 194.183 188.422 194.447C188.806 194.712 189.306 194.844 189.924 194.844C190.627 194.844 191.186 194.695 191.599 194.396C192.017 194.094 192.225 193.732 192.225 193.31C192.225 192.969 192.106 192.683 191.867 192.453C191.629 192.219 191.262 192.044 190.768 191.929L189.132 191.545C188.233 191.332 187.572 191.002 187.15 190.555C186.733 190.103 186.524 189.538 186.524 188.861C186.524 188.307 186.679 187.817 186.99 187.391C187.306 186.964 187.734 186.63 188.275 186.387C188.821 186.144 189.439 186.023 190.129 186.023C191.1 186.023 191.863 186.236 192.417 186.662C192.975 187.088 193.372 187.651 193.606 188.349ZM200.172 196.173C199.226 196.173 198.41 195.964 197.724 195.547C197.042 195.125 196.516 194.537 196.145 193.783C195.779 193.024 195.596 192.142 195.596 191.136C195.596 190.131 195.779 189.244 196.145 188.477C196.516 187.706 197.032 187.105 197.692 186.675C198.357 186.24 199.133 186.023 200.019 186.023C200.53 186.023 201.035 186.108 201.534 186.278C202.032 186.449 202.486 186.726 202.895 187.109C203.304 187.489 203.63 187.991 203.873 188.618C204.116 189.244 204.238 190.016 204.238 190.932V191.571H196.67V190.267H202.704C202.704 189.713 202.593 189.219 202.371 188.784C202.154 188.349 201.843 188.006 201.438 187.755C201.037 187.504 200.564 187.378 200.019 187.378C199.418 187.378 198.898 187.527 198.459 187.825C198.025 188.119 197.69 188.503 197.456 188.976C197.221 189.449 197.104 189.956 197.104 190.497V191.366C197.104 192.108 197.232 192.737 197.488 193.252C197.748 193.763 198.108 194.153 198.568 194.422C199.028 194.686 199.563 194.818 200.172 194.818C200.569 194.818 200.927 194.763 201.246 194.652C201.57 194.537 201.849 194.366 202.084 194.141C202.318 193.911 202.499 193.625 202.627 193.284L204.084 193.693C203.931 194.188 203.673 194.622 203.311 194.997C202.949 195.368 202.501 195.658 201.969 195.866C201.436 196.071 200.837 196.173 200.172 196.173ZM212.157 189.653V191.06H206.43V189.653H212.157ZM218.775 199.855C218.046 199.855 217.42 199.761 216.896 199.574C216.371 199.391 215.935 199.148 215.585 198.845C215.24 198.547 214.965 198.227 214.761 197.886L215.962 197.043C216.099 197.222 216.271 197.426 216.48 197.656C216.689 197.891 216.974 198.093 217.337 198.263C217.703 198.438 218.182 198.526 218.775 198.526C219.567 198.526 220.222 198.334 220.737 197.95C221.253 197.567 221.511 196.966 221.511 196.148V194.153H221.383C221.272 194.332 221.114 194.554 220.91 194.818C220.709 195.078 220.42 195.31 220.04 195.515C219.665 195.715 219.158 195.815 218.519 195.815C217.727 195.815 217.015 195.628 216.384 195.253C215.758 194.878 215.261 194.332 214.895 193.616C214.533 192.901 214.352 192.031 214.352 191.009C214.352 190.003 214.528 189.127 214.882 188.381C215.236 187.631 215.728 187.052 216.359 186.643C216.989 186.229 217.718 186.023 218.545 186.023C219.184 186.023 219.691 186.129 220.066 186.342C220.445 186.551 220.735 186.79 220.935 187.058C221.14 187.322 221.298 187.54 221.408 187.71H221.562V186.151H223.019V196.25C223.019 197.094 222.827 197.78 222.444 198.308C222.065 198.841 221.553 199.231 220.91 199.478C220.271 199.729 219.559 199.855 218.775 199.855ZM218.724 194.46C219.329 194.46 219.84 194.322 220.258 194.045C220.675 193.768 220.993 193.369 221.21 192.849C221.428 192.33 221.536 191.707 221.536 190.983C221.536 190.276 221.43 189.651 221.217 189.11C221.004 188.569 220.688 188.145 220.271 187.838C219.853 187.531 219.337 187.378 218.724 187.378C218.084 187.378 217.552 187.54 217.126 187.864C216.704 188.187 216.386 188.622 216.173 189.168C215.964 189.713 215.86 190.318 215.86 190.983C215.86 191.665 215.967 192.268 216.18 192.792C216.397 193.312 216.717 193.721 217.138 194.019C217.565 194.313 218.093 194.46 218.724 194.46ZM225.78 195.969V186.151H227.238V187.634H227.34C227.519 187.148 227.843 186.754 228.312 186.451C228.78 186.148 229.309 185.997 229.897 185.997C230.008 185.997 230.146 185.999 230.312 186.004C230.479 186.008 230.604 186.014 230.69 186.023V187.557C230.638 187.544 230.521 187.525 230.338 187.499C230.159 187.469 229.969 187.455 229.769 187.455C229.292 187.455 228.866 187.555 228.491 187.755C228.12 187.951 227.826 188.224 227.609 188.573C227.396 188.918 227.289 189.312 227.289 189.756V195.969H225.78ZM235.367 196.199C234.745 196.199 234.18 196.082 233.673 195.847C233.166 195.609 232.763 195.266 232.465 194.818C232.167 194.366 232.018 193.821 232.018 193.182C232.018 192.619 232.128 192.163 232.35 191.814C232.572 191.46 232.868 191.183 233.238 190.983C233.609 190.783 234.018 190.634 234.466 190.536C234.917 190.433 235.371 190.352 235.827 190.293C236.424 190.216 236.907 190.158 237.278 190.12C237.653 190.077 237.926 190.007 238.096 189.909C238.271 189.811 238.358 189.641 238.358 189.398V189.347C238.358 188.716 238.186 188.226 237.841 187.876C237.5 187.527 236.982 187.352 236.287 187.352C235.567 187.352 235.003 187.51 234.594 187.825C234.184 188.141 233.897 188.477 233.731 188.835L232.299 188.324C232.554 187.727 232.895 187.263 233.322 186.93C233.752 186.594 234.221 186.359 234.728 186.227C235.239 186.091 235.742 186.023 236.236 186.023C236.552 186.023 236.914 186.061 237.323 186.138C237.736 186.21 238.135 186.362 238.518 186.592C238.906 186.822 239.228 187.169 239.483 187.634C239.739 188.098 239.867 188.72 239.867 189.5V195.969H238.358V194.639H238.282C238.179 194.852 238.009 195.08 237.77 195.323C237.532 195.566 237.214 195.773 236.818 195.943C236.422 196.114 235.938 196.199 235.367 196.199ZM235.597 194.844C236.194 194.844 236.697 194.727 237.106 194.492C237.519 194.258 237.83 193.955 238.039 193.585C238.252 193.214 238.358 192.824 238.358 192.415V191.034C238.295 191.111 238.154 191.181 237.937 191.245C237.723 191.305 237.476 191.358 237.195 191.405C236.918 191.447 236.648 191.486 236.383 191.52C236.123 191.55 235.912 191.575 235.75 191.597C235.358 191.648 234.992 191.731 234.651 191.846C234.314 191.957 234.042 192.125 233.833 192.351C233.628 192.572 233.526 192.875 233.526 193.259C233.526 193.783 233.72 194.179 234.108 194.447C234.5 194.712 234.996 194.844 235.597 194.844ZM246.328 196.173C245.51 196.173 244.787 195.967 244.161 195.553C243.534 195.136 243.044 194.548 242.691 193.789C242.337 193.026 242.16 192.125 242.16 191.085C242.16 190.054 242.337 189.159 242.691 188.401C243.044 187.642 243.537 187.056 244.167 186.643C244.798 186.229 245.527 186.023 246.353 186.023C246.992 186.023 247.497 186.129 247.868 186.342C248.243 186.551 248.529 186.79 248.725 187.058C248.925 187.322 249.081 187.54 249.191 187.71H249.319V182.878H250.828V195.969H249.37V194.46H249.191C249.081 194.639 248.923 194.865 248.718 195.138C248.514 195.406 248.222 195.647 247.843 195.86C247.463 196.069 246.958 196.173 246.328 196.173ZM246.532 194.818C247.137 194.818 247.649 194.661 248.066 194.345C248.484 194.026 248.801 193.585 249.019 193.022C249.236 192.455 249.345 191.801 249.345 191.06C249.345 190.327 249.238 189.685 249.025 189.136C248.812 188.582 248.497 188.151 248.079 187.844C247.662 187.533 247.146 187.378 246.532 187.378C245.893 187.378 245.36 187.542 244.934 187.87C244.512 188.194 244.195 188.635 243.982 189.193C243.773 189.747 243.669 190.369 243.669 191.06C243.669 191.759 243.775 192.393 243.988 192.964C244.206 193.531 244.525 193.983 244.947 194.32C245.373 194.652 245.902 194.818 246.532 194.818ZM257.917 196.173C256.97 196.173 256.154 195.964 255.468 195.547C254.787 195.125 254.26 194.537 253.89 193.783C253.523 193.024 253.34 192.142 253.34 191.136C253.34 190.131 253.523 189.244 253.89 188.477C254.26 187.706 254.776 187.105 255.436 186.675C256.101 186.24 256.877 186.023 257.763 186.023C258.274 186.023 258.779 186.108 259.278 186.278C259.777 186.449 260.23 186.726 260.64 187.109C261.049 187.489 261.375 187.991 261.617 188.618C261.86 189.244 261.982 190.016 261.982 190.932V191.571H254.414V190.267H260.448C260.448 189.713 260.337 189.219 260.115 188.784C259.898 188.349 259.587 188.006 259.182 187.755C258.782 187.504 258.309 187.378 257.763 187.378C257.162 187.378 256.642 187.527 256.203 187.825C255.769 188.119 255.434 188.503 255.2 188.976C254.966 189.449 254.848 189.956 254.848 190.497V191.366C254.848 192.108 254.976 192.737 255.232 193.252C255.492 193.763 255.852 194.153 256.312 194.422C256.772 194.686 257.307 194.818 257.917 194.818C258.313 194.818 258.671 194.763 258.99 194.652C259.314 194.537 259.593 194.366 259.828 194.141C260.062 193.911 260.243 193.625 260.371 193.284L261.828 193.693C261.675 194.188 261.417 194.622 261.055 194.997C260.693 195.368 260.245 195.658 259.713 195.866C259.18 196.071 258.581 196.173 257.917 196.173ZM276.294 188.349L274.939 188.733C274.853 188.507 274.728 188.288 274.561 188.075C274.399 187.857 274.178 187.678 273.897 187.538C273.615 187.397 273.255 187.327 272.816 187.327C272.216 187.327 271.715 187.465 271.314 187.742C270.918 188.015 270.72 188.362 270.72 188.784C270.72 189.159 270.856 189.455 271.129 189.673C271.402 189.89 271.828 190.071 272.407 190.216L273.865 190.574C274.742 190.787 275.397 191.113 275.827 191.552C276.257 191.987 276.473 192.547 276.473 193.233C276.473 193.795 276.311 194.298 275.987 194.741C275.667 195.185 275.22 195.534 274.644 195.79C274.069 196.045 273.4 196.173 272.637 196.173C271.636 196.173 270.807 195.956 270.151 195.521C269.495 195.087 269.079 194.452 268.904 193.616L270.336 193.259C270.473 193.787 270.73 194.183 271.11 194.447C271.493 194.712 271.994 194.844 272.612 194.844C273.315 194.844 273.873 194.695 274.287 194.396C274.704 194.094 274.913 193.732 274.913 193.31C274.913 192.969 274.794 192.683 274.555 192.453C274.316 192.219 273.95 192.044 273.456 191.929L271.819 191.545C270.92 191.332 270.26 191.002 269.838 190.555C269.42 190.103 269.211 189.538 269.211 188.861C269.211 188.307 269.367 187.817 269.678 187.391C269.993 186.964 270.421 186.63 270.963 186.387C271.508 186.144 272.126 186.023 272.816 186.023C273.788 186.023 274.551 186.236 275.105 186.662C275.663 187.088 276.059 187.651 276.294 188.349ZM282.86 196.173C281.914 196.173 281.098 195.964 280.412 195.547C279.73 195.125 279.204 194.537 278.833 193.783C278.466 193.024 278.283 192.142 278.283 191.136C278.283 190.131 278.466 189.244 278.833 188.477C279.204 187.706 279.719 187.105 280.38 186.675C281.045 186.24 281.82 186.023 282.706 186.023C283.218 186.023 283.723 186.108 284.221 186.278C284.72 186.449 285.174 186.726 285.583 187.109C285.992 187.489 286.318 187.991 286.561 188.618C286.804 189.244 286.925 190.016 286.925 190.932V191.571H279.357V190.267H285.391C285.391 189.713 285.28 189.219 285.059 188.784C284.841 188.349 284.53 188.006 284.125 187.755C283.725 187.504 283.252 187.378 282.706 187.378C282.106 187.378 281.586 187.527 281.147 187.825C280.712 188.119 280.378 188.503 280.143 188.976C279.909 189.449 279.792 189.956 279.792 190.497V191.366C279.792 192.108 279.92 192.737 280.175 193.252C280.435 193.763 280.795 194.153 281.255 194.422C281.716 194.686 282.25 194.818 282.86 194.818C283.256 194.818 283.614 194.763 283.934 194.652C284.258 194.537 284.537 194.366 284.771 194.141C285.005 193.911 285.187 193.625 285.314 193.284L286.772 193.693C286.618 194.188 286.361 194.622 285.998 194.997C285.636 195.368 285.189 195.658 284.656 195.866C284.123 196.071 283.525 196.173 282.86 196.173ZM293.209 196.173C292.288 196.173 291.496 195.956 290.831 195.521C290.166 195.087 289.655 194.488 289.297 193.725C288.939 192.962 288.76 192.091 288.76 191.111C288.76 190.114 288.943 189.234 289.309 188.471C289.68 187.704 290.196 187.105 290.856 186.675C291.521 186.24 292.297 186.023 293.183 186.023C293.873 186.023 294.496 186.151 295.049 186.406C295.603 186.662 296.057 187.02 296.411 187.48C296.765 187.94 296.984 188.477 297.069 189.091H295.561C295.446 188.643 295.19 188.247 294.794 187.902C294.402 187.553 293.873 187.378 293.209 187.378C292.621 187.378 292.105 187.531 291.662 187.838C291.223 188.141 290.88 188.569 290.633 189.123C290.39 189.673 290.268 190.318 290.268 191.06C290.268 191.818 290.388 192.479 290.626 193.041C290.869 193.604 291.21 194.04 291.649 194.352C292.092 194.663 292.612 194.818 293.209 194.818C293.601 194.818 293.956 194.75 294.276 194.614C294.596 194.477 294.866 194.281 295.088 194.026C295.309 193.77 295.467 193.463 295.561 193.105H297.069C296.984 193.685 296.773 194.207 296.437 194.671C296.104 195.131 295.663 195.498 295.113 195.771C294.568 196.039 293.933 196.173 293.209 196.173ZM305.462 191.955V186.151H306.971V195.969H305.462V194.307H305.36C305.13 194.805 304.772 195.229 304.286 195.579C303.8 195.924 303.187 196.097 302.445 196.097C301.831 196.097 301.286 195.962 300.809 195.694C300.331 195.421 299.956 195.012 299.684 194.467C299.411 193.917 299.275 193.224 299.275 192.389V186.151H300.783V192.287C300.783 193.003 300.983 193.574 301.384 194C301.789 194.426 302.304 194.639 302.931 194.639C303.306 194.639 303.687 194.543 304.075 194.352C304.467 194.16 304.795 193.866 305.059 193.469C305.328 193.073 305.462 192.568 305.462 191.955ZM309.734 195.969V186.151H311.191V187.634H311.293C311.472 187.148 311.796 186.754 312.265 186.451C312.734 186.148 313.262 185.997 313.85 185.997C313.961 185.997 314.099 185.999 314.266 186.004C314.432 186.008 314.557 186.014 314.643 186.023V187.557C314.592 187.544 314.474 187.525 314.291 187.499C314.112 187.469 313.923 187.455 313.722 187.455C313.245 187.455 312.819 187.555 312.444 187.755C312.073 187.951 311.779 188.224 311.562 188.573C311.349 188.918 311.242 189.312 311.242 189.756V195.969H309.734ZM316.431 195.969V186.151H317.939V195.969H316.431ZM317.198 184.514C316.904 184.514 316.65 184.414 316.437 184.214C316.228 184.013 316.124 183.773 316.124 183.491C316.124 183.21 316.228 182.969 316.437 182.769C316.65 182.569 316.904 182.469 317.198 182.469C317.492 182.469 317.743 182.569 317.952 182.769C318.165 182.969 318.272 183.21 318.272 183.491C318.272 183.773 318.165 184.013 317.952 184.214C317.743 184.414 317.492 184.514 317.198 184.514ZM324.972 186.151V187.429H319.884V186.151H324.972ZM321.367 183.798H322.876V193.156C322.876 193.582 322.937 193.902 323.061 194.115C323.189 194.324 323.351 194.464 323.547 194.537C323.747 194.605 323.958 194.639 324.18 194.639C324.346 194.639 324.482 194.631 324.589 194.614C324.695 194.592 324.78 194.575 324.844 194.562L325.151 195.918C325.049 195.956 324.906 195.994 324.723 196.033C324.54 196.075 324.307 196.097 324.026 196.097C323.6 196.097 323.182 196.005 322.773 195.822C322.369 195.638 322.032 195.359 321.763 194.984C321.499 194.609 321.367 194.136 321.367 193.565V183.798ZM328.213 199.651C327.957 199.651 327.729 199.629 327.529 199.587C327.329 199.548 327.19 199.51 327.114 199.472L327.497 198.142C327.864 198.236 328.187 198.27 328.469 198.244C328.75 198.219 328.999 198.093 329.217 197.867C329.438 197.646 329.641 197.286 329.824 196.787L330.105 196.02L326.474 186.151H328.111L330.821 193.974H330.923L333.633 186.151H335.27L331.102 197.401C330.915 197.908 330.682 198.327 330.405 198.66C330.129 198.996 329.807 199.246 329.44 199.408C329.078 199.57 328.669 199.651 328.213 199.651ZM143.865 220.173C142.944 220.173 142.152 219.956 141.487 219.521C140.822 219.087 140.311 218.488 139.953 217.725C139.595 216.962 139.416 216.091 139.416 215.111C139.416 214.114 139.599 213.234 139.966 212.471C140.336 211.704 140.852 211.105 141.513 210.675C142.177 210.24 142.953 210.023 143.839 210.023C144.53 210.023 145.152 210.151 145.706 210.406C146.26 210.662 146.714 211.02 147.067 211.48C147.421 211.94 147.64 212.477 147.726 213.091H146.217C146.102 212.643 145.846 212.247 145.45 211.902C145.058 211.553 144.53 211.378 143.865 211.378C143.277 211.378 142.761 211.531 142.318 211.838C141.879 212.141 141.536 212.569 141.289 213.123C141.046 213.673 140.924 214.318 140.924 215.06C140.924 215.818 141.044 216.479 141.282 217.041C141.525 217.604 141.866 218.04 142.305 218.352C142.748 218.663 143.268 218.818 143.865 218.818C144.257 218.818 144.613 218.75 144.932 218.614C145.252 218.477 145.523 218.281 145.744 218.026C145.966 217.77 146.123 217.463 146.217 217.105H147.726C147.64 217.685 147.429 218.207 147.093 218.671C146.76 219.131 146.319 219.498 145.77 219.771C145.224 220.039 144.589 220.173 143.865 220.173ZM153.92 220.173C153.033 220.173 152.255 219.962 151.586 219.54C150.922 219.119 150.402 218.528 150.027 217.77C149.656 217.011 149.471 216.125 149.471 215.111C149.471 214.088 149.656 213.195 150.027 212.433C150.402 211.67 150.922 211.077 151.586 210.656C152.255 210.234 153.033 210.023 153.92 210.023C154.806 210.023 155.581 210.234 156.246 210.656C156.915 211.077 157.435 211.67 157.806 212.433C158.181 213.195 158.368 214.088 158.368 215.111C158.368 216.125 158.181 217.011 157.806 217.77C157.435 218.528 156.915 219.119 156.246 219.54C155.581 219.962 154.806 220.173 153.92 220.173ZM153.92 218.818C154.593 218.818 155.147 218.646 155.581 218.3C156.016 217.955 156.338 217.501 156.547 216.939C156.755 216.376 156.86 215.767 156.86 215.111C156.86 214.455 156.755 213.843 156.547 213.276C156.338 212.71 156.016 212.251 155.581 211.902C155.147 211.553 154.593 211.378 153.92 211.378C153.246 211.378 152.692 211.553 152.258 211.902C151.823 212.251 151.501 212.71 151.292 213.276C151.084 213.843 150.979 214.455 150.979 215.111C150.979 215.767 151.084 216.376 151.292 216.939C151.501 217.501 151.823 217.955 152.258 218.3C152.692 218.646 153.246 218.818 153.92 218.818ZM160.671 219.969V210.151H162.129V211.685H162.256C162.461 211.161 162.791 210.754 163.247 210.464C163.703 210.17 164.251 210.023 164.89 210.023C165.538 210.023 166.077 210.17 166.507 210.464C166.942 210.754 167.28 211.161 167.523 211.685H167.626C167.877 211.178 168.254 210.775 168.757 210.477C169.26 210.174 169.863 210.023 170.566 210.023C171.444 210.023 172.162 210.298 172.72 210.847C173.278 211.393 173.557 212.243 173.557 213.398V219.969H172.049V213.398C172.049 212.673 171.851 212.156 171.454 211.844C171.058 211.533 170.592 211.378 170.055 211.378C169.364 211.378 168.829 211.587 168.45 212.004C168.071 212.418 167.881 212.942 167.881 213.577V219.969H166.347V213.244C166.347 212.686 166.166 212.237 165.804 211.896C165.442 211.55 164.975 211.378 164.404 211.378C164.012 211.378 163.646 211.482 163.305 211.691C162.968 211.9 162.695 212.19 162.486 212.56C162.282 212.927 162.18 213.351 162.18 213.832V219.969H160.671ZM176.316 223.651V210.151H177.773V211.71H177.952C178.063 211.54 178.216 211.322 178.412 211.058C178.613 210.79 178.898 210.551 179.269 210.342C179.644 210.129 180.151 210.023 180.79 210.023C181.617 210.023 182.345 210.229 182.976 210.643C183.607 211.056 184.099 211.642 184.453 212.401C184.806 213.159 184.983 214.054 184.983 215.085C184.983 216.125 184.806 217.026 184.453 217.789C184.099 218.548 183.609 219.136 182.983 219.553C182.356 219.967 181.634 220.173 180.816 220.173C180.185 220.173 179.68 220.069 179.301 219.86C178.921 219.647 178.63 219.406 178.425 219.138C178.22 218.865 178.063 218.639 177.952 218.46H177.824V223.651H176.316ZM177.799 215.06C177.799 215.801 177.907 216.455 178.125 217.022C178.342 217.585 178.659 218.026 179.077 218.345C179.495 218.661 180.006 218.818 180.611 218.818C181.242 218.818 181.768 218.652 182.19 218.32C182.616 217.983 182.936 217.531 183.149 216.964C183.366 216.393 183.475 215.759 183.475 215.06C183.475 214.369 183.368 213.747 183.155 213.193C182.946 212.635 182.629 212.194 182.203 211.87C181.781 211.542 181.25 211.378 180.611 211.378C179.997 211.378 179.482 211.533 179.064 211.844C178.647 212.151 178.331 212.582 178.118 213.136C177.905 213.685 177.799 214.327 177.799 215.06ZM188.793 206.878V219.969H187.284V206.878H188.793ZM191.556 219.969V210.151H193.064V219.969H191.556ZM192.323 208.514C192.029 208.514 191.775 208.414 191.562 208.214C191.353 208.013 191.249 207.773 191.249 207.491C191.249 207.21 191.353 206.969 191.562 206.769C191.775 206.569 192.029 206.469 192.323 206.469C192.617 206.469 192.868 206.569 193.077 206.769C193.29 206.969 193.397 207.21 193.397 207.491C193.397 207.773 193.29 208.013 193.077 208.214C192.868 208.414 192.617 208.514 192.323 208.514ZM198.717 220.199C198.094 220.199 197.53 220.082 197.023 219.847C196.516 219.609 196.113 219.266 195.815 218.818C195.516 218.366 195.367 217.821 195.367 217.182C195.367 216.619 195.478 216.163 195.7 215.814C195.921 215.46 196.217 215.183 196.588 214.983C196.959 214.783 197.368 214.634 197.815 214.536C198.267 214.433 198.721 214.352 199.177 214.293C199.773 214.216 200.257 214.158 200.628 214.12C201.003 214.077 201.276 214.007 201.446 213.909C201.621 213.811 201.708 213.641 201.708 213.398V213.347C201.708 212.716 201.535 212.226 201.19 211.876C200.849 211.527 200.332 211.352 199.637 211.352C198.917 211.352 198.352 211.51 197.943 211.825C197.534 212.141 197.246 212.477 197.08 212.835L195.648 212.324C195.904 211.727 196.245 211.263 196.671 210.93C197.102 210.594 197.57 210.359 198.077 210.227C198.589 210.091 199.092 210.023 199.586 210.023C199.901 210.023 200.263 210.061 200.673 210.138C201.086 210.21 201.484 210.362 201.868 210.592C202.256 210.822 202.577 211.169 202.833 211.634C203.089 212.098 203.217 212.72 203.217 213.5V219.969H201.708V218.639H201.631C201.529 218.852 201.359 219.08 201.12 219.323C200.881 219.566 200.564 219.773 200.168 219.943C199.771 220.114 199.288 220.199 198.717 220.199ZM198.947 218.844C199.543 218.844 200.046 218.727 200.455 218.492C200.869 218.258 201.18 217.955 201.388 217.585C201.602 217.214 201.708 216.824 201.708 216.415V215.034C201.644 215.111 201.504 215.181 201.286 215.245C201.073 215.305 200.826 215.358 200.545 215.405C200.268 215.447 199.997 215.486 199.733 215.52C199.473 215.55 199.262 215.575 199.1 215.597C198.708 215.648 198.342 215.731 198.001 215.846C197.664 215.957 197.391 216.125 197.182 216.351C196.978 216.572 196.876 216.875 196.876 217.259C196.876 217.783 197.07 218.179 197.457 218.447C197.849 218.712 198.346 218.844 198.947 218.844ZM207.478 214.062V219.969H205.97V210.151H207.427V211.685H207.555C207.785 211.186 208.135 210.786 208.603 210.483C209.072 210.176 209.677 210.023 210.419 210.023C211.084 210.023 211.665 210.159 212.164 210.432C212.662 210.7 213.05 211.109 213.327 211.659C213.604 212.205 213.743 212.895 213.743 213.73V219.969H212.234V213.832C212.234 213.061 212.034 212.46 211.633 212.03C211.233 211.595 210.683 211.378 209.984 211.378C209.503 211.378 209.072 211.482 208.693 211.691C208.318 211.9 208.022 212.205 207.804 212.605C207.587 213.006 207.478 213.491 207.478 214.062ZM220.769 210.151V211.429H215.681V210.151H220.769ZM217.164 207.798H218.673V217.156C218.673 217.582 218.734 217.902 218.858 218.115C218.986 218.324 219.148 218.464 219.344 218.537C219.544 218.605 219.755 218.639 219.977 218.639C220.143 218.639 220.279 218.631 220.386 218.614C220.492 218.592 220.577 218.575 220.641 218.562L220.948 219.918C220.846 219.956 220.703 219.994 220.52 220.033C220.337 220.075 220.104 220.097 219.823 220.097C219.397 220.097 218.979 220.005 218.57 219.822C218.165 219.638 217.829 219.359 217.56 218.984C217.296 218.609 217.164 218.136 217.164 217.565V207.798Z" fill="#050038"/>
</svg>
