<svg width="360" height="201" viewBox="0 0 360 201" fill="none" xmlns="http://www.w3.org/2000/svg">
<path d="M190.494 113.289V105.163H180.32L180.448 95.1807H172.002L171.81 105.163H162.148L162.276 95.1807H153.766L153.638 105.163H143.08V113.289H153.51L153.382 121.927H143.08V130.054H153.254L153.126 139.972H161.636L161.764 130.054H171.49L171.362 139.972H179.809L179.937 130.054H190.494V121.927H180.065L180.193 113.289H190.494ZM171.618 121.927H161.892L162.02 113.289H171.746L171.618 121.927ZM207.103 139.972H217.277V95.1807H207.359L207.231 96.7803C206.975 100.492 205.247 102.219 201.472 102.411L196.161 102.667V110.857H207.103V139.972Z" fill="#050038"/>
<path d="M31.4005 182.878L35.2868 193.898H35.4403L39.3266 182.878H40.9885L36.1817 195.969H34.5454L29.7385 182.878H31.4005ZM42.8231 195.969V186.151H44.3316V195.969H42.8231ZM43.5901 184.514C43.2961 184.514 43.0425 184.414 42.8295 184.214C42.6206 184.013 42.5162 183.773 42.5162 183.491C42.5162 183.21 42.6206 182.969 42.8295 182.769C43.0425 182.569 43.2961 182.469 43.5901 182.469C43.8841 182.469 44.1356 182.569 44.3444 182.769C44.5574 182.969 44.664 183.21 44.664 183.491C44.664 183.773 44.5574 184.013 44.3444 184.214C44.1356 184.414 43.8841 184.514 43.5901 184.514ZM54.0491 188.349L52.694 188.733C52.6088 188.507 52.483 188.288 52.3169 188.075C52.1549 187.857 51.9333 187.678 51.6521 187.538C51.3708 187.397 51.0107 187.327 50.5718 187.327C49.971 187.327 49.4703 187.465 49.0697 187.742C48.6734 188.015 48.4752 188.362 48.4752 188.784C48.4752 189.159 48.6116 189.455 48.8843 189.673C49.157 189.89 49.5832 190.071 50.1627 190.216L51.6201 190.574C52.498 190.787 53.1521 191.113 53.5825 191.552C54.0129 191.987 54.2281 192.547 54.2281 193.233C54.2281 193.795 54.0661 194.298 53.7423 194.741C53.4227 195.185 52.9752 195.534 52.3999 195.79C51.8247 196.045 51.1556 196.173 50.3928 196.173C49.3914 196.173 48.5626 195.956 47.9063 195.521C47.2501 195.087 46.8346 194.452 46.6599 193.616L48.0917 193.259C48.2281 193.787 48.4859 194.183 48.8651 194.447C49.2487 194.712 49.7494 194.844 50.3673 194.844C51.0704 194.844 51.6286 194.695 52.042 194.396C52.4596 194.094 52.6684 193.732 52.6684 193.31C52.6684 192.969 52.5491 192.683 52.3105 192.453C52.0718 192.219 51.7053 192.044 51.211 191.929L49.5747 191.545C48.6755 191.332 48.015 191.002 47.5931 190.555C47.1755 190.103 46.9667 189.538 46.9667 188.861C46.9667 188.307 47.1222 187.817 47.4333 187.391C47.7487 186.964 48.1769 186.63 48.7181 186.387C49.2636 186.144 49.8815 186.023 50.5718 186.023C51.5434 186.023 52.3062 186.236 52.8602 186.662C53.4184 187.088 53.8147 187.651 54.0491 188.349ZM62.6863 191.955V186.151H64.1949V195.969H62.6863V194.307H62.5841C62.354 194.805 61.996 195.229 61.5102 195.579C61.0244 195.924 60.4108 196.097 59.6693 196.097C59.0557 196.097 58.5102 195.962 58.0329 195.694C57.5557 195.421 57.1807 195.012 56.9079 194.467C56.6352 193.917 56.4988 193.224 56.4988 192.389V186.151H58.0074V192.287C58.0074 193.003 58.2077 193.574 58.6082 194C59.0131 194.426 59.5287 194.639 60.1551 194.639C60.5301 194.639 60.9115 194.543 61.2993 194.352C61.6913 194.16 62.0194 193.866 62.2836 193.469C62.5521 193.073 62.6863 192.568 62.6863 191.955ZM69.847 196.199C69.2249 196.199 68.6602 196.082 68.1531 195.847C67.646 195.609 67.2433 195.266 66.945 194.818C66.6468 194.366 66.4976 193.821 66.4976 193.182C66.4976 192.619 66.6084 192.163 66.83 191.814C67.0516 191.46 67.3477 191.183 67.7185 190.983C68.0892 190.783 68.4983 190.634 68.9458 190.536C69.3975 190.433 69.8513 190.352 70.3073 190.293C70.9039 190.216 71.3875 190.158 71.7583 190.12C72.1333 190.077 72.406 190.007 72.5764 189.909C72.7512 189.811 72.8385 189.641 72.8385 189.398V189.347C72.8385 188.716 72.6659 188.226 72.3208 187.876C71.9798 187.527 71.4621 187.352 70.7675 187.352C70.0473 187.352 69.4827 187.51 69.0736 187.825C68.6645 188.141 68.3769 188.477 68.2107 188.835L66.7789 188.324C67.0345 187.727 67.3754 187.263 67.8016 186.93C68.232 186.594 68.7007 186.359 69.2078 186.227C69.7192 186.091 70.222 186.023 70.7164 186.023C71.0317 186.023 71.3939 186.061 71.803 186.138C72.2164 186.21 72.6148 186.362 72.9983 186.592C73.3861 186.822 73.7078 187.169 73.9635 187.634C74.2192 188.098 74.347 188.72 74.347 189.5V195.969H72.8385V194.639H72.7618C72.6595 194.852 72.4891 195.08 72.2504 195.323C72.0118 195.566 71.6943 195.773 71.298 195.943C70.9017 196.114 70.4181 196.199 69.847 196.199ZM70.0771 194.844C70.6737 194.844 71.1766 194.727 71.5857 194.492C71.999 194.258 72.3101 193.955 72.5189 193.585C72.732 193.214 72.8385 192.824 72.8385 192.415V191.034C72.7746 191.111 72.634 191.181 72.4166 191.245C72.2036 191.305 71.9564 191.358 71.6752 191.405C71.3982 191.447 71.1276 191.486 70.8634 191.52C70.6034 191.55 70.3925 191.575 70.2306 191.597C69.8385 191.648 69.472 191.731 69.1311 191.846C68.7945 191.957 68.5218 192.125 68.3129 192.351C68.1084 192.572 68.0061 192.875 68.0061 193.259C68.0061 193.783 68.2 194.179 68.5878 194.447C68.9798 194.712 69.4763 194.844 70.0771 194.844ZM78.6089 182.878V195.969H77.1004V182.878H78.6089ZM97.173 186.969H95.5878C95.4941 186.513 95.33 186.112 95.0956 185.767C94.8655 185.422 94.5843 185.132 94.2519 184.898C93.9237 184.659 93.5594 184.48 93.1588 184.361C92.7583 184.241 92.3406 184.182 91.906 184.182C91.1134 184.182 90.3953 184.382 89.7519 184.783C89.1127 185.183 88.6034 185.773 88.2242 186.553C87.8492 187.333 87.6617 188.29 87.6617 189.423C87.6617 190.557 87.8492 191.513 88.2242 192.293C88.6034 193.073 89.1127 193.663 89.7519 194.064C90.3953 194.464 91.1134 194.665 91.906 194.665C92.3406 194.665 92.7583 194.605 93.1588 194.486C93.5594 194.366 93.9237 194.19 94.2519 193.955C94.5843 193.717 94.8655 193.425 95.0956 193.08C95.33 192.73 95.4941 192.33 95.5878 191.878H97.173C97.0537 192.547 96.8364 193.146 96.521 193.674C96.2057 194.202 95.8137 194.652 95.3449 195.023C94.8762 195.389 94.3499 195.668 93.7661 195.86C93.1865 196.052 92.5665 196.148 91.906 196.148C90.7895 196.148 89.7966 195.875 88.9273 195.33C88.058 194.784 87.374 194.009 86.8754 193.003C86.3769 191.997 86.1276 190.804 86.1276 189.423C86.1276 188.043 86.3769 186.849 86.8754 185.844C87.374 184.838 88.058 184.062 88.9273 183.517C89.7966 182.972 90.7895 182.699 91.906 182.699C92.5665 182.699 93.1865 182.795 93.7661 182.987C94.3499 183.178 94.8762 183.46 95.3449 183.83C95.8137 184.197 96.2057 184.644 96.521 185.173C96.8364 185.697 97.0537 186.295 97.173 186.969ZM103.519 196.173C102.632 196.173 101.855 195.962 101.186 195.54C100.521 195.119 100.001 194.528 99.626 193.77C99.2552 193.011 99.0699 192.125 99.0699 191.111C99.0699 190.088 99.2552 189.195 99.626 188.433C100.001 187.67 100.521 187.077 101.186 186.656C101.855 186.234 102.632 186.023 103.519 186.023C104.405 186.023 105.181 186.234 105.845 186.656C106.514 187.077 107.034 187.67 107.405 188.433C107.78 189.195 107.968 190.088 107.968 191.111C107.968 192.125 107.78 193.011 107.405 193.77C107.034 194.528 106.514 195.119 105.845 195.54C105.181 195.962 104.405 196.173 103.519 196.173ZM103.519 194.818C104.192 194.818 104.746 194.646 105.181 194.3C105.615 193.955 105.937 193.501 106.146 192.939C106.355 192.376 106.459 191.767 106.459 191.111C106.459 190.455 106.355 189.843 106.146 189.276C105.937 188.71 105.615 188.251 105.181 187.902C104.746 187.553 104.192 187.378 103.519 187.378C102.845 187.378 102.291 187.553 101.857 187.902C101.422 188.251 101.1 188.71 100.892 189.276C100.683 189.843 100.578 190.455 100.578 191.111C100.578 191.767 100.683 192.376 100.892 192.939C101.1 193.501 101.422 193.955 101.857 194.3C102.291 194.646 102.845 194.818 103.519 194.818ZM111.779 182.878V195.969H110.27V182.878H111.779ZM116.05 182.878V195.969H114.542V182.878H116.05ZM121.703 196.199C121.08 196.199 120.516 196.082 120.009 195.847C119.502 195.609 119.099 195.266 118.801 194.818C118.502 194.366 118.353 193.821 118.353 193.182C118.353 192.619 118.464 192.163 118.685 191.814C118.907 191.46 119.203 191.183 119.574 190.983C119.945 190.783 120.354 190.634 120.801 190.536C121.253 190.433 121.707 190.352 122.163 190.293C122.759 190.216 123.243 190.158 123.614 190.12C123.989 190.077 124.261 190.007 124.432 189.909C124.607 189.811 124.694 189.641 124.694 189.398V189.347C124.694 188.716 124.521 188.226 124.176 187.876C123.835 187.527 123.318 187.352 122.623 187.352C121.903 187.352 121.338 187.51 120.929 187.825C120.52 188.141 120.232 188.477 120.066 188.835L118.634 188.324C118.89 187.727 119.231 187.263 119.657 186.93C120.087 186.594 120.556 186.359 121.063 186.227C121.575 186.091 122.078 186.023 122.572 186.023C122.887 186.023 123.249 186.061 123.658 186.138C124.072 186.21 124.47 186.362 124.854 186.592C125.242 186.822 125.563 187.169 125.819 187.634C126.075 188.098 126.203 188.72 126.203 189.5V195.969H124.694V194.639H124.617C124.515 194.852 124.345 195.08 124.106 195.323C123.867 195.566 123.55 195.773 123.153 195.943C122.757 196.114 122.274 196.199 121.703 196.199ZM121.933 194.844C122.529 194.844 123.032 194.727 123.441 194.492C123.854 194.258 124.166 193.955 124.374 193.585C124.587 193.214 124.694 192.824 124.694 192.415V191.034C124.63 191.111 124.489 191.181 124.272 191.245C124.059 191.305 123.812 191.358 123.531 191.405C123.254 191.447 122.983 191.486 122.719 191.52C122.459 191.55 122.248 191.575 122.086 191.597C121.694 191.648 121.328 191.731 120.987 191.846C120.65 191.957 120.377 192.125 120.168 192.351C119.964 192.572 119.862 192.875 119.862 193.259C119.862 193.783 120.055 194.179 120.443 194.447C120.835 194.712 121.332 194.844 121.933 194.844ZM129.16 195.969V182.878H130.669V187.71H130.797C130.908 187.54 131.061 187.322 131.257 187.058C131.457 186.79 131.743 186.551 132.114 186.342C132.489 186.129 132.996 186.023 133.635 186.023C134.462 186.023 135.19 186.229 135.821 186.643C136.452 187.056 136.944 187.642 137.297 188.401C137.651 189.159 137.828 190.054 137.828 191.085C137.828 192.125 137.651 193.026 137.297 193.789C136.944 194.548 136.454 195.136 135.827 195.553C135.201 195.967 134.479 196.173 133.66 196.173C133.03 196.173 132.525 196.069 132.146 195.86C131.766 195.647 131.474 195.406 131.27 195.138C131.065 194.865 130.908 194.639 130.797 194.46H130.618V195.969H129.16ZM130.643 191.06C130.643 191.801 130.752 192.455 130.969 193.022C131.187 193.585 131.504 194.026 131.922 194.345C132.339 194.661 132.851 194.818 133.456 194.818C134.087 194.818 134.613 194.652 135.035 194.32C135.461 193.983 135.78 193.531 135.994 192.964C136.211 192.393 136.32 191.759 136.32 191.06C136.32 190.369 136.213 189.747 136 189.193C135.791 188.635 135.474 188.194 135.047 187.87C134.626 187.542 134.095 187.378 133.456 187.378C132.842 187.378 132.327 187.533 131.909 187.844C131.491 188.151 131.176 188.582 130.963 189.136C130.75 189.685 130.643 190.327 130.643 191.06ZM144.124 196.173C143.238 196.173 142.46 195.962 141.791 195.54C141.126 195.119 140.606 194.528 140.231 193.77C139.861 193.011 139.675 192.125 139.675 191.111C139.675 190.088 139.861 189.195 140.231 188.433C140.606 187.67 141.126 187.077 141.791 186.656C142.46 186.234 143.238 186.023 144.124 186.023C145.011 186.023 145.786 186.234 146.451 186.656C147.12 187.077 147.64 187.67 148.011 188.433C148.386 189.195 148.573 190.088 148.573 191.111C148.573 192.125 148.386 193.011 148.011 193.77C147.64 194.528 147.12 195.119 146.451 195.54C145.786 195.962 145.011 196.173 144.124 196.173ZM144.124 194.818C144.797 194.818 145.351 194.646 145.786 194.3C146.221 193.955 146.543 193.501 146.751 192.939C146.96 192.376 147.065 191.767 147.065 191.111C147.065 190.455 146.96 189.843 146.751 189.276C146.543 188.71 146.221 188.251 145.786 187.902C145.351 187.553 144.797 187.378 144.124 187.378C143.451 187.378 142.897 187.553 142.462 187.902C142.028 188.251 141.706 188.71 141.497 189.276C141.288 189.843 141.184 190.455 141.184 191.111C141.184 191.767 141.288 192.376 141.497 192.939C141.706 193.501 142.028 193.955 142.462 194.3C142.897 194.646 143.451 194.818 144.124 194.818ZM150.876 195.969V186.151H152.333V187.634H152.435C152.614 187.148 152.938 186.754 153.407 186.451C153.876 186.148 154.404 185.997 154.992 185.997C155.103 185.997 155.242 185.999 155.408 186.004C155.574 186.008 155.7 186.014 155.785 186.023V187.557C155.734 187.544 155.617 187.525 155.433 187.499C155.254 187.469 155.065 187.455 154.864 187.455C154.387 187.455 153.961 187.555 153.586 187.755C153.215 187.951 152.921 188.224 152.704 188.573C152.491 188.918 152.384 189.312 152.384 189.756V195.969H150.876ZM160.462 196.199C159.84 196.199 159.275 196.082 158.768 195.847C158.261 195.609 157.859 195.266 157.56 194.818C157.262 194.366 157.113 193.821 157.113 193.182C157.113 192.619 157.224 192.163 157.445 191.814C157.667 191.46 157.963 191.183 158.334 190.983C158.704 190.783 159.114 190.634 159.561 190.536C160.013 190.433 160.467 190.352 160.922 190.293C161.519 190.216 162.003 190.158 162.373 190.12C162.748 190.077 163.021 190.007 163.192 189.909C163.366 189.811 163.454 189.641 163.454 189.398V189.347C163.454 188.716 163.281 188.226 162.936 187.876C162.595 187.527 162.077 187.352 161.383 187.352C160.663 187.352 160.098 187.51 159.689 187.825C159.28 188.141 158.992 188.477 158.826 188.835L157.394 188.324C157.65 187.727 157.991 187.263 158.417 186.93C158.847 186.594 159.316 186.359 159.823 186.227C160.334 186.091 160.837 186.023 161.332 186.023C161.647 186.023 162.009 186.061 162.418 186.138C162.832 186.21 163.23 186.362 163.614 186.592C164.001 186.822 164.323 187.169 164.579 187.634C164.834 188.098 164.962 188.72 164.962 189.5V195.969H163.454V194.639H163.377C163.275 194.852 163.104 195.08 162.866 195.323C162.627 195.566 162.31 195.773 161.913 195.943C161.517 196.114 161.033 196.199 160.462 196.199ZM160.692 194.844C161.289 194.844 161.792 194.727 162.201 194.492C162.614 194.258 162.925 193.955 163.134 193.585C163.347 193.214 163.454 192.824 163.454 192.415V191.034C163.39 191.111 163.249 191.181 163.032 191.245C162.819 191.305 162.572 191.358 162.29 191.405C162.013 191.447 161.743 191.486 161.479 191.52C161.219 191.55 161.008 191.575 160.846 191.597C160.454 191.648 160.087 191.731 159.746 191.846C159.41 191.957 159.137 192.125 158.928 192.351C158.724 192.572 158.621 192.875 158.621 193.259C158.621 193.783 158.815 194.179 159.203 194.447C159.595 194.712 160.092 194.844 160.692 194.844ZM171.986 186.151V187.429H166.897V186.151H171.986ZM168.38 183.798H169.889V193.156C169.889 193.582 169.951 193.902 170.074 194.115C170.202 194.324 170.364 194.464 170.56 194.537C170.76 194.605 170.971 194.639 171.193 194.639C171.359 194.639 171.495 194.631 171.602 194.614C171.709 194.592 171.794 194.575 171.858 194.562L172.165 195.918C172.062 195.956 171.919 195.994 171.736 196.033C171.553 196.075 171.321 196.097 171.04 196.097C170.613 196.097 170.196 196.005 169.787 195.822C169.382 195.638 169.045 195.359 168.777 194.984C168.513 194.609 168.38 194.136 168.38 193.565V183.798ZM174.255 195.969V186.151H175.763V195.969H174.255ZM175.022 184.514C174.728 184.514 174.474 184.414 174.261 184.214C174.052 184.013 173.948 183.773 173.948 183.491C173.948 183.21 174.052 182.969 174.261 182.769C174.474 182.569 174.728 182.469 175.022 182.469C175.316 182.469 175.567 182.569 175.776 182.769C175.989 182.969 176.096 183.21 176.096 183.491C176.096 183.773 175.989 184.013 175.776 184.214C175.567 184.414 175.316 184.514 175.022 184.514ZM182.515 196.173C181.628 196.173 180.851 195.962 180.182 195.54C179.517 195.119 178.997 194.528 178.622 193.77C178.251 193.011 178.066 192.125 178.066 191.111C178.066 190.088 178.251 189.195 178.622 188.433C178.997 187.67 179.517 187.077 180.182 186.656C180.851 186.234 181.628 186.023 182.515 186.023C183.401 186.023 184.177 186.234 184.842 186.656C185.511 187.077 186.03 187.67 186.401 188.433C186.776 189.195 186.964 190.088 186.964 191.111C186.964 192.125 186.776 193.011 186.401 193.77C186.03 194.528 185.511 195.119 184.842 195.54C184.177 195.962 183.401 196.173 182.515 196.173ZM182.515 194.818C183.188 194.818 183.742 194.646 184.177 194.3C184.611 193.955 184.933 193.501 185.142 192.939C185.351 192.376 185.455 191.767 185.455 191.111C185.455 190.455 185.351 189.843 185.142 189.276C184.933 188.71 184.611 188.251 184.177 187.902C183.742 187.553 183.188 187.378 182.515 187.378C181.842 187.378 181.288 187.553 180.853 187.902C180.418 188.251 180.097 188.71 179.888 189.276C179.679 189.843 179.574 190.455 179.574 191.111C179.574 191.767 179.679 192.376 179.888 192.939C180.097 193.501 180.418 193.955 180.853 194.3C181.288 194.646 181.842 194.818 182.515 194.818ZM190.775 190.062V195.969H189.266V186.151H190.724V187.685H190.852C191.082 187.186 191.431 186.786 191.9 186.483C192.369 186.176 192.974 186.023 193.715 186.023C194.38 186.023 194.962 186.159 195.46 186.432C195.959 186.7 196.347 187.109 196.624 187.659C196.901 188.205 197.039 188.895 197.039 189.73V195.969H195.531V189.832C195.531 189.061 195.33 188.46 194.93 188.03C194.529 187.595 193.979 187.378 193.281 187.378C192.799 187.378 192.369 187.482 191.989 187.691C191.614 187.9 191.318 188.205 191.101 188.605C190.884 189.006 190.775 189.491 190.775 190.062ZM205.063 195.969V182.878H209.486C210.513 182.878 211.353 183.063 212.005 183.434C212.661 183.8 213.147 184.297 213.462 184.923C213.777 185.55 213.935 186.249 213.935 187.02C213.935 187.791 213.777 188.492 213.462 189.123C213.151 189.754 212.669 190.256 212.017 190.631C211.365 191.002 210.53 191.188 209.512 191.188H206.341V189.781H209.46C210.164 189.781 210.728 189.66 211.154 189.417C211.581 189.174 211.889 188.846 212.081 188.433C212.277 188.015 212.375 187.544 212.375 187.02C212.375 186.496 212.277 186.027 212.081 185.614C211.889 185.2 211.578 184.876 211.148 184.642C210.718 184.403 210.147 184.284 209.435 184.284H206.648V195.969H205.063ZM217.793 182.878V195.969H216.284V182.878H217.793ZM223.445 196.199C222.823 196.199 222.258 196.082 221.751 195.847C221.244 195.609 220.841 195.266 220.543 194.818C220.244 194.366 220.095 193.821 220.095 193.182C220.095 192.619 220.206 192.163 220.428 191.814C220.649 191.46 220.945 191.183 221.316 190.983C221.687 190.783 222.096 190.634 222.543 190.536C222.995 190.433 223.449 190.352 223.905 190.293C224.502 190.216 224.985 190.158 225.356 190.12C225.731 190.077 226.004 190.007 226.174 189.909C226.349 189.811 226.436 189.641 226.436 189.398V189.347C226.436 188.716 226.264 188.226 225.918 187.876C225.578 187.527 225.06 187.352 224.365 187.352C223.645 187.352 223.08 187.51 222.671 187.825C222.262 188.141 221.975 188.477 221.808 188.835L220.377 188.324C220.632 187.727 220.973 187.263 221.399 186.93C221.83 186.594 222.298 186.359 222.805 186.227C223.317 186.091 223.82 186.023 224.314 186.023C224.629 186.023 224.992 186.061 225.401 186.138C225.814 186.21 226.212 186.362 226.596 186.592C226.984 186.822 227.305 187.169 227.561 187.634C227.817 188.098 227.945 188.72 227.945 189.5V195.969H226.436V194.639H226.359C226.257 194.852 226.087 195.08 225.848 195.323C225.609 195.566 225.292 195.773 224.896 195.943C224.499 196.114 224.016 196.199 223.445 196.199ZM223.675 194.844C224.271 194.844 224.774 194.727 225.183 194.492C225.597 194.258 225.908 193.955 226.117 193.585C226.33 193.214 226.436 192.824 226.436 192.415V191.034C226.372 191.111 226.232 191.181 226.014 191.245C225.801 191.305 225.554 191.358 225.273 191.405C224.996 191.447 224.725 191.486 224.461 191.52C224.201 191.55 223.99 191.575 223.828 191.597C223.436 191.648 223.07 191.731 222.729 191.846C222.392 191.957 222.119 192.125 221.911 192.351C221.706 192.572 221.604 192.875 221.604 193.259C221.604 193.783 221.798 194.179 222.185 194.447C222.578 194.712 223.074 194.844 223.675 194.844ZM234.968 186.151V187.429H229.88V186.151H234.968ZM231.363 183.798H232.871V193.156C232.871 193.582 232.933 193.902 233.057 194.115C233.185 194.324 233.347 194.464 233.543 194.537C233.743 194.605 233.954 194.639 234.175 194.639C234.342 194.639 234.478 194.631 234.584 194.614C234.691 194.592 234.776 194.575 234.84 194.562L235.147 195.918C235.045 195.956 234.902 195.994 234.719 196.033C234.535 196.075 234.303 196.097 234.022 196.097C233.596 196.097 233.178 196.005 232.769 195.822C232.364 195.638 232.028 195.359 231.759 194.984C231.495 194.609 231.363 194.136 231.363 193.565V183.798ZM241.609 186.151V187.429H236.317V186.151H241.609ZM237.902 195.969V184.795C237.902 184.233 238.034 183.764 238.298 183.389C238.562 183.014 238.905 182.733 239.327 182.545C239.749 182.358 240.195 182.264 240.663 182.264C241.034 182.264 241.337 182.294 241.571 182.354C241.805 182.413 241.98 182.469 242.095 182.52L241.66 183.824C241.584 183.798 241.477 183.766 241.341 183.728C241.209 183.69 241.034 183.67 240.817 183.67C240.318 183.67 239.958 183.796 239.736 184.048C239.519 184.299 239.41 184.668 239.41 185.153V195.969H237.902ZM247.308 196.173C246.421 196.173 245.644 195.962 244.975 195.54C244.31 195.119 243.79 194.528 243.415 193.77C243.044 193.011 242.859 192.125 242.859 191.111C242.859 190.088 243.044 189.195 243.415 188.433C243.79 187.67 244.31 187.077 244.975 186.656C245.644 186.234 246.421 186.023 247.308 186.023C248.194 186.023 248.97 186.234 249.634 186.656C250.304 187.077 250.823 187.67 251.194 188.433C251.569 189.195 251.757 190.088 251.757 191.111C251.757 192.125 251.569 193.011 251.194 193.77C250.823 194.528 250.304 195.119 249.634 195.54C248.97 195.962 248.194 196.173 247.308 196.173ZM247.308 194.818C247.981 194.818 248.535 194.646 248.97 194.3C249.404 193.955 249.726 193.501 249.935 192.939C250.144 192.376 250.248 191.767 250.248 191.111C250.248 190.455 250.144 189.843 249.935 189.276C249.726 188.71 249.404 188.251 248.97 187.902C248.535 187.553 247.981 187.378 247.308 187.378C246.634 187.378 246.081 187.553 245.646 187.902C245.211 188.251 244.889 188.71 244.681 189.276C244.472 189.843 244.367 190.455 244.367 191.111C244.367 191.767 244.472 192.376 244.681 192.939C244.889 193.501 245.211 193.955 245.646 194.3C246.081 194.646 246.634 194.818 247.308 194.818ZM254.059 195.969V186.151H255.517V187.634H255.619C255.798 187.148 256.122 186.754 256.591 186.451C257.059 186.148 257.588 185.997 258.176 185.997C258.287 185.997 258.425 185.999 258.591 186.004C258.758 186.008 258.883 186.014 258.968 186.023V187.557C258.917 187.544 258.8 187.525 258.617 187.499C258.438 187.469 258.248 187.455 258.048 187.455C257.571 187.455 257.145 187.555 256.77 187.755C256.399 187.951 256.105 188.224 255.888 188.573C255.674 188.918 255.568 189.312 255.568 189.756V195.969H254.059ZM260.757 195.969V186.151H262.214V187.685H262.342C262.546 187.161 262.877 186.754 263.333 186.464C263.789 186.17 264.336 186.023 264.975 186.023C265.623 186.023 266.162 186.17 266.593 186.464C267.027 186.754 267.366 187.161 267.609 187.685H267.711C267.963 187.178 268.34 186.775 268.843 186.477C269.345 186.174 269.948 186.023 270.652 186.023C271.529 186.023 272.247 186.298 272.806 186.847C273.364 187.393 273.643 188.243 273.643 189.398V195.969H272.134V189.398C272.134 188.673 271.936 188.156 271.54 187.844C271.144 187.533 270.677 187.378 270.14 187.378C269.45 187.378 268.915 187.587 268.536 188.004C268.157 188.418 267.967 188.942 267.967 189.577V195.969H266.433V189.244C266.433 188.686 266.252 188.237 265.889 187.896C265.527 187.55 265.061 187.378 264.49 187.378C264.098 187.378 263.731 187.482 263.39 187.691C263.054 187.9 262.781 188.19 262.572 188.56C262.367 188.927 262.265 189.351 262.265 189.832V195.969H260.757ZM285.452 196.173C284.566 196.173 283.788 195.962 283.119 195.54C282.454 195.119 281.935 194.528 281.56 193.77C281.189 193.011 281.003 192.125 281.003 191.111C281.003 190.088 281.189 189.195 281.56 188.433C281.935 187.67 282.454 187.077 283.119 186.656C283.788 186.234 284.566 186.023 285.452 186.023C286.339 186.023 287.114 186.234 287.779 186.656C288.448 187.077 288.968 187.67 289.339 188.433C289.714 189.195 289.901 190.088 289.901 191.111C289.901 192.125 289.714 193.011 289.339 193.77C288.968 194.528 288.448 195.119 287.779 195.54C287.114 195.962 286.339 196.173 285.452 196.173ZM285.452 194.818C286.126 194.818 286.68 194.646 287.114 194.3C287.549 193.955 287.871 193.501 288.079 192.939C288.288 192.376 288.393 191.767 288.393 191.111C288.393 190.455 288.288 189.843 288.079 189.276C287.871 188.71 287.549 188.251 287.114 187.902C286.68 187.553 286.126 187.378 285.452 187.378C284.779 187.378 284.225 187.553 283.79 187.902C283.356 188.251 283.034 188.71 282.825 189.276C282.616 189.843 282.512 190.455 282.512 191.111C282.512 191.767 282.616 192.376 282.825 192.939C283.034 193.501 283.356 193.955 283.79 194.3C284.225 194.646 284.779 194.818 285.452 194.818ZM293.712 190.062V195.969H292.204V186.151H293.661V187.685H293.789C294.019 187.186 294.369 186.786 294.837 186.483C295.306 186.176 295.911 186.023 296.653 186.023C297.318 186.023 297.899 186.159 298.398 186.432C298.896 186.7 299.284 187.109 299.561 187.659C299.838 188.205 299.977 188.895 299.977 189.73V195.969H298.468V189.832C298.468 189.061 298.268 188.46 297.867 188.03C297.467 187.595 296.917 187.378 296.218 187.378C295.737 187.378 295.306 187.482 294.927 187.691C294.552 187.9 294.256 188.205 294.038 188.605C293.821 189.006 293.712 189.491 293.712 190.062ZM316.949 186.969C316.809 186.538 316.623 186.153 316.393 185.812C316.167 185.467 315.897 185.173 315.581 184.93C315.27 184.687 314.916 184.501 314.52 184.374C314.124 184.246 313.689 184.182 313.216 184.182C312.441 184.182 311.735 184.382 311.1 184.783C310.465 185.183 309.96 185.773 309.585 186.553C309.21 187.333 309.023 188.29 309.023 189.423C309.023 190.557 309.213 191.513 309.592 192.293C309.971 193.073 310.485 193.663 311.132 194.064C311.78 194.464 312.509 194.665 313.318 194.665C314.068 194.665 314.729 194.505 315.3 194.185C315.875 193.862 316.323 193.406 316.642 192.817C316.966 192.225 317.128 191.528 317.128 190.727L317.614 190.83H313.676V189.423H318.662V190.83C318.662 191.908 318.432 192.845 317.972 193.642C317.516 194.439 316.885 195.057 316.08 195.496C315.279 195.93 314.358 196.148 313.318 196.148C312.159 196.148 311.141 195.875 310.263 195.33C309.389 194.784 308.708 194.009 308.218 193.003C307.732 191.997 307.489 190.804 307.489 189.423C307.489 188.388 307.627 187.457 307.904 186.63C308.186 185.799 308.582 185.092 309.093 184.508C309.605 183.924 310.21 183.477 310.909 183.165C311.608 182.854 312.377 182.699 313.216 182.699C313.907 182.699 314.55 182.803 315.147 183.012C315.747 183.217 316.282 183.509 316.751 183.888C317.224 184.263 317.618 184.712 317.934 185.237C318.249 185.756 318.466 186.334 318.585 186.969H316.949ZM321.147 195.969V194.818L325.468 190.088C325.975 189.534 326.393 189.053 326.721 188.643C327.049 188.23 327.292 187.842 327.45 187.48C327.612 187.114 327.693 186.73 327.693 186.33C327.693 185.869 327.582 185.471 327.36 185.134C327.143 184.798 326.845 184.538 326.465 184.354C326.086 184.171 325.66 184.08 325.187 184.08C324.684 184.08 324.245 184.184 323.87 184.393C323.499 184.597 323.212 184.885 323.007 185.256C322.807 185.626 322.707 186.061 322.707 186.56H321.198C321.198 185.793 321.375 185.119 321.729 184.54C322.082 183.96 322.564 183.509 323.173 183.185C323.787 182.861 324.475 182.699 325.238 182.699C326.005 182.699 326.685 182.861 327.277 183.185C327.869 183.509 328.334 183.945 328.671 184.495C329.007 185.045 329.176 185.656 329.176 186.33C329.176 186.811 329.088 187.282 328.913 187.742C328.743 188.198 328.445 188.707 328.019 189.27C327.597 189.828 327.011 190.51 326.261 191.315L323.32 194.46V194.562H329.406V195.969H321.147Z" fill="#050038"/>
</svg>
