<svg width="360" height="201" viewBox="0 0 360 201" fill="none" xmlns="http://www.w3.org/2000/svg">
<path d="M104.624 139.971H114.798V95.1804H104.88L104.752 96.7801C104.496 100.491 102.768 102.219 98.993 102.411L93.6821 102.667V110.857H104.624V139.971ZM146.18 140.611C160.13 140.611 170.559 130.757 170.559 117.576C170.559 104.459 160.13 94.5405 146.18 94.5405C132.231 94.5405 121.801 104.459 121.801 117.576C121.801 130.757 132.231 140.611 146.18 140.611ZM146.18 131.077C138.438 131.077 132.999 125.51 132.999 117.576C132.999 109.705 138.438 104.139 146.18 104.139C153.923 104.139 159.362 109.705 159.362 117.576C159.362 125.51 153.923 131.077 146.18 131.077ZM200.232 140.611C214.182 140.611 224.611 130.757 224.611 117.576C224.611 104.459 214.182 94.5405 200.232 94.5405C186.283 94.5405 175.853 104.459 175.853 117.576C175.853 130.757 186.283 140.611 200.232 140.611ZM200.232 131.077C192.49 131.077 187.051 125.51 187.051 117.576C187.051 109.705 192.49 104.139 200.232 104.139C207.975 104.139 213.414 109.705 213.414 117.576C213.414 125.51 207.975 131.077 200.232 131.077ZM265.424 113.801H253.139V101.643H244.372V113.801H232.151V122.695H244.372V134.852H253.139V122.695H265.424V113.801Z" fill="#050038"/>
<path d="M21.5653 195.969V186.151H23.0738V195.969H21.5653ZM22.3323 184.514C22.0383 184.514 21.7847 184.414 21.5716 184.214C21.3628 184.013 21.2584 183.773 21.2584 183.491C21.2584 183.21 21.3628 182.969 21.5716 182.769C21.7847 182.569 22.0383 182.469 22.3323 182.469C22.6263 182.469 22.8778 182.569 23.0866 182.769C23.2996 182.969 23.4062 183.21 23.4062 183.491C23.4062 183.773 23.2996 184.013 23.0866 184.214C22.8778 184.414 22.6263 184.514 22.3323 184.514ZM27.3453 190.062V195.969H25.8367V186.151H27.2941V187.685H27.422C27.6521 187.186 28.0015 186.786 28.4703 186.483C28.939 186.176 29.5441 186.023 30.2856 186.023C30.9504 186.023 31.532 186.159 32.0306 186.432C32.5292 186.7 32.917 187.109 33.194 187.659C33.471 188.205 33.6095 188.895 33.6095 189.73V195.969H32.1009V189.832C32.1009 189.061 31.9007 188.46 31.5001 188.03C31.0995 187.595 30.5498 187.378 29.8509 187.378C29.3694 187.378 28.939 187.482 28.5597 187.691C28.1847 187.9 27.8886 188.205 27.6713 188.605C27.4539 189.006 27.3453 189.491 27.3453 190.062ZM40.6359 186.151V187.429H35.5479V186.151H40.6359ZM37.0308 183.798H38.5393V193.156C38.5393 193.582 38.6011 193.902 38.7247 194.115C38.8525 194.324 39.0145 194.464 39.2105 194.537C39.4108 194.605 39.6217 194.639 39.8433 194.639C40.0095 194.639 40.1459 194.631 40.2524 194.614C40.3589 194.592 40.4442 194.575 40.5081 194.562L40.8149 195.918C40.7126 195.956 40.5699 195.994 40.3866 196.033C40.2034 196.075 39.9711 196.097 39.6899 196.097C39.2638 196.097 38.8461 196.005 38.4371 195.822C38.0322 195.638 37.6956 195.359 37.4271 194.984C37.1629 194.609 37.0308 194.136 37.0308 193.565V183.798ZM46.9161 196.173C45.9701 196.173 45.154 195.964 44.468 195.547C43.7861 195.125 43.2599 194.537 42.8891 193.783C42.5226 193.024 42.3394 192.142 42.3394 191.136C42.3394 190.131 42.5226 189.244 42.8891 188.477C43.2599 187.706 43.7755 187.105 44.436 186.675C45.1008 186.24 45.8763 186.023 46.7627 186.023C47.2741 186.023 47.779 186.108 48.2776 186.278C48.7762 186.449 49.23 186.726 49.6391 187.109C50.0482 187.489 50.3742 187.991 50.6171 188.618C50.86 189.244 50.9814 190.016 50.9814 190.932V191.571H43.4133V190.267H49.4474C49.4474 189.713 49.3366 189.219 49.115 188.784C48.8976 188.349 48.5866 188.006 48.1817 187.755C47.7812 187.504 47.3082 187.378 46.7627 187.378C46.1618 187.378 45.642 187.527 45.203 187.825C44.7684 188.119 44.4339 188.503 44.1995 188.976C43.9651 189.449 43.8479 189.956 43.8479 190.497V191.366C43.8479 192.108 43.9758 192.737 44.2314 193.252C44.4914 193.763 44.8515 194.153 45.3117 194.422C45.7719 194.686 46.3067 194.818 46.9161 194.818C47.3124 194.818 47.6704 194.763 47.99 194.652C48.3138 194.537 48.593 194.366 48.8273 194.141C49.0617 193.911 49.2428 193.625 49.3707 193.284L50.828 193.693C50.6746 194.188 50.4168 194.622 50.0546 194.997C49.6924 195.368 49.2449 195.658 48.7123 195.866C48.1796 196.071 47.5809 196.173 46.9161 196.173ZM57.2393 199.855C56.5106 199.855 55.8841 199.761 55.36 199.574C54.8358 199.391 54.3991 199.148 54.0496 198.845C53.7045 198.547 53.4296 198.227 53.2251 197.886L54.4268 197.043C54.5631 197.222 54.7357 197.426 54.9445 197.656C55.1533 197.891 55.4388 198.093 55.801 198.263C56.1675 198.438 56.6469 198.526 57.2393 198.526C58.0319 198.526 58.686 198.334 59.2016 197.95C59.7172 197.567 59.9751 196.966 59.9751 196.148V194.153H59.8472C59.7364 194.332 59.5787 194.554 59.3742 194.818C59.1739 195.078 58.8841 195.31 58.5049 195.515C58.1299 195.715 57.6228 195.815 56.9836 195.815C56.191 195.815 55.4793 195.628 54.8486 195.253C54.2222 194.878 53.7258 194.332 53.3593 193.616C52.9971 192.901 52.816 192.031 52.816 191.009C52.816 190.003 52.9928 189.127 53.3465 188.381C53.7002 187.631 54.1924 187.052 54.8231 186.643C55.4537 186.229 56.1824 186.023 57.0091 186.023C57.6483 186.023 58.1555 186.129 58.5305 186.342C58.9097 186.551 59.1995 186.79 59.3998 187.058C59.6043 187.322 59.762 187.54 59.8728 187.71H60.0262V186.151H61.4836V196.25C61.4836 197.094 61.2918 197.78 60.9083 198.308C60.529 198.841 60.0177 199.231 59.3742 199.478C58.735 199.729 58.0233 199.855 57.2393 199.855ZM57.1881 194.46C57.7932 194.46 58.3046 194.322 58.7222 194.045C59.1398 193.768 59.4573 193.369 59.6746 192.849C59.892 192.33 60.0006 191.707 60.0006 190.983C60.0006 190.276 59.8941 189.651 59.681 189.11C59.468 188.569 59.1526 188.145 58.735 187.838C58.3174 187.531 57.8018 187.378 57.1881 187.378C56.5489 187.378 56.0162 187.54 55.5901 187.864C55.1682 188.187 54.8508 188.622 54.6377 189.168C54.4289 189.713 54.3245 190.318 54.3245 190.983C54.3245 191.665 54.431 192.268 54.6441 192.792C54.8614 193.312 55.181 193.721 55.6029 194.019C56.029 194.313 56.5574 194.46 57.1881 194.46ZM64.2449 195.969V186.151H65.7023V187.634H65.8046C65.9836 187.148 66.3074 186.754 66.7762 186.451C67.2449 186.148 67.7733 185.997 68.3614 185.997C68.4722 185.997 68.6107 185.999 68.7769 186.004C68.9431 186.008 69.0688 186.014 69.154 186.023V187.557C69.1029 187.544 68.9857 187.525 68.8025 187.499C68.6235 187.469 68.4339 187.455 68.2336 187.455C67.7563 187.455 67.3302 187.555 66.9552 187.755C66.5844 187.951 66.2904 188.224 66.0731 188.573C65.86 188.918 65.7535 189.312 65.7535 189.756V195.969H64.2449ZM73.8314 196.199C73.2093 196.199 72.6446 196.082 72.1375 195.847C71.6304 195.609 71.2277 195.266 70.9294 194.818C70.6311 194.366 70.482 193.821 70.482 193.182C70.482 192.619 70.5928 192.163 70.8144 191.814C71.036 191.46 71.3321 191.183 71.7029 190.983C72.0736 190.783 72.4827 190.634 72.9301 190.536C73.3818 190.433 73.8357 190.352 74.2916 190.293C74.8882 190.216 75.3719 190.158 75.7426 190.12C76.1176 190.077 76.3904 190.007 76.5608 189.909C76.7355 189.811 76.8229 189.641 76.8229 189.398V189.347C76.8229 188.716 76.6503 188.226 76.3051 187.876C75.9642 187.527 75.4465 187.352 74.7519 187.352C74.0317 187.352 73.4671 187.51 73.058 187.825C72.6489 188.141 72.3612 188.477 72.195 188.835L70.7632 188.324C71.0189 187.727 71.3598 187.263 71.786 186.93C72.2164 186.594 72.6851 186.359 73.1922 186.227C73.7036 186.091 74.2064 186.023 74.7007 186.023C75.0161 186.023 75.3783 186.061 75.7874 186.138C76.2007 186.21 76.5992 186.362 76.9827 186.592C77.3705 186.822 77.6922 187.169 77.9479 187.634C78.2036 188.098 78.3314 188.72 78.3314 189.5V195.969H76.8229V194.639H76.7462C76.6439 194.852 76.4735 195.08 76.2348 195.323C75.9962 195.566 75.6787 195.773 75.2824 195.943C74.8861 196.114 74.4024 196.199 73.8314 196.199ZM74.0615 194.844C74.6581 194.844 75.161 194.727 75.57 194.492C75.9834 194.258 76.2945 193.955 76.5033 193.585C76.7164 193.214 76.8229 192.824 76.8229 192.415V191.034C76.759 191.111 76.6183 191.181 76.401 191.245C76.1879 191.305 75.9408 191.358 75.6595 191.405C75.3825 191.447 75.1119 191.486 74.8477 191.52C74.5878 191.55 74.3769 191.575 74.2149 191.597C73.8229 191.648 73.4564 191.731 73.1155 191.846C72.7789 191.957 72.5061 192.125 72.2973 192.351C72.0928 192.572 71.9905 192.875 71.9905 193.259C71.9905 193.783 72.1844 194.179 72.5722 194.447C72.9642 194.712 73.4607 194.844 74.0615 194.844ZM85.3547 186.151V187.429H80.2666V186.151H85.3547ZM81.7496 183.798H83.2581V193.156C83.2581 193.582 83.3199 193.902 83.4434 194.115C83.5713 194.324 83.7332 194.464 83.9292 194.537C84.1295 194.605 84.3405 194.639 84.5621 194.639C84.7282 194.639 84.8646 194.631 84.9711 194.614C85.0777 194.592 85.1629 194.575 85.2268 194.562L85.5336 195.918C85.4314 195.956 85.2886 195.994 85.1054 196.033C84.9221 196.075 84.6899 196.097 84.4086 196.097C83.9825 196.097 83.5649 196.005 83.1558 195.822C82.751 195.638 82.4143 195.359 82.1459 194.984C81.8817 194.609 81.7496 194.136 81.7496 193.565V183.798ZM87.6238 195.969V186.151H89.1324V195.969H87.6238ZM88.3909 184.514C88.0969 184.514 87.8433 184.414 87.6302 184.214C87.4214 184.013 87.317 183.773 87.317 183.491C87.317 183.21 87.4214 182.969 87.6302 182.769C87.8433 182.569 88.0969 182.469 88.3909 182.469C88.6849 182.469 88.9363 182.569 89.1452 182.769C89.3582 182.969 89.4648 183.21 89.4648 183.491C89.4648 183.773 89.3582 184.013 89.1452 184.214C88.9363 184.414 88.6849 184.514 88.3909 184.514ZM95.884 196.173C94.9976 196.173 94.2199 195.962 93.5509 195.54C92.8861 195.119 92.3662 194.528 91.9912 193.77C91.6205 193.011 91.4351 192.125 91.4351 191.111C91.4351 190.088 91.6205 189.195 91.9912 188.433C92.3662 187.67 92.8861 187.077 93.5509 186.656C94.2199 186.234 94.9976 186.023 95.884 186.023C96.7703 186.023 97.5459 186.234 98.2107 186.656C98.8797 187.077 99.3996 187.67 99.7703 188.433C100.145 189.195 100.333 190.088 100.333 191.111C100.333 192.125 100.145 193.011 99.7703 193.77C99.3996 194.528 98.8797 195.119 98.2107 195.54C97.5459 195.962 96.7703 196.173 95.884 196.173ZM95.884 194.818C96.5573 194.818 97.1112 194.646 97.5459 194.3C97.9806 193.955 98.3023 193.501 98.5111 192.939C98.7199 192.376 98.8243 191.767 98.8243 191.111C98.8243 190.455 98.7199 189.843 98.5111 189.276C98.3023 188.71 97.9806 188.251 97.5459 187.902C97.1112 187.553 96.5573 187.378 95.884 187.378C95.2107 187.378 94.6567 187.553 94.222 187.902C93.7874 188.251 93.4656 188.71 93.2568 189.276C93.048 189.843 92.9436 190.455 92.9436 191.111C92.9436 191.767 93.048 192.376 93.2568 192.939C93.4656 193.501 93.7874 193.955 94.222 194.3C94.6567 194.646 95.2107 194.818 95.884 194.818ZM104.144 190.062V195.969H102.636V186.151H104.093V187.685H104.221C104.451 187.186 104.8 186.786 105.269 186.483C105.738 186.176 106.343 186.023 107.084 186.023C107.749 186.023 108.331 186.159 108.829 186.432C109.328 186.7 109.716 187.109 109.993 187.659C110.27 188.205 110.408 188.895 110.408 189.73V195.969H108.9V189.832C108.9 189.061 108.699 188.46 108.299 188.03C107.898 187.595 107.349 187.378 106.65 187.378C106.168 187.378 105.738 187.482 105.359 187.691C104.984 187.9 104.687 188.205 104.47 188.605C104.253 189.006 104.144 189.491 104.144 190.062ZM120.119 188.349L118.764 188.733C118.679 188.507 118.553 188.288 118.387 188.075C118.225 187.857 118.004 187.678 117.722 187.538C117.441 187.397 117.081 187.327 116.642 187.327C116.041 187.327 115.541 187.465 115.14 187.742C114.744 188.015 114.546 188.362 114.546 188.784C114.546 189.159 114.682 189.455 114.955 189.673C115.227 189.89 115.653 190.071 116.233 190.216L117.69 190.574C118.568 190.787 119.222 191.113 119.653 191.552C120.083 191.987 120.298 192.547 120.298 193.233C120.298 193.795 120.136 194.298 119.813 194.741C119.493 195.185 119.046 195.534 118.47 195.79C117.895 196.045 117.226 196.173 116.463 196.173C115.462 196.173 114.633 195.956 113.977 195.521C113.32 195.087 112.905 194.452 112.73 193.616L114.162 193.259C114.298 193.787 114.556 194.183 114.935 194.447C115.319 194.712 115.82 194.844 116.438 194.844C117.141 194.844 117.699 194.695 118.112 194.396C118.53 194.094 118.739 193.732 118.739 193.31C118.739 192.969 118.619 192.683 118.381 192.453C118.142 192.219 117.776 192.044 117.281 191.929L115.645 191.545C114.746 191.332 114.085 191.002 113.663 190.555C113.246 190.103 113.037 189.538 113.037 188.861C113.037 188.307 113.193 187.817 113.504 187.391C113.819 186.964 114.247 186.63 114.788 186.387C115.334 186.144 115.952 186.023 116.642 186.023C117.614 186.023 118.377 186.236 118.93 186.662C119.489 187.088 119.885 187.651 120.119 188.349ZM129.856 195.969L126.865 186.151H128.45L130.572 193.668H130.674L132.771 186.151H134.382L136.453 193.642H136.555L138.677 186.151H140.262L137.271 195.969H135.788L133.64 188.426H133.487L131.339 195.969H129.856ZM142.257 195.969V186.151H143.765V195.969H142.257ZM143.024 184.514C142.73 184.514 142.476 184.414 142.263 184.214C142.054 184.013 141.95 183.773 141.95 183.491C141.95 183.21 142.054 182.969 142.263 182.769C142.476 182.569 142.73 182.469 143.024 182.469C143.318 182.469 143.569 182.569 143.778 182.769C143.991 182.969 144.098 183.21 144.098 183.491C144.098 183.773 143.991 184.013 143.778 184.214C143.569 184.414 143.318 184.514 143.024 184.514ZM150.798 186.151V187.429H145.71V186.151H150.798ZM147.193 183.798H148.701V193.156C148.701 193.582 148.763 193.902 148.887 194.115C149.015 194.324 149.177 194.464 149.373 194.537C149.573 194.605 149.784 194.639 150.005 194.639C150.172 194.639 150.308 194.631 150.415 194.614C150.521 194.592 150.606 194.575 150.67 194.562L150.977 195.918C150.875 195.956 150.732 195.994 150.549 196.033C150.366 196.075 150.133 196.097 149.852 196.097C149.426 196.097 149.008 196.005 148.599 195.822C148.194 195.638 147.858 195.359 147.589 194.984C147.325 194.609 147.193 194.136 147.193 193.565V183.798ZM154.787 190.062V195.969H153.278V182.878H154.787V187.685H154.915C155.145 187.178 155.49 186.775 155.95 186.477C156.415 186.174 157.032 186.023 157.804 186.023C158.473 186.023 159.059 186.157 159.562 186.425C160.064 186.69 160.454 187.097 160.731 187.646C161.013 188.192 161.153 188.886 161.153 189.73V195.969H159.645V189.832C159.645 189.053 159.442 188.45 159.037 188.023C158.637 187.593 158.081 187.378 157.369 187.378C156.875 187.378 156.432 187.482 156.04 187.691C155.652 187.9 155.345 188.205 155.119 188.605C154.897 189.006 154.787 189.491 154.787 190.062ZM173.245 186.151V187.429H168.157V186.151H173.245ZM169.64 183.798H171.149V193.156C171.149 193.582 171.21 193.902 171.334 194.115C171.462 194.324 171.624 194.464 171.82 194.537C172.02 194.605 172.231 194.639 172.453 194.639C172.619 194.639 172.755 194.631 172.862 194.614C172.968 194.592 173.054 194.575 173.117 194.562L173.424 195.918C173.322 195.956 173.179 195.994 172.996 196.033C172.813 196.075 172.581 196.097 172.299 196.097C171.873 196.097 171.456 196.005 171.046 195.822C170.642 195.638 170.305 195.359 170.036 194.984C169.772 194.609 169.64 194.136 169.64 193.565V183.798ZM179.525 196.173C178.579 196.173 177.763 195.964 177.077 195.547C176.396 195.125 175.869 194.537 175.498 193.783C175.132 193.024 174.949 192.142 174.949 191.136C174.949 190.131 175.132 189.244 175.498 188.477C175.869 187.706 176.385 187.105 177.045 186.675C177.71 186.24 178.486 186.023 179.372 186.023C179.883 186.023 180.388 186.108 180.887 186.278C181.386 186.449 181.839 186.726 182.248 187.109C182.658 187.489 182.984 187.991 183.226 188.618C183.469 189.244 183.591 190.016 183.591 190.932V191.571H176.023V190.267H182.057C182.057 189.713 181.946 189.219 181.724 188.784C181.507 188.349 181.196 188.006 180.791 187.755C180.391 187.504 179.918 187.378 179.372 187.378C178.771 187.378 178.251 187.527 177.812 187.825C177.378 188.119 177.043 188.503 176.809 188.976C176.574 189.449 176.457 189.956 176.457 190.497V191.366C176.457 192.108 176.585 192.737 176.841 193.252C177.101 193.763 177.461 194.153 177.921 194.422C178.381 194.686 178.916 194.818 179.525 194.818C179.922 194.818 180.28 194.763 180.599 194.652C180.923 194.537 181.202 194.366 181.437 194.141C181.671 193.911 181.852 193.625 181.98 193.284L183.437 193.693C183.284 194.188 183.026 194.622 182.664 194.997C182.302 195.368 181.854 195.658 181.322 195.866C180.789 196.071 180.19 196.173 179.525 196.173ZM189.874 196.173C188.954 196.173 188.161 195.956 187.496 195.521C186.832 195.087 186.32 194.488 185.962 193.725C185.604 192.962 185.425 192.091 185.425 191.111C185.425 190.114 185.609 189.234 185.975 188.471C186.346 187.704 186.861 187.105 187.522 186.675C188.187 186.24 188.962 186.023 189.849 186.023C190.539 186.023 191.161 186.151 191.715 186.406C192.269 186.662 192.723 187.02 193.077 187.48C193.43 187.94 193.65 188.477 193.735 189.091H192.226C192.111 188.643 191.856 188.247 191.459 187.902C191.067 187.553 190.539 187.378 189.874 187.378C189.286 187.378 188.771 187.531 188.327 187.838C187.888 188.141 187.545 188.569 187.298 189.123C187.055 189.673 186.934 190.318 186.934 191.06C186.934 191.818 187.053 192.479 187.292 193.041C187.535 193.604 187.876 194.04 188.315 194.352C188.758 194.663 189.278 194.818 189.874 194.818C190.266 194.818 190.622 194.75 190.942 194.614C191.261 194.477 191.532 194.281 191.753 194.026C191.975 193.77 192.133 193.463 192.226 193.105H193.735C193.65 193.685 193.439 194.207 193.102 194.671C192.77 195.131 192.329 195.498 191.779 195.771C191.234 196.039 190.599 196.173 189.874 196.173ZM197.449 190.062V195.969H195.94V182.878H197.449V187.685H197.577C197.807 187.178 198.152 186.775 198.612 186.477C199.077 186.174 199.695 186.023 200.466 186.023C201.135 186.023 201.721 186.157 202.224 186.425C202.726 186.69 203.116 187.097 203.393 187.646C203.675 188.192 203.815 188.886 203.815 189.73V195.969H202.307V189.832C202.307 189.053 202.104 188.45 201.699 188.023C201.299 187.593 200.743 187.378 200.031 187.378C199.537 187.378 199.094 187.482 198.702 187.691C198.314 187.9 198.007 188.205 197.781 188.605C197.56 189.006 197.449 189.491 197.449 190.062ZM208.084 190.062V195.969H206.575V186.151H208.032V187.685H208.16C208.39 187.186 208.74 186.786 209.209 186.483C209.677 186.176 210.282 186.023 211.024 186.023C211.689 186.023 212.27 186.159 212.769 186.432C213.267 186.7 213.655 187.109 213.932 187.659C214.209 188.205 214.348 188.895 214.348 189.73V195.969H212.839V189.832C212.839 189.061 212.639 188.46 212.238 188.03C211.838 187.595 211.288 187.378 210.589 187.378C210.108 187.378 209.677 187.482 209.298 187.691C208.923 187.9 208.627 188.205 208.41 188.605C208.192 189.006 208.084 189.491 208.084 190.062ZM221.093 196.173C220.207 196.173 219.429 195.962 218.76 195.54C218.095 195.119 217.575 194.528 217.2 193.77C216.829 193.011 216.644 192.125 216.644 191.111C216.644 190.088 216.829 189.195 217.2 188.433C217.575 187.67 218.095 187.077 218.76 186.656C219.429 186.234 220.207 186.023 221.093 186.023C221.979 186.023 222.755 186.234 223.42 186.656C224.089 187.077 224.609 187.67 224.979 188.433C225.354 189.195 225.542 190.088 225.542 191.111C225.542 192.125 225.354 193.011 224.979 193.77C224.609 194.528 224.089 195.119 223.42 195.54C222.755 195.962 221.979 196.173 221.093 196.173ZM221.093 194.818C221.766 194.818 222.32 194.646 222.755 194.3C223.19 193.955 223.511 193.501 223.72 192.939C223.929 192.376 224.033 191.767 224.033 191.111C224.033 190.455 223.929 189.843 223.72 189.276C223.511 188.71 223.19 188.251 222.755 187.902C222.32 187.553 221.766 187.378 221.093 187.378C220.42 187.378 219.866 187.553 219.431 187.902C218.996 188.251 218.675 188.71 218.466 189.276C218.257 189.843 218.153 190.455 218.153 191.111C218.153 191.767 218.257 192.376 218.466 192.939C218.675 193.501 218.996 193.955 219.431 194.3C219.866 194.646 220.42 194.818 221.093 194.818ZM229.353 182.878V195.969H227.845V182.878H229.353ZM236.105 196.173C235.218 196.173 234.441 195.962 233.772 195.54C233.107 195.119 232.587 194.528 232.212 193.77C231.841 193.011 231.656 192.125 231.656 191.111C231.656 190.088 231.841 189.195 232.212 188.433C232.587 187.67 233.107 187.077 233.772 186.656C234.441 186.234 235.218 186.023 236.105 186.023C236.991 186.023 237.767 186.234 238.431 186.656C239.1 187.077 239.62 187.67 239.991 188.433C240.366 189.195 240.554 190.088 240.554 191.111C240.554 192.125 240.366 193.011 239.991 193.77C239.62 194.528 239.1 195.119 238.431 195.54C237.767 195.962 236.991 196.173 236.105 196.173ZM236.105 194.818C236.778 194.818 237.332 194.646 237.767 194.3C238.201 193.955 238.523 193.501 238.732 192.939C238.941 192.376 239.045 191.767 239.045 191.111C239.045 190.455 238.941 189.843 238.732 189.276C238.523 188.71 238.201 188.251 237.767 187.902C237.332 187.553 236.778 187.378 236.105 187.378C235.431 187.378 234.877 187.553 234.443 187.902C234.008 188.251 233.686 188.71 233.478 189.276C233.269 189.843 233.164 190.455 233.164 191.111C233.164 191.767 233.269 192.376 233.478 192.939C233.686 193.501 234.008 193.955 234.443 194.3C234.877 194.646 235.431 194.818 236.105 194.818ZM246.819 199.855C246.091 199.855 245.464 199.761 244.94 199.574C244.416 199.391 243.979 199.148 243.63 198.845C243.285 198.547 243.01 198.227 242.805 197.886L244.007 197.043C244.143 197.222 244.316 197.426 244.525 197.656C244.733 197.891 245.019 198.093 245.381 198.263C245.748 198.438 246.227 198.526 246.819 198.526C247.612 198.526 248.266 198.334 248.782 197.95C249.297 197.567 249.555 196.966 249.555 196.148V194.153H249.427C249.316 194.332 249.159 194.554 248.954 194.818C248.754 195.078 248.464 195.31 248.085 195.515C247.71 195.715 247.203 195.815 246.564 195.815C245.771 195.815 245.059 195.628 244.429 195.253C243.802 194.878 243.306 194.332 242.939 193.616C242.577 192.901 242.396 192.031 242.396 191.009C242.396 190.003 242.573 189.127 242.927 188.381C243.28 187.631 243.772 187.052 244.403 186.643C245.034 186.229 245.763 186.023 246.589 186.023C247.228 186.023 247.736 186.129 248.111 186.342C248.49 186.551 248.78 186.79 248.98 187.058C249.184 187.322 249.342 187.54 249.453 187.71H249.606V186.151H251.064V196.25C251.064 197.094 250.872 197.78 250.488 198.308C250.109 198.841 249.598 199.231 248.954 199.478C248.315 199.729 247.603 199.855 246.819 199.855ZM246.768 194.46C247.373 194.46 247.885 194.322 248.302 194.045C248.72 193.768 249.037 193.369 249.255 192.849C249.472 192.33 249.581 191.707 249.581 190.983C249.581 190.276 249.474 189.651 249.261 189.11C249.048 188.569 248.733 188.145 248.315 187.838C247.897 187.531 247.382 187.378 246.768 187.378C246.129 187.378 245.596 187.54 245.17 187.864C244.748 188.187 244.431 188.622 244.218 189.168C244.009 189.713 243.905 190.318 243.905 190.983C243.905 191.665 244.011 192.268 244.224 192.792C244.441 193.312 244.761 193.721 245.183 194.019C245.609 194.313 246.138 194.46 246.768 194.46ZM254.797 199.651C254.541 199.651 254.313 199.629 254.113 199.587C253.912 199.548 253.774 199.51 253.697 199.472L254.081 198.142C254.447 198.236 254.771 198.27 255.052 198.244C255.334 198.219 255.583 198.093 255.8 197.867C256.022 197.646 256.224 197.286 256.407 196.787L256.689 196.02L253.058 186.151H254.694L257.405 193.974H257.507L260.217 186.151H261.853L257.686 197.401C257.498 197.908 257.266 198.327 256.989 198.66C256.712 198.996 256.39 199.246 256.024 199.408C255.662 199.57 255.253 199.651 254.797 199.651ZM268.907 199.651V186.151H270.364V187.71H270.543C270.654 187.54 270.808 187.322 271.004 187.058C271.204 186.79 271.489 186.551 271.86 186.342C272.235 186.129 272.742 186.023 273.381 186.023C274.208 186.023 274.937 186.229 275.568 186.643C276.198 187.056 276.69 187.642 277.044 188.401C277.398 189.159 277.575 190.054 277.575 191.085C277.575 192.125 277.398 193.026 277.044 193.789C276.69 194.548 276.2 195.136 275.574 195.553C274.948 195.967 274.225 196.173 273.407 196.173C272.776 196.173 272.271 196.069 271.892 195.86C271.513 195.647 271.221 195.406 271.016 195.138C270.812 194.865 270.654 194.639 270.543 194.46H270.416V199.651H268.907ZM270.39 191.06C270.39 191.801 270.499 192.455 270.716 193.022C270.933 193.585 271.251 194.026 271.668 194.345C272.086 194.661 272.597 194.818 273.203 194.818C273.833 194.818 274.359 194.652 274.781 194.32C275.207 193.983 275.527 193.531 275.74 192.964C275.957 192.393 276.066 191.759 276.066 191.06C276.066 190.369 275.96 189.747 275.747 189.193C275.538 188.635 275.22 188.194 274.794 187.87C274.372 187.542 273.842 187.378 273.203 187.378C272.589 187.378 272.073 187.533 271.656 187.844C271.238 188.151 270.923 188.582 270.71 189.136C270.497 189.685 270.39 190.327 270.39 191.06ZM282.765 196.199C282.143 196.199 281.578 196.082 281.071 195.847C280.564 195.609 280.161 195.266 279.863 194.818C279.565 194.366 279.416 193.821 279.416 193.182C279.416 192.619 279.526 192.163 279.748 191.814C279.97 191.46 280.266 191.183 280.636 190.983C281.007 190.783 281.416 190.634 281.864 190.536C282.315 190.433 282.769 190.352 283.225 190.293C283.822 190.216 284.305 190.158 284.676 190.12C285.051 190.077 285.324 190.007 285.494 189.909C285.669 189.811 285.756 189.641 285.756 189.398V189.347C285.756 188.716 285.584 188.226 285.239 187.876C284.898 187.527 284.38 187.352 283.685 187.352C282.965 187.352 282.401 187.51 281.992 187.825C281.582 188.141 281.295 188.477 281.129 188.835L279.697 188.324C279.953 187.727 280.293 187.263 280.72 186.93C281.15 186.594 281.619 186.359 282.126 186.227C282.637 186.091 283.14 186.023 283.634 186.023C283.95 186.023 284.312 186.061 284.721 186.138C285.134 186.21 285.533 186.362 285.916 186.592C286.304 186.822 286.626 187.169 286.881 187.634C287.137 188.098 287.265 188.72 287.265 189.5V195.969H285.756V194.639H285.68C285.578 194.852 285.407 195.08 285.168 195.323C284.93 195.566 284.612 195.773 284.216 195.943C283.82 196.114 283.336 196.199 282.765 196.199ZM282.995 194.844C283.592 194.844 284.095 194.727 284.504 194.492C284.917 194.258 285.228 193.955 285.437 193.585C285.65 193.214 285.756 192.824 285.756 192.415V191.034C285.693 191.111 285.552 191.181 285.335 191.245C285.122 191.305 284.874 191.358 284.593 191.405C284.316 191.447 284.046 191.486 283.781 191.52C283.521 191.55 283.31 191.575 283.149 191.597C282.756 191.648 282.39 191.731 282.049 191.846C281.712 191.957 281.44 192.125 281.231 192.351C281.026 192.572 280.924 192.875 280.924 193.259C280.924 193.783 281.118 194.179 281.506 194.447C281.898 194.712 282.394 194.844 282.995 194.844ZM290.018 195.969V186.151H291.476V187.634H291.578C291.757 187.148 292.081 186.754 292.55 186.451C293.018 186.148 293.547 185.997 294.135 185.997C294.246 185.997 294.384 185.999 294.55 186.004C294.717 186.008 294.842 186.014 294.927 186.023V187.557C294.876 187.544 294.759 187.525 294.576 187.499C294.397 187.469 294.207 187.455 294.007 187.455C293.53 187.455 293.104 187.555 292.729 187.755C292.358 187.951 292.064 188.224 291.847 188.573C291.633 188.918 291.527 189.312 291.527 189.756V195.969H290.018ZM301.601 186.151V187.429H296.513V186.151H301.601ZM297.996 183.798H299.504V193.156C299.504 193.582 299.566 193.902 299.69 194.115C299.817 194.324 299.979 194.464 300.175 194.537C300.376 194.605 300.587 194.639 300.808 194.639C300.974 194.639 301.111 194.631 301.217 194.614C301.324 194.592 301.409 194.575 301.473 194.562L301.78 195.918C301.677 195.956 301.535 195.994 301.351 196.033C301.168 196.075 300.936 196.097 300.655 196.097C300.229 196.097 299.811 196.005 299.402 195.822C298.997 195.638 298.66 195.359 298.392 194.984C298.128 194.609 297.996 194.136 297.996 193.565V183.798ZM305.378 190.062V195.969H303.87V186.151H305.327V187.685H305.455C305.685 187.186 306.035 186.786 306.503 186.483C306.972 186.176 307.577 186.023 308.319 186.023C308.984 186.023 309.565 186.159 310.064 186.432C310.562 186.7 310.95 187.109 311.227 187.659C311.504 188.205 311.643 188.895 311.643 189.73V195.969H310.134V189.832C310.134 189.061 309.934 188.46 309.533 188.03C309.133 187.595 308.583 187.378 307.884 187.378C307.403 187.378 306.972 187.482 306.593 187.691C306.218 187.9 305.922 188.205 305.704 188.605C305.487 189.006 305.378 189.491 305.378 190.062ZM318.516 196.173C317.57 196.173 316.754 195.964 316.068 195.547C315.386 195.125 314.859 194.537 314.489 193.783C314.122 193.024 313.939 192.142 313.939 191.136C313.939 190.131 314.122 189.244 314.489 188.477C314.859 187.706 315.375 187.105 316.036 186.675C316.7 186.24 317.476 186.023 318.362 186.023C318.874 186.023 319.379 186.108 319.877 186.278C320.376 186.449 320.83 186.726 321.239 187.109C321.648 187.489 321.974 187.991 322.217 188.618C322.46 189.244 322.581 190.016 322.581 190.932V191.571H315.013V190.267H321.047C321.047 189.713 320.936 189.219 320.715 188.784C320.497 188.349 320.186 188.006 319.781 187.755C319.381 187.504 318.908 187.378 318.362 187.378C317.761 187.378 317.242 187.527 316.803 187.825C316.368 188.119 316.033 188.503 315.799 188.976C315.565 189.449 315.448 189.956 315.448 190.497V191.366C315.448 192.108 315.575 192.737 315.831 193.252C316.091 193.763 316.451 194.153 316.911 194.422C317.372 194.686 317.906 194.818 318.516 194.818C318.912 194.818 319.27 194.763 319.59 194.652C319.913 194.537 320.193 194.366 320.427 194.141C320.661 193.911 320.842 193.625 320.97 193.284L322.428 193.693C322.274 194.188 322.016 194.622 321.654 194.997C321.292 195.368 320.845 195.658 320.312 195.866C319.779 196.071 319.18 196.173 318.516 196.173ZM324.876 195.969V186.151H326.333V187.634H326.435C326.614 187.148 326.938 186.754 327.407 186.451C327.876 186.148 328.404 185.997 328.992 185.997C329.103 185.997 329.242 185.999 329.408 186.004C329.574 186.008 329.7 186.014 329.785 186.023V187.557C329.734 187.544 329.617 187.525 329.433 187.499C329.254 187.469 329.065 187.455 328.864 187.455C328.387 187.455 327.961 187.555 327.586 187.755C327.215 187.951 326.921 188.224 326.704 188.573C326.491 188.918 326.384 189.312 326.384 189.756V195.969H324.876ZM338.528 188.349L337.172 188.733C337.087 188.507 336.962 188.288 336.795 188.075C336.633 187.857 336.412 187.678 336.131 187.538C335.849 187.397 335.489 187.327 335.05 187.327C334.449 187.327 333.949 187.465 333.548 187.742C333.152 188.015 332.954 188.362 332.954 188.784C332.954 189.159 333.09 189.455 333.363 189.673C333.636 189.89 334.062 190.071 334.641 190.216L336.099 190.574C336.976 190.787 337.631 191.113 338.061 191.552C338.491 191.987 338.707 192.547 338.707 193.233C338.707 193.795 338.545 194.298 338.221 194.741C337.901 195.185 337.454 195.534 336.878 195.79C336.303 196.045 335.634 196.173 334.871 196.173C333.87 196.173 333.041 195.956 332.385 195.521C331.729 195.087 331.313 194.452 331.138 193.616L332.57 193.259C332.707 193.787 332.964 194.183 333.344 194.447C333.727 194.712 334.228 194.844 334.846 194.844C335.549 194.844 336.107 194.695 336.521 194.396C336.938 194.094 337.147 193.732 337.147 193.31C337.147 192.969 337.028 192.683 336.789 192.453C336.55 192.219 336.184 192.044 335.69 191.929L334.053 191.545C333.154 191.332 332.494 191.002 332.072 190.555C331.654 190.103 331.445 189.538 331.445 188.861C331.445 188.307 331.601 187.817 331.912 187.391C332.227 186.964 332.655 186.63 333.197 186.387C333.742 186.144 334.36 186.023 335.05 186.023C336.022 186.023 336.785 186.236 337.339 186.662C337.897 187.088 338.293 187.651 338.528 188.349Z" fill="#050038"/>
</svg>
