<svg width="360" height="202" viewBox="0 0 360 202" fill="none" xmlns="http://www.w3.org/2000/svg">
<path d="M77.6293 140.439H87.8032V95.6482H77.8852L77.7573 97.2478C77.5013 100.959 75.7737 102.687 71.9984 102.879L66.6875 103.135V111.325H77.6293V140.439ZM104.509 128.218C100.094 128.218 97.0863 130.969 97.0863 134.68C97.0863 137.944 99.5818 140.567 103.293 140.567C104.765 140.567 106.108 140.119 107.004 139.352C106.172 142.807 102.973 144.406 97.8542 143.767V148.118C107.004 149.269 112.443 144.918 112.443 137.176C112.443 131.417 109.244 128.218 104.509 128.218ZM141.244 141.079C155.194 141.079 165.623 131.225 165.623 118.044C165.623 104.926 155.194 95.0083 141.244 95.0083C127.295 95.0083 116.865 104.926 116.865 118.044C116.865 131.225 127.295 141.079 141.244 141.079ZM141.244 131.545C133.502 131.545 128.063 125.978 128.063 118.044C128.063 110.173 133.502 104.607 141.244 104.607C148.987 104.607 154.426 110.173 154.426 118.044C154.426 125.978 148.987 131.545 141.244 131.545ZM195.295 141.079C209.245 141.079 219.674 131.225 219.674 118.044C219.674 104.926 209.245 95.0083 195.295 95.0083C181.346 95.0083 170.916 104.926 170.916 118.044C170.916 131.225 181.346 141.079 195.295 141.079ZM195.295 131.545C187.553 131.545 182.114 125.978 182.114 118.044C182.114 110.173 187.553 104.607 195.295 104.607C203.038 104.607 208.477 110.173 208.477 118.044C208.477 125.978 203.038 131.545 195.295 131.545ZM249.347 141.079C263.297 141.079 273.726 131.225 273.726 118.044C273.726 104.926 263.297 95.0083 249.347 95.0083C235.398 95.0083 224.968 104.926 224.968 118.044C224.968 131.225 235.398 141.079 249.347 141.079ZM249.347 131.545C241.605 131.545 236.166 125.978 236.166 118.044C236.166 110.173 241.605 104.607 249.347 104.607C257.09 104.607 262.529 110.173 262.529 118.044C262.529 125.978 257.09 131.545 249.347 131.545ZM314.539 114.269H302.254V102.111H293.487V114.269H281.266V123.163H293.487V135.32H302.254V123.163H314.539V114.269Z" fill="#050038"/>
<path d="M17.9279 197.142C17.0075 197.142 16.2148 196.925 15.5501 196.49C14.8853 196.055 14.3739 195.457 14.016 194.694C13.658 193.931 13.479 193.06 13.479 192.08C13.479 191.082 13.6623 190.202 14.0288 189.44C14.3995 188.673 14.9151 188.074 15.5756 187.643C16.2404 187.209 17.016 186.991 17.9023 186.991C18.5927 186.991 19.2148 187.119 19.7688 187.375C20.3228 187.631 20.7766 187.989 21.1303 188.449C21.484 188.909 21.7035 189.446 21.7887 190.06H20.2802C20.1651 189.612 19.9094 189.216 19.5131 188.871C19.1211 188.521 18.5927 188.347 17.9279 188.347C17.3398 188.347 16.8242 188.5 16.381 188.807C15.9421 189.109 15.5991 189.538 15.3519 190.092C15.109 190.641 14.9876 191.287 14.9876 192.028C14.9876 192.787 15.1069 193.447 15.3455 194.01C15.5884 194.572 15.9293 195.009 16.3683 195.32C16.8114 195.631 17.3313 195.787 17.9279 195.787C18.32 195.787 18.6758 195.719 18.9954 195.582C19.315 195.446 19.5856 195.25 19.8072 194.994C20.0288 194.739 20.1864 194.432 20.2802 194.074H21.7887C21.7035 194.653 21.4925 195.175 21.1559 195.64C20.8235 196.1 20.3825 196.467 19.8327 196.739C19.2873 197.008 18.6523 197.142 17.9279 197.142ZM27.9826 197.142C27.0962 197.142 26.3185 196.931 25.6495 196.509C24.9847 196.087 24.4648 195.497 24.0898 194.739C23.7191 193.98 23.5337 193.094 23.5337 192.08C23.5337 191.057 23.7191 190.164 24.0898 189.401C24.4648 188.638 24.9847 188.046 25.6495 187.624C26.3185 187.202 27.0962 186.991 27.9826 186.991C28.869 186.991 29.6445 187.202 30.3093 187.624C30.9783 188.046 31.4982 188.638 31.869 189.401C32.244 190.164 32.4315 191.057 32.4315 192.08C32.4315 193.094 32.244 193.98 31.869 194.739C31.4982 195.497 30.9783 196.087 30.3093 196.509C29.6445 196.931 28.869 197.142 27.9826 197.142ZM27.9826 195.787C28.6559 195.787 29.2099 195.614 29.6445 195.269C30.0792 194.924 30.4009 194.47 30.6097 193.908C30.8185 193.345 30.9229 192.736 30.9229 192.08C30.9229 191.423 30.8185 190.812 30.6097 190.245C30.4009 189.678 30.0792 189.22 29.6445 188.871C29.2099 188.521 28.6559 188.347 27.9826 188.347C27.3093 188.347 26.7553 188.521 26.3207 188.871C25.886 189.22 25.5643 189.678 25.3555 190.245C25.1467 190.812 25.0423 191.423 25.0423 192.08C25.0423 192.736 25.1467 193.345 25.3555 193.908C25.5643 194.47 25.886 194.924 26.3207 195.269C26.7553 195.614 27.3093 195.787 27.9826 195.787ZM34.7342 196.938V187.119H36.1916V188.653H36.3194C36.524 188.129 36.8542 187.722 37.3102 187.433C37.7662 187.138 38.3137 186.991 38.9529 186.991C39.6007 186.991 40.1397 187.138 40.5701 187.433C41.0048 187.722 41.3436 188.129 41.5865 188.653H41.6887C41.9402 188.146 42.3173 187.744 42.8201 187.445C43.323 187.143 43.926 186.991 44.6291 186.991C45.5069 186.991 46.225 187.266 46.7832 187.816C47.3414 188.362 47.6206 189.212 47.6206 190.366V196.938H46.112V190.366C46.112 189.642 45.9139 189.124 45.5176 188.813C45.1213 188.502 44.6547 188.347 44.1177 188.347C43.4274 188.347 42.8926 188.555 42.5133 188.973C42.1341 189.386 41.9444 189.911 41.9444 190.545V196.938H40.4103V190.213C40.4103 189.655 40.2292 189.205 39.867 188.864C39.5048 188.519 39.0382 188.347 38.4672 188.347C38.0751 188.347 37.7086 188.451 37.3677 188.66C37.0311 188.869 36.7583 189.158 36.5495 189.529C36.345 189.896 36.2427 190.32 36.2427 190.801V196.938H34.7342ZM50.3787 196.938V187.119H51.8361V188.653H51.964C52.1685 188.129 52.4988 187.722 52.9547 187.433C53.4107 187.138 53.9583 186.991 54.5975 186.991C55.2452 186.991 55.7843 187.138 56.2147 187.433C56.6493 187.722 56.9881 188.129 57.231 188.653H57.3333C57.5847 188.146 57.9618 187.744 58.4647 187.445C58.9675 187.143 59.5705 186.991 60.2736 186.991C61.1515 186.991 61.8695 187.266 62.4277 187.816C62.986 188.362 63.2651 189.212 63.2651 190.366V196.938H61.7566V190.366C61.7566 189.642 61.5584 189.124 61.1621 188.813C60.7658 188.502 60.2992 188.347 59.7623 188.347C59.0719 188.347 58.5371 188.555 58.1578 188.973C57.7786 189.386 57.589 189.911 57.589 190.545V196.938H56.0549V190.213C56.0549 189.655 55.8738 189.205 55.5115 188.864C55.1493 188.519 54.6827 188.347 54.1117 188.347C53.7196 188.347 53.3532 188.451 53.0123 188.66C52.6756 188.869 52.4029 189.158 52.1941 189.529C51.9895 189.896 51.8873 190.32 51.8873 190.801V196.938H50.3787ZM72.2108 192.923V187.119H73.7193V196.938H72.2108V195.276H72.1085C71.8784 195.774 71.5204 196.198 71.0346 196.548C70.5488 196.893 69.9352 197.065 69.1937 197.065C68.5801 197.065 68.0346 196.931 67.5574 196.663C67.0801 196.39 66.7051 195.981 66.4324 195.435C66.1596 194.886 66.0233 194.193 66.0233 193.358V187.119H67.5318V193.256C67.5318 193.972 67.7321 194.543 68.1326 194.969C68.5375 195.395 69.0531 195.608 69.6795 195.608C70.0545 195.608 70.4359 195.512 70.8237 195.32C71.2157 195.129 71.5439 194.835 71.8081 194.438C72.0765 194.042 72.2108 193.537 72.2108 192.923ZM77.9908 191.031V196.938H76.4822V187.119H77.9396V188.653H78.0675C78.2976 188.155 78.647 187.754 79.1158 187.452C79.5845 187.145 80.1896 186.991 80.9311 186.991C81.5959 186.991 82.1776 187.128 82.6761 187.401C83.1747 187.669 83.5625 188.078 83.8395 188.628C84.1165 189.173 84.255 189.864 84.255 190.699V196.938H82.7464V190.801C82.7464 190.03 82.5462 189.429 82.1456 188.999C81.745 188.564 81.1953 188.347 80.4964 188.347C80.0149 188.347 79.5845 188.451 79.2053 188.66C78.8303 188.869 78.5341 189.173 78.3168 189.574C78.0994 189.974 77.9908 190.46 77.9908 191.031ZM87.0115 196.938V187.119H88.5201V196.938H87.0115ZM87.7786 185.483C87.4846 185.483 87.231 185.383 87.0179 185.183C86.8091 184.982 86.7047 184.741 86.7047 184.46C86.7047 184.179 86.8091 183.938 87.0179 183.738C87.231 183.538 87.4846 183.438 87.7786 183.438C88.0726 183.438 88.324 183.538 88.5328 183.738C88.7459 183.938 88.8525 184.179 88.8525 184.46C88.8525 184.741 88.7459 184.982 88.5328 185.183C88.324 185.383 88.0726 185.483 87.7786 185.483ZM95.5529 187.119V188.398H90.4648V187.119H95.5529ZM91.9478 184.767H93.4563V194.125C93.4563 194.551 93.5181 194.871 93.6417 195.084C93.7695 195.293 93.9315 195.433 94.1275 195.506C94.3278 195.574 94.5387 195.608 94.7603 195.608C94.9265 195.608 95.0629 195.599 95.1694 195.582C95.2759 195.561 95.3612 195.544 95.4251 195.531L95.7319 196.886C95.6296 196.925 95.4869 196.963 95.3036 197.001C95.1204 197.044 94.8881 197.065 94.6069 197.065C94.1808 197.065 93.7631 196.974 93.354 196.79C92.9492 196.607 92.6126 196.328 92.3441 195.953C92.0799 195.578 91.9478 195.105 91.9478 194.534V184.767ZM98.7937 200.619C98.538 200.619 98.31 200.598 98.1097 200.555C97.9094 200.517 97.771 200.479 97.6942 200.44L98.0778 199.111C98.4442 199.205 98.7681 199.239 99.0494 199.213C99.3306 199.188 99.5799 199.062 99.7972 198.836C100.019 198.614 100.221 198.254 100.404 197.756L100.686 196.989L97.055 187.119H98.6914L101.402 194.943H101.504L104.214 187.119H105.85L101.683 198.369C101.495 198.876 101.263 199.296 100.986 199.629C100.709 199.965 100.387 200.214 100.021 200.376C99.6587 200.538 99.2496 200.619 98.7937 200.619ZM113.467 190.622V192.028H107.739V190.622H113.467ZM124.073 197.168C123.45 197.168 122.886 197.05 122.379 196.816C121.872 196.577 121.469 196.234 121.171 195.787C120.872 195.335 120.723 194.79 120.723 194.151C120.723 193.588 120.834 193.132 121.056 192.783C121.277 192.429 121.573 192.152 121.944 191.952C122.315 191.751 122.724 191.602 123.171 191.504C123.623 191.402 124.077 191.321 124.533 191.261C125.129 191.185 125.613 191.127 125.984 191.089C126.359 191.046 126.632 190.976 126.802 190.878C126.977 190.78 127.064 190.609 127.064 190.366V190.315C127.064 189.685 126.892 189.195 126.546 188.845C126.205 188.496 125.688 188.321 124.993 188.321C124.273 188.321 123.708 188.479 123.299 188.794C122.89 189.109 122.602 189.446 122.436 189.804L121.004 189.293C121.26 188.696 121.601 188.232 122.027 187.899C122.458 187.562 122.926 187.328 123.433 187.196C123.945 187.06 124.448 186.991 124.942 186.991C125.257 186.991 125.619 187.03 126.029 187.107C126.442 187.179 126.84 187.33 127.224 187.56C127.612 187.79 127.933 188.138 128.189 188.602C128.445 189.067 128.573 189.689 128.573 190.469V196.938H127.064V195.608H126.987C126.885 195.821 126.715 196.049 126.476 196.292C126.237 196.535 125.92 196.741 125.524 196.912C125.127 197.082 124.644 197.168 124.073 197.168ZM124.303 195.812C124.899 195.812 125.402 195.695 125.811 195.461C126.225 195.227 126.536 194.924 126.744 194.553C126.958 194.183 127.064 193.793 127.064 193.384V192.003C127 192.08 126.86 192.15 126.642 192.214C126.429 192.273 126.182 192.327 125.901 192.374C125.624 192.416 125.353 192.455 125.089 192.489C124.829 192.518 124.618 192.544 124.456 192.565C124.064 192.616 123.698 192.7 123.357 192.815C123.02 192.925 122.747 193.094 122.539 193.32C122.334 193.541 122.232 193.844 122.232 194.227C122.232 194.751 122.426 195.148 122.813 195.416C123.205 195.68 123.702 195.812 124.303 195.812ZM132.835 191.031V196.938H131.326V187.119H132.783V188.653H132.911C133.141 188.155 133.491 187.754 133.96 187.452C134.428 187.145 135.033 186.991 135.775 186.991C136.44 186.991 137.021 187.128 137.52 187.401C138.018 187.669 138.406 188.078 138.683 188.628C138.96 189.173 139.099 189.864 139.099 190.699V196.938H137.59V190.801C137.59 190.03 137.39 189.429 136.989 188.999C136.589 188.564 136.039 188.347 135.34 188.347C134.859 188.347 134.428 188.451 134.049 188.66C133.674 188.869 133.378 189.173 133.161 189.574C132.943 189.974 132.835 190.46 132.835 191.031ZM145.563 197.142C144.744 197.142 144.022 196.935 143.396 196.522C142.769 196.104 142.279 195.516 141.926 194.758C141.572 193.995 141.395 193.094 141.395 192.054C141.395 191.023 141.572 190.128 141.926 189.369C142.279 188.611 142.771 188.025 143.402 187.612C144.033 187.198 144.762 186.991 145.588 186.991C146.227 186.991 146.732 187.098 147.103 187.311C147.478 187.52 147.764 187.759 147.96 188.027C148.16 188.291 148.316 188.509 148.426 188.679H148.554V183.847H150.063V196.938H148.605V195.429H148.426C148.316 195.608 148.158 195.834 147.953 196.107C147.749 196.375 147.457 196.616 147.078 196.829C146.698 197.038 146.193 197.142 145.563 197.142ZM145.767 195.787C146.372 195.787 146.884 195.629 147.301 195.314C147.719 194.994 148.036 194.553 148.254 193.991C148.471 193.424 148.58 192.77 148.58 192.028C148.58 191.295 148.473 190.654 148.26 190.104C148.047 189.55 147.732 189.12 147.314 188.813C146.896 188.502 146.381 188.347 145.767 188.347C145.128 188.347 144.595 188.511 144.169 188.839C143.747 189.163 143.43 189.604 143.217 190.162C143.008 190.716 142.904 191.338 142.904 192.028C142.904 192.727 143.01 193.362 143.223 193.933C143.441 194.5 143.76 194.952 144.182 195.288C144.608 195.621 145.137 195.787 145.767 195.787ZM162.214 197.142C161.268 197.142 160.452 196.933 159.766 196.516C159.084 196.094 158.558 195.506 158.187 194.751C157.82 193.993 157.637 193.111 157.637 192.105C157.637 191.099 157.82 190.213 158.187 189.446C158.558 188.675 159.073 188.074 159.734 187.643C160.399 187.209 161.174 186.991 162.061 186.991C162.572 186.991 163.077 187.077 163.575 187.247C164.074 187.418 164.528 187.695 164.937 188.078C165.346 188.457 165.672 188.96 165.915 189.587C166.158 190.213 166.279 190.984 166.279 191.901V192.54H158.711V191.236H164.745C164.745 190.682 164.634 190.187 164.413 189.753C164.195 189.318 163.884 188.975 163.48 188.724C163.079 188.472 162.606 188.347 162.061 188.347C161.46 188.347 160.94 188.496 160.501 188.794C160.066 189.088 159.732 189.472 159.497 189.945C159.263 190.418 159.146 190.925 159.146 191.466V192.335C159.146 193.077 159.274 193.705 159.529 194.221C159.789 194.732 160.149 195.122 160.61 195.391C161.07 195.655 161.605 195.787 162.214 195.787C162.61 195.787 162.968 195.732 163.288 195.621C163.612 195.506 163.891 195.335 164.125 195.109C164.36 194.879 164.541 194.594 164.669 194.253L166.126 194.662C165.972 195.156 165.715 195.591 165.352 195.966C164.99 196.337 164.543 196.626 164.01 196.835C163.477 197.04 162.879 197.142 162.214 197.142ZM169.435 187.119L171.788 191.134L174.14 187.119H175.879L172.708 192.028L175.879 196.938H174.14L171.788 193.128L169.435 196.938H167.697L170.816 192.028L167.697 187.119H169.435ZM178.031 200.619V187.119H179.488V188.679H179.667C179.778 188.509 179.932 188.291 180.128 188.027C180.328 187.759 180.613 187.52 180.984 187.311C181.359 187.098 181.866 186.991 182.506 186.991C183.332 186.991 184.061 187.198 184.692 187.612C185.322 188.025 185.814 188.611 186.168 189.369C186.522 190.128 186.699 191.023 186.699 192.054C186.699 193.094 186.522 193.995 186.168 194.758C185.814 195.516 185.324 196.104 184.698 196.522C184.072 196.935 183.349 197.142 182.531 197.142C181.9 197.142 181.395 197.038 181.016 196.829C180.637 196.616 180.345 196.375 180.14 196.107C179.936 195.834 179.778 195.608 179.667 195.429H179.54V200.619H178.031ZM179.514 192.028C179.514 192.77 179.623 193.424 179.84 193.991C180.057 194.553 180.375 194.994 180.792 195.314C181.21 195.629 181.721 195.787 182.327 195.787C182.957 195.787 183.483 195.621 183.905 195.288C184.331 194.952 184.651 194.5 184.864 193.933C185.081 193.362 185.19 192.727 185.19 192.028C185.19 191.338 185.084 190.716 184.871 190.162C184.662 189.604 184.344 189.163 183.918 188.839C183.496 188.511 182.966 188.347 182.327 188.347C181.713 188.347 181.197 188.502 180.78 188.813C180.362 189.12 180.047 189.55 179.834 190.104C179.621 190.654 179.514 191.295 179.514 192.028ZM193.116 197.142C192.17 197.142 191.354 196.933 190.668 196.516C189.986 196.094 189.46 195.506 189.089 194.751C188.723 193.993 188.54 193.111 188.54 192.105C188.54 191.099 188.723 190.213 189.089 189.446C189.46 188.675 189.976 188.074 190.636 187.643C191.301 187.209 192.077 186.991 192.963 186.991C193.474 186.991 193.979 187.077 194.478 187.247C194.976 187.418 195.43 187.695 195.839 188.078C196.248 188.457 196.574 188.96 196.817 189.587C197.06 190.213 197.182 190.984 197.182 191.901V192.54H189.613V191.236H195.648C195.648 190.682 195.537 190.187 195.315 189.753C195.098 189.318 194.787 188.975 194.382 188.724C193.981 188.472 193.508 188.347 192.963 188.347C192.362 188.347 191.842 188.496 191.403 188.794C190.969 189.088 190.634 189.472 190.4 189.945C190.165 190.418 190.048 190.925 190.048 191.466V192.335C190.048 193.077 190.176 193.705 190.432 194.221C190.692 194.732 191.052 195.122 191.512 195.391C191.972 195.655 192.507 195.787 193.116 195.787C193.513 195.787 193.871 195.732 194.19 195.621C194.514 195.506 194.793 195.335 195.028 195.109C195.262 194.879 195.443 194.594 195.571 194.253L197.028 194.662C196.875 195.156 196.617 195.591 196.255 195.966C195.893 196.337 195.445 196.626 194.912 196.835C194.38 197.04 193.781 197.142 193.116 197.142ZM199.476 196.938V187.119H200.934V188.602H201.036C201.215 188.116 201.539 187.722 202.008 187.42C202.476 187.117 203.005 186.966 203.593 186.966C203.704 186.966 203.842 186.968 204.008 186.972C204.175 186.977 204.3 186.983 204.385 186.991V188.526C204.334 188.513 204.217 188.494 204.034 188.468C203.855 188.438 203.665 188.423 203.465 188.423C202.988 188.423 202.562 188.523 202.187 188.724C201.816 188.92 201.522 189.192 201.305 189.542C201.091 189.887 200.985 190.281 200.985 190.724V196.938H199.476ZM211.059 187.119V188.398H205.971V187.119H211.059ZM207.454 184.767H208.962V194.125C208.962 194.551 209.024 194.871 209.148 195.084C209.275 195.293 209.437 195.433 209.633 195.506C209.834 195.574 210.045 195.608 210.266 195.608C210.432 195.608 210.569 195.599 210.675 195.582C210.782 195.561 210.867 195.544 210.931 195.531L211.238 196.886C211.135 196.925 210.993 196.963 210.809 197.001C210.626 197.044 210.394 197.065 210.113 197.065C209.687 197.065 209.269 196.974 208.86 196.79C208.455 196.607 208.118 196.328 207.85 195.953C207.586 195.578 207.454 195.105 207.454 194.534V184.767ZM218.601 190.622V192.028H212.874V190.622H218.601ZM221.46 196.938V183.847H222.969V188.679H223.097C223.207 188.509 223.361 188.291 223.557 188.027C223.757 187.759 224.043 187.52 224.413 187.311C224.788 187.098 225.295 186.991 225.935 186.991C226.761 186.991 227.49 187.198 228.121 187.612C228.751 188.025 229.244 188.611 229.597 189.369C229.951 190.128 230.128 191.023 230.128 192.054C230.128 193.094 229.951 193.995 229.597 194.758C229.244 195.516 228.754 196.104 228.127 196.522C227.501 196.935 226.778 197.142 225.96 197.142C225.33 197.142 224.825 197.038 224.445 196.829C224.066 196.616 223.774 196.375 223.57 196.107C223.365 195.834 223.207 195.608 223.097 195.429H222.918V196.938H221.46ZM222.943 192.028C222.943 192.77 223.052 193.424 223.269 193.991C223.487 194.553 223.804 194.994 224.222 195.314C224.639 195.629 225.151 195.787 225.756 195.787C226.386 195.787 226.913 195.621 227.335 195.288C227.761 194.952 228.08 194.5 228.293 193.933C228.511 193.362 228.619 192.727 228.619 192.028C228.619 191.338 228.513 190.716 228.3 190.162C228.091 189.604 227.773 189.163 227.347 188.839C226.925 188.511 226.395 188.347 225.756 188.347C225.142 188.347 224.626 188.502 224.209 188.813C223.791 189.12 223.476 189.55 223.263 190.104C223.05 190.654 222.943 191.295 222.943 192.028ZM238.623 192.923V187.119H240.131V196.938H238.623V195.276H238.521C238.29 195.774 237.933 196.198 237.447 196.548C236.961 196.893 236.347 197.065 235.606 197.065C234.992 197.065 234.447 196.931 233.969 196.663C233.492 196.39 233.117 195.981 232.844 195.435C232.572 194.886 232.435 194.193 232.435 193.358V187.119H233.944V193.256C233.944 193.972 234.144 194.543 234.545 194.969C234.95 195.395 235.465 195.608 236.092 195.608C236.467 195.608 236.848 195.512 237.236 195.32C237.628 195.129 237.956 194.835 238.22 194.438C238.489 194.042 238.623 193.537 238.623 192.923ZM242.894 196.938V187.119H244.403V196.938H242.894ZM243.661 185.483C243.367 185.483 243.114 185.383 242.901 185.183C242.692 184.982 242.588 184.741 242.588 184.46C242.588 184.179 242.692 183.938 242.901 183.738C243.114 183.538 243.367 183.438 243.661 183.438C243.955 183.438 244.207 183.538 244.416 183.738C244.629 183.938 244.735 184.179 244.735 184.46C244.735 184.741 244.629 184.982 244.416 185.183C244.207 185.383 243.955 185.483 243.661 185.483ZM248.674 183.847V196.938H247.166V183.847H248.674ZM255.707 187.119V188.398H250.619V187.119H255.707ZM252.102 184.767H253.611V194.125C253.611 194.551 253.672 194.871 253.796 195.084C253.924 195.293 254.086 195.433 254.282 195.506C254.482 195.574 254.693 195.608 254.915 195.608C255.081 195.608 255.217 195.599 255.324 195.582C255.43 195.561 255.515 195.544 255.579 195.531L255.886 196.886C255.784 196.925 255.641 196.963 255.458 197.001C255.275 197.044 255.042 197.065 254.761 197.065C254.335 197.065 253.917 196.974 253.508 196.79C253.104 196.607 252.767 196.328 252.498 195.953C252.234 195.578 252.102 195.105 252.102 194.534V184.767ZM267.309 187.119V188.398H262.221V187.119H267.309ZM263.704 184.767H265.212V194.125C265.212 194.551 265.274 194.871 265.398 195.084C265.525 195.293 265.687 195.433 265.883 195.506C266.084 195.574 266.295 195.608 266.516 195.608C266.682 195.608 266.819 195.599 266.925 195.582C267.032 195.561 267.117 195.544 267.181 195.531L267.488 196.886C267.385 196.925 267.243 196.963 267.059 197.001C266.876 197.044 266.644 197.065 266.363 197.065C265.937 197.065 265.519 196.974 265.11 196.79C264.705 196.607 264.368 196.328 264.1 195.953C263.836 195.578 263.704 195.105 263.704 194.534V184.767ZM273.589 197.142C272.643 197.142 271.827 196.933 271.141 196.516C270.459 196.094 269.933 195.506 269.562 194.751C269.195 193.993 269.012 193.111 269.012 192.105C269.012 191.099 269.195 190.213 269.562 189.446C269.933 188.675 270.448 188.074 271.109 187.643C271.774 187.209 272.549 186.991 273.436 186.991C273.947 186.991 274.452 187.077 274.95 187.247C275.449 187.418 275.903 187.695 276.312 188.078C276.721 188.457 277.047 188.96 277.29 189.587C277.533 190.213 277.654 190.984 277.654 191.901V192.54H270.086V191.236H276.12C276.12 190.682 276.009 190.187 275.788 189.753C275.57 189.318 275.259 188.975 274.855 188.724C274.454 188.472 273.981 188.347 273.436 188.347C272.835 188.347 272.315 188.496 271.876 188.794C271.441 189.088 271.107 189.472 270.872 189.945C270.638 190.418 270.521 190.925 270.521 191.466V192.335C270.521 193.077 270.649 193.705 270.904 194.221C271.164 194.732 271.524 195.122 271.985 195.391C272.445 195.655 272.98 195.787 273.589 195.787C273.985 195.787 274.343 195.732 274.663 195.621C274.987 195.506 275.266 195.335 275.5 195.109C275.735 194.879 275.916 194.594 276.044 194.253L277.501 194.662C277.347 195.156 277.09 195.591 276.727 195.966C276.365 196.337 275.918 196.626 275.385 196.835C274.852 197.04 274.254 197.142 273.589 197.142ZM279.949 196.938V187.119H281.406V188.653H281.534C281.739 188.129 282.069 187.722 282.525 187.433C282.981 187.138 283.529 186.991 284.168 186.991C284.816 186.991 285.355 187.138 285.785 187.433C286.22 187.722 286.558 188.129 286.801 188.653H286.904C287.155 188.146 287.532 187.744 288.035 187.445C288.538 187.143 289.141 186.991 289.844 186.991C290.722 186.991 291.44 187.266 291.998 187.816C292.556 188.362 292.835 189.212 292.835 190.366V196.938H291.327V190.366C291.327 189.642 291.129 189.124 290.732 188.813C290.336 188.502 289.869 188.347 289.333 188.347C288.642 188.347 288.107 188.555 287.728 188.973C287.349 189.386 287.159 189.911 287.159 190.545V196.938H285.625V190.213C285.625 189.655 285.444 189.205 285.082 188.864C284.72 188.519 284.253 188.347 283.682 188.347C283.29 188.347 282.923 188.451 282.583 188.66C282.246 188.869 281.973 189.158 281.764 189.529C281.56 189.896 281.458 190.32 281.458 190.801V196.938H279.949ZM295.594 200.619V187.119H297.051V188.679H297.23C297.341 188.509 297.494 188.291 297.69 188.027C297.89 187.759 298.176 187.52 298.547 187.311C298.922 187.098 299.429 186.991 300.068 186.991C300.895 186.991 301.623 187.198 302.254 187.612C302.885 188.025 303.377 188.611 303.731 189.369C304.084 190.128 304.261 191.023 304.261 192.054C304.261 193.094 304.084 193.995 303.731 194.758C303.377 195.516 302.887 196.104 302.26 196.522C301.634 196.935 300.912 197.142 300.094 197.142C299.463 197.142 298.958 197.038 298.579 196.829C298.199 196.616 297.907 196.375 297.703 196.107C297.498 195.834 297.341 195.608 297.23 195.429H297.102V200.619H295.594ZM297.077 192.028C297.077 192.77 297.185 193.424 297.403 193.991C297.62 194.553 297.937 194.994 298.355 195.314C298.773 195.629 299.284 195.787 299.889 195.787C300.52 195.787 301.046 195.621 301.468 195.288C301.894 194.952 302.214 194.5 302.427 193.933C302.644 193.362 302.753 192.727 302.753 192.028C302.753 191.338 302.646 190.716 302.433 190.162C302.224 189.604 301.907 189.163 301.481 188.839C301.059 188.511 300.528 188.347 299.889 188.347C299.275 188.347 298.76 188.502 298.342 188.813C297.925 189.12 297.609 189.55 297.396 190.104C297.183 190.654 297.077 191.295 297.077 192.028ZM308.071 183.847V196.938H306.562V183.847H308.071ZM313.723 197.168C313.101 197.168 312.536 197.05 312.029 196.816C311.522 196.577 311.119 196.234 310.821 195.787C310.523 195.335 310.374 194.79 310.374 194.151C310.374 193.588 310.484 193.132 310.706 192.783C310.928 192.429 311.224 192.152 311.594 191.952C311.965 191.751 312.374 191.602 312.822 191.504C313.273 191.402 313.727 191.321 314.183 191.261C314.78 191.185 315.263 191.127 315.634 191.089C316.009 191.046 316.282 190.976 316.452 190.878C316.627 190.78 316.714 190.609 316.714 190.366V190.315C316.714 189.685 316.542 189.195 316.197 188.845C315.856 188.496 315.338 188.321 314.643 188.321C313.923 188.321 313.359 188.479 312.95 188.794C312.54 189.109 312.253 189.446 312.087 189.804L310.655 189.293C310.911 188.696 311.251 188.232 311.678 187.899C312.108 187.562 312.577 187.328 313.084 187.196C313.595 187.06 314.098 186.991 314.592 186.991C314.908 186.991 315.27 187.03 315.679 187.107C316.092 187.179 316.491 187.33 316.874 187.56C317.262 187.79 317.584 188.138 317.839 188.602C318.095 189.067 318.223 189.689 318.223 190.469V196.938H316.714V195.608H316.638C316.536 195.821 316.365 196.049 316.126 196.292C315.888 196.535 315.57 196.741 315.174 196.912C314.778 197.082 314.294 197.168 313.723 197.168ZM313.953 195.812C314.55 195.812 315.053 195.695 315.462 195.461C315.875 195.227 316.186 194.924 316.395 194.553C316.608 194.183 316.714 193.793 316.714 193.384V192.003C316.651 192.08 316.51 192.15 316.293 192.214C316.08 192.273 315.832 192.327 315.551 192.374C315.274 192.416 315.004 192.455 314.739 192.489C314.479 192.518 314.268 192.544 314.107 192.565C313.714 192.616 313.348 192.7 313.007 192.815C312.67 192.925 312.398 193.094 312.189 193.32C311.984 193.541 311.882 193.844 311.882 194.227C311.882 194.751 312.076 195.148 312.464 195.416C312.856 195.68 313.352 195.812 313.953 195.812ZM325.246 187.119V188.398H320.158V187.119H325.246ZM321.641 184.767H323.15V194.125C323.15 194.551 323.211 194.871 323.335 195.084C323.463 195.293 323.625 195.433 323.821 195.506C324.021 195.574 324.232 195.608 324.454 195.608C324.62 195.608 324.756 195.599 324.863 195.582C324.969 195.561 325.055 195.544 325.118 195.531L325.425 196.886C325.323 196.925 325.18 196.963 324.997 197.001C324.814 197.044 324.581 197.065 324.3 197.065C323.874 197.065 323.456 196.974 323.047 196.79C322.643 196.607 322.306 196.328 322.037 195.953C321.773 195.578 321.641 195.105 321.641 194.534V184.767ZM331.526 197.142C330.58 197.142 329.764 196.933 329.078 196.516C328.396 196.094 327.87 195.506 327.499 194.751C327.133 193.993 326.95 193.111 326.95 192.105C326.95 191.099 327.133 190.213 327.499 189.446C327.87 188.675 328.386 188.074 329.046 187.643C329.711 187.209 330.487 186.991 331.373 186.991C331.884 186.991 332.389 187.077 332.888 187.247C333.387 187.418 333.84 187.695 334.249 188.078C334.659 188.457 334.985 188.96 335.227 189.587C335.47 190.213 335.592 190.984 335.592 191.901V192.54H328.024V191.236H334.058C334.058 190.682 333.947 190.187 333.725 189.753C333.508 189.318 333.197 188.975 332.792 188.724C332.392 188.472 331.919 188.347 331.373 188.347C330.772 188.347 330.252 188.496 329.813 188.794C329.379 189.088 329.044 189.472 328.81 189.945C328.575 190.418 328.458 190.925 328.458 191.466V192.335C328.458 193.077 328.586 193.705 328.842 194.221C329.102 194.732 329.462 195.122 329.922 195.391C330.382 195.655 330.917 195.787 331.526 195.787C331.923 195.787 332.281 195.732 332.6 195.621C332.924 195.506 333.203 195.335 333.438 195.109C333.672 194.879 333.853 194.594 333.981 194.253L335.438 194.662C335.285 195.156 335.027 195.591 334.665 195.966C334.303 196.337 333.855 196.626 333.323 196.835C332.79 197.04 332.191 197.142 331.526 197.142ZM344.841 189.318L343.486 189.702C343.401 189.476 343.275 189.256 343.109 189.043C342.947 188.826 342.725 188.647 342.444 188.506C342.163 188.366 341.803 188.295 341.364 188.295C340.763 188.295 340.262 188.434 339.862 188.711C339.465 188.984 339.267 189.331 339.267 189.753C339.267 190.128 339.404 190.424 339.676 190.641C339.949 190.859 340.375 191.04 340.955 191.185L342.412 191.543C343.29 191.756 343.944 192.082 344.374 192.521C344.805 192.955 345.02 193.516 345.02 194.202C345.02 194.764 344.858 195.267 344.534 195.71C344.215 196.153 343.767 196.503 343.192 196.759C342.617 197.014 341.948 197.142 341.185 197.142C340.183 197.142 339.355 196.925 338.698 196.49C338.042 196.055 337.627 195.42 337.452 194.585L338.884 194.227C339.02 194.756 339.278 195.152 339.657 195.416C340.041 195.68 340.541 195.812 341.159 195.812C341.862 195.812 342.421 195.663 342.834 195.365C343.252 195.062 343.46 194.7 343.46 194.278C343.46 193.937 343.341 193.652 343.102 193.422C342.864 193.188 342.497 193.013 342.003 192.898L340.367 192.514C339.468 192.301 338.807 191.971 338.385 191.523C337.968 191.072 337.759 190.507 337.759 189.83C337.759 189.276 337.914 188.786 338.225 188.359C338.541 187.933 338.969 187.599 339.51 187.356C340.056 187.113 340.673 186.991 341.364 186.991C342.335 186.991 343.098 187.205 343.652 187.631C344.21 188.057 344.607 188.619 344.841 189.318Z" fill="#050038"/>
</svg>
