<svg width="360" height="201" viewBox="0 0 360 201" fill="none" xmlns="http://www.w3.org/2000/svg">
<path d="M125.748 94.5405C114.55 94.5405 106.936 101.515 106.936 111.305C106.936 120.519 113.718 126.982 122.868 126.982C124.212 126.982 125.364 126.79 126.452 126.47L114.102 139.971H126.26L137.137 127.174C139.889 123.911 144.624 118.408 144.624 110.985C144.624 101.387 136.945 94.5405 125.748 94.5405ZM125.812 119.175C121.205 119.175 118.005 116.04 118.005 111.433C118.005 106.826 121.269 103.691 125.812 103.691C130.483 103.691 133.618 106.89 133.618 111.433C133.618 115.976 130.483 119.175 125.812 119.175ZM168.489 94.5405C157.291 94.5405 149.677 101.515 149.677 111.305C149.677 120.519 156.459 126.982 165.61 126.982C166.953 126.982 168.105 126.79 169.193 126.47L156.843 139.971H169.001L179.879 127.174C182.63 123.911 187.365 118.408 187.365 110.985C187.365 101.387 179.687 94.5405 168.489 94.5405ZM168.553 119.175C163.946 119.175 160.747 116.04 160.747 111.433C160.747 106.826 164.01 103.691 168.553 103.691C173.224 103.691 176.359 106.89 176.359 111.433C176.359 115.976 173.224 119.175 168.553 119.175ZM205.739 118.664C212.906 118.664 218.281 113.481 218.281 106.634C218.281 99.7235 212.906 94.5405 205.739 94.5405C198.573 94.5405 193.262 99.7235 193.262 106.634C193.262 113.481 198.573 118.664 205.739 118.664ZM201.26 139.971H211.626L244.515 95.1804H234.086L201.26 139.971ZM205.739 110.985C203.308 110.985 201.58 109.194 201.58 106.634C201.58 104.011 203.308 102.219 205.739 102.219C208.235 102.219 209.963 104.011 209.963 106.634C209.963 109.194 208.235 110.985 205.739 110.985ZM239.972 140.611C247.139 140.611 252.514 135.492 252.514 128.582C252.514 121.735 247.139 116.552 239.972 116.552C232.87 116.552 227.495 121.735 227.495 128.582C227.495 135.492 232.87 140.611 239.972 140.611ZM239.972 132.997C237.541 132.997 235.813 131.141 235.813 128.582C235.813 126.022 237.541 124.166 239.972 124.166C242.468 124.166 244.195 126.022 244.195 128.582C244.195 131.141 242.468 132.997 239.972 132.997Z" fill="#050038"/>
<path d="M43.1818 196.173C42.2955 196.173 41.5178 195.962 40.8487 195.54C40.1839 195.119 39.6641 194.528 39.2891 193.77C38.9183 193.011 38.733 192.125 38.733 191.111C38.733 190.088 38.9183 189.195 39.2891 188.433C39.6641 187.67 40.1839 187.077 40.8487 186.656C41.5178 186.234 42.2955 186.023 43.1818 186.023C44.0682 186.023 44.8438 186.234 45.5085 186.656C46.1776 187.077 46.6974 187.67 47.0682 188.433C47.4432 189.195 47.6307 190.088 47.6307 191.111C47.6307 192.125 47.4432 193.011 47.0682 193.77C46.6974 194.528 46.1776 195.119 45.5085 195.54C44.8438 195.962 44.0682 196.173 43.1818 196.173ZM43.1818 194.818C43.8551 194.818 44.4091 194.646 44.8438 194.3C45.2784 193.955 45.6001 193.501 45.8089 192.939C46.0178 192.376 46.1222 191.767 46.1222 191.111C46.1222 190.455 46.0178 189.843 45.8089 189.276C45.6001 188.71 45.2784 188.251 44.8438 187.902C44.4091 187.553 43.8551 187.378 43.1818 187.378C42.5085 187.378 41.9545 187.553 41.5199 187.902C41.0852 188.251 40.7635 188.71 40.5547 189.276C40.3459 189.843 40.2415 190.455 40.2415 191.111C40.2415 191.767 40.3459 192.376 40.5547 192.939C40.7635 193.501 41.0852 193.955 41.5199 194.3C41.9545 194.646 42.5085 194.818 43.1818 194.818ZM54.3056 186.151V187.429H49.013V186.151H54.3056ZM50.5982 195.969V184.795C50.5982 184.233 50.7303 183.764 50.9945 183.389C51.2587 183.014 51.6017 182.733 52.0236 182.545C52.4455 182.358 52.8908 182.264 53.3596 182.264C53.7303 182.264 54.0328 182.294 54.2672 182.354C54.5016 182.413 54.6763 182.469 54.7914 182.52L54.3567 183.824C54.28 183.798 54.1735 183.766 54.0371 183.728C53.905 183.69 53.7303 183.67 53.513 183.67C53.0144 183.67 52.6543 183.796 52.4327 184.048C52.2154 184.299 52.1067 184.668 52.1067 185.153V195.969H50.5982ZM65.7521 186.151V187.429H60.6641V186.151H65.7521ZM62.147 183.798H63.6555V193.156C63.6555 193.582 63.7173 193.902 63.8409 194.115C63.9688 194.324 64.1307 194.464 64.3267 194.537C64.527 194.605 64.7379 194.639 64.9595 194.639C65.1257 194.639 65.2621 194.631 65.3686 194.614C65.4751 194.592 65.5604 194.575 65.6243 194.562L65.9311 195.918C65.8288 195.956 65.6861 195.994 65.5028 196.033C65.3196 196.075 65.0874 196.097 64.8061 196.097C64.38 196.097 63.9624 196.005 63.5533 195.822C63.1484 195.638 62.8118 195.359 62.5433 194.984C62.2791 194.609 62.147 194.136 62.147 193.565V183.798ZM69.7408 190.062V195.969H68.2322V182.878H69.7408V187.685H69.8686C70.0987 187.178 70.4439 186.775 70.9041 186.477C71.3686 186.174 71.9865 186.023 72.7578 186.023C73.4268 186.023 74.0128 186.157 74.5156 186.425C75.0185 186.69 75.4084 187.097 75.6854 187.646C75.9666 188.192 76.1072 188.886 76.1072 189.73V195.969H74.5987V189.832C74.5987 189.053 74.3963 188.45 73.9915 188.023C73.5909 187.593 73.0348 187.378 72.3232 187.378C71.8288 187.378 71.3857 187.482 70.9936 187.691C70.6058 187.9 70.299 188.205 70.0732 188.605C69.8516 189.006 69.7408 189.491 69.7408 190.062ZM82.9835 196.173C82.0375 196.173 81.2214 195.964 80.5353 195.547C79.8535 195.125 79.3272 194.537 78.9565 193.783C78.59 193.024 78.4068 192.142 78.4068 191.136C78.4068 190.131 78.59 189.244 78.9565 188.477C79.3272 187.706 79.8429 187.105 80.5034 186.675C81.1681 186.24 81.9437 186.023 82.8301 186.023C83.3414 186.023 83.8464 186.108 84.345 186.278C84.8436 186.449 85.2974 186.726 85.7065 187.109C86.1156 187.489 86.4416 187.991 86.6845 188.618C86.9274 189.244 87.0488 190.016 87.0488 190.932V191.571H79.4806V190.267H85.5147C85.5147 189.713 85.4039 189.219 85.1824 188.784C84.965 188.349 84.6539 188.006 84.2491 187.755C83.8485 187.504 83.3755 187.378 82.8301 187.378C82.2292 187.378 81.7093 187.527 81.2704 187.825C80.8358 188.119 80.5012 188.503 80.2669 188.976C80.0325 189.449 79.9153 189.956 79.9153 190.497V191.366C79.9153 192.108 80.0431 192.737 80.2988 193.252C80.5588 193.763 80.9189 194.153 81.3791 194.422C81.8393 194.686 82.3741 194.818 82.9835 194.818C83.3798 194.818 83.7377 194.763 84.0574 194.652C84.3812 194.537 84.6603 194.366 84.8947 194.141C85.1291 193.911 85.3102 193.625 85.438 193.284L86.8954 193.693C86.742 194.188 86.4842 194.622 86.122 194.997C85.7598 195.368 85.3123 195.658 84.7797 195.866C84.247 196.071 83.6483 196.173 82.9835 196.173ZM94.6106 195.969V182.878H102.46V184.284H96.1958V188.707H101.872V190.114H96.1958V195.969H94.6106ZM108.238 196.173C107.352 196.173 106.574 195.962 105.905 195.54C105.241 195.119 104.721 194.528 104.346 193.77C103.975 193.011 103.79 192.125 103.79 191.111C103.79 190.088 103.975 189.195 104.346 188.433C104.721 187.67 105.241 187.077 105.905 186.656C106.574 186.234 107.352 186.023 108.238 186.023C109.125 186.023 109.9 186.234 110.565 186.656C111.234 187.077 111.754 187.67 112.125 188.433C112.5 189.195 112.687 190.088 112.687 191.111C112.687 192.125 112.5 193.011 112.125 193.77C111.754 194.528 111.234 195.119 110.565 195.54C109.9 195.962 109.125 196.173 108.238 196.173ZM108.238 194.818C108.912 194.818 109.466 194.646 109.9 194.3C110.335 193.955 110.657 193.501 110.866 192.939C111.074 192.376 111.179 191.767 111.179 191.111C111.179 190.455 111.074 189.843 110.866 189.276C110.657 188.71 110.335 188.251 109.9 187.902C109.466 187.553 108.912 187.378 108.238 187.378C107.565 187.378 107.011 187.553 106.577 187.902C106.142 188.251 105.82 188.71 105.611 189.276C105.403 189.843 105.298 190.455 105.298 191.111C105.298 191.767 105.403 192.376 105.611 192.939C105.82 193.501 106.142 193.955 106.577 194.3C107.011 194.646 107.565 194.818 108.238 194.818ZM114.99 195.969V186.151H116.447V187.634H116.55C116.729 187.148 117.053 186.754 117.521 186.451C117.99 186.148 118.518 185.997 119.107 185.997C119.217 185.997 119.356 185.999 119.522 186.004C119.688 186.008 119.814 186.014 119.899 186.023V187.557C119.848 187.544 119.731 187.525 119.548 187.499C119.369 187.469 119.179 187.455 118.979 187.455C118.501 187.455 118.075 187.555 117.7 187.755C117.33 187.951 117.036 188.224 116.818 188.573C116.605 188.918 116.499 189.312 116.499 189.756V195.969H114.99ZM126.572 186.151V187.429H121.484V186.151H126.572ZM122.967 183.798H124.476V193.156C124.476 193.582 124.538 193.902 124.661 194.115C124.789 194.324 124.951 194.464 125.147 194.537C125.347 194.605 125.558 194.639 125.78 194.639C125.946 194.639 126.082 194.631 126.189 194.614C126.295 194.592 126.381 194.575 126.445 194.562L126.751 195.918C126.649 195.956 126.506 195.994 126.323 196.033C126.14 196.075 125.908 196.097 125.626 196.097C125.2 196.097 124.783 196.005 124.374 195.822C123.969 195.638 123.632 195.359 123.364 194.984C123.099 194.609 122.967 194.136 122.967 193.565V183.798ZM135.029 191.955V186.151H136.538V195.969H135.029V194.307H134.927C134.697 194.805 134.339 195.229 133.853 195.579C133.367 195.924 132.754 196.097 132.012 196.097C131.398 196.097 130.853 195.962 130.376 195.694C129.898 195.421 129.523 195.012 129.251 194.467C128.978 193.917 128.842 193.224 128.842 192.389V186.151H130.35V192.287C130.35 193.003 130.55 193.574 130.951 194C131.356 194.426 131.871 194.639 132.498 194.639C132.873 194.639 133.254 194.543 133.642 194.352C134.034 194.16 134.362 193.866 134.626 193.469C134.895 193.073 135.029 192.568 135.029 191.955ZM140.809 190.062V195.969H139.301V186.151H140.758V187.685H140.886C141.116 187.186 141.465 186.786 141.934 186.483C142.403 186.176 143.008 186.023 143.749 186.023C144.414 186.023 144.996 186.159 145.494 186.432C145.993 186.7 146.381 187.109 146.658 187.659C146.935 188.205 147.073 188.895 147.073 189.73V195.969H145.565V189.832C145.565 189.061 145.365 188.46 144.964 188.03C144.563 187.595 144.014 187.378 143.315 187.378C142.833 187.378 142.403 187.482 142.024 187.691C141.649 187.9 141.352 188.205 141.135 188.605C140.918 189.006 140.809 189.491 140.809 190.062ZM153.946 196.173C153 196.173 152.184 195.964 151.498 195.547C150.816 195.125 150.29 194.537 149.919 193.783C149.553 193.024 149.37 192.142 149.37 191.136C149.37 190.131 149.553 189.244 149.919 188.477C150.29 187.706 150.806 187.105 151.466 186.675C152.131 186.24 152.907 186.023 153.793 186.023C154.304 186.023 154.809 186.108 155.308 186.278C155.806 186.449 156.26 186.726 156.669 187.109C157.078 187.489 157.404 187.991 157.647 188.618C157.89 189.244 158.012 190.016 158.012 190.932V191.571H150.444V190.267H156.478C156.478 189.713 156.367 189.219 156.145 188.784C155.928 188.349 155.617 188.006 155.212 187.755C154.811 187.504 154.338 187.378 153.793 187.378C153.192 187.378 152.672 187.527 152.233 187.825C151.799 188.119 151.464 188.503 151.23 188.976C150.995 189.449 150.878 189.956 150.878 190.497V191.366C150.878 192.108 151.006 192.737 151.262 193.252C151.522 193.763 151.882 194.153 152.342 194.422C152.802 194.686 153.337 194.818 153.946 194.818C154.343 194.818 154.701 194.763 155.02 194.652C155.344 194.537 155.623 194.366 155.858 194.141C156.092 193.911 156.273 193.625 156.401 193.284L157.858 193.693C157.705 194.188 157.447 194.622 157.085 194.997C156.723 195.368 156.275 195.658 155.743 195.866C155.21 196.071 154.611 196.173 153.946 196.173ZM169.946 182.878V195.969H168.36V184.54H168.284L165.088 186.662V185.051L168.36 182.878H169.946ZM177.98 196.148C177.017 196.148 176.197 195.886 175.52 195.362C174.842 194.833 174.324 194.068 173.966 193.067C173.608 192.061 173.429 190.847 173.429 189.423C173.429 188.009 173.608 186.8 173.966 185.799C174.328 184.793 174.848 184.026 175.526 183.498C176.208 182.965 177.026 182.699 177.98 182.699C178.935 182.699 179.751 182.965 180.429 183.498C181.11 184.026 181.63 184.793 181.988 185.799C182.35 186.8 182.532 188.009 182.532 189.423C182.532 190.847 182.353 192.061 181.995 193.067C181.637 194.068 181.119 194.833 180.441 195.362C179.764 195.886 178.944 196.148 177.98 196.148ZM177.98 194.741C178.935 194.741 179.676 194.281 180.205 193.361C180.733 192.44 180.998 191.128 180.998 189.423C180.998 188.29 180.876 187.325 180.633 186.528C180.395 185.731 180.049 185.124 179.598 184.706C179.15 184.288 178.611 184.08 177.98 184.08C177.034 184.08 176.295 184.546 175.762 185.479C175.23 186.408 174.963 187.723 174.963 189.423C174.963 190.557 175.083 191.52 175.321 192.312C175.56 193.105 175.903 193.708 176.35 194.121C176.802 194.535 177.346 194.741 177.98 194.741ZM189.23 196.148C188.267 196.148 187.447 195.886 186.77 195.362C186.092 194.833 185.574 194.068 185.216 193.067C184.858 192.061 184.679 190.847 184.679 189.423C184.679 188.009 184.858 186.8 185.216 185.799C185.578 184.793 186.098 184.026 186.776 183.498C187.458 182.965 188.276 182.699 189.23 182.699C190.185 182.699 191.001 182.965 191.679 183.498C192.36 184.026 192.88 184.793 193.238 185.799C193.6 186.8 193.782 188.009 193.782 189.423C193.782 190.847 193.603 192.061 193.245 193.067C192.887 194.068 192.369 194.833 191.691 195.362C191.014 195.886 190.194 196.148 189.23 196.148ZM189.23 194.741C190.185 194.741 190.926 194.281 191.455 193.361C191.983 192.44 192.248 191.128 192.248 189.423C192.248 188.29 192.126 187.325 191.883 186.528C191.645 185.731 191.299 185.124 190.848 184.706C190.4 184.288 189.861 184.08 189.23 184.08C188.284 184.08 187.545 184.546 187.012 185.479C186.48 186.408 186.213 187.723 186.213 189.423C186.213 190.557 186.333 191.52 186.571 192.312C186.81 193.105 187.153 193.708 187.6 194.121C188.052 194.535 188.596 194.741 189.23 194.741ZM204.188 196.199C203.566 196.199 203.001 196.082 202.494 195.847C201.987 195.609 201.584 195.266 201.286 194.818C200.988 194.366 200.838 193.821 200.838 193.182C200.838 192.619 200.949 192.163 201.171 191.814C201.392 191.46 201.689 191.183 202.059 190.983C202.43 190.783 202.839 190.634 203.287 190.536C203.738 190.433 204.192 190.352 204.648 190.293C205.245 190.216 205.728 190.158 206.099 190.12C206.474 190.077 206.747 190.007 206.917 189.909C207.092 189.811 207.179 189.641 207.179 189.398V189.347C207.179 188.716 207.007 188.226 206.662 187.876C206.321 187.527 205.803 187.352 205.108 187.352C204.388 187.352 203.824 187.51 203.414 187.825C203.005 188.141 202.718 188.477 202.551 188.835L201.12 188.324C201.375 187.727 201.716 187.263 202.142 186.93C202.573 186.594 203.042 186.359 203.549 186.227C204.06 186.091 204.563 186.023 205.057 186.023C205.373 186.023 205.735 186.061 206.144 186.138C206.557 186.21 206.956 186.362 207.339 186.592C207.727 186.822 208.049 187.169 208.304 187.634C208.56 188.098 208.688 188.72 208.688 189.5V195.969H207.179V194.639H207.103C207 194.852 206.83 195.08 206.591 195.323C206.353 195.566 206.035 195.773 205.639 195.943C205.243 196.114 204.759 196.199 204.188 196.199ZM204.418 194.844C205.015 194.844 205.517 194.727 205.926 194.492C206.34 194.258 206.651 193.955 206.86 193.585C207.073 193.214 207.179 192.824 207.179 192.415V191.034C207.115 191.111 206.975 191.181 206.757 191.245C206.544 191.305 206.297 191.358 206.016 191.405C205.739 191.447 205.468 191.486 205.204 191.52C204.944 191.55 204.733 191.575 204.571 191.597C204.179 191.648 203.813 191.731 203.472 191.846C203.135 191.957 202.863 192.125 202.654 192.351C202.449 192.572 202.347 192.875 202.347 193.259C202.347 193.783 202.541 194.179 202.929 194.447C203.321 194.712 203.817 194.844 204.418 194.844ZM211.441 195.969V186.151H212.899V187.634H213.001C213.18 187.148 213.504 186.754 213.972 186.451C214.441 186.148 214.97 185.997 215.558 185.997C215.669 185.997 215.807 185.999 215.973 186.004C216.139 186.008 216.265 186.014 216.35 186.023V187.557C216.299 187.544 216.182 187.525 215.999 187.499C215.82 187.469 215.63 187.455 215.43 187.455C214.953 187.455 214.526 187.555 214.151 187.755C213.781 187.951 213.487 188.224 213.269 188.573C213.056 188.918 212.95 189.312 212.95 189.756V195.969H211.441ZM221.956 196.173C221.01 196.173 220.194 195.964 219.508 195.547C218.826 195.125 218.3 194.537 217.929 193.783C217.563 193.024 217.379 192.142 217.379 191.136C217.379 190.131 217.563 189.244 217.929 188.477C218.3 187.706 218.816 187.105 219.476 186.675C220.141 186.24 220.916 186.023 221.803 186.023C222.314 186.023 222.819 186.108 223.318 186.278C223.816 186.449 224.27 186.726 224.679 187.109C225.088 187.489 225.414 187.991 225.657 188.618C225.9 189.244 226.021 190.016 226.021 190.932V191.571H218.453V190.267H224.487C224.487 189.713 224.377 189.219 224.155 188.784C223.938 188.349 223.627 188.006 223.222 187.755C222.821 187.504 222.348 187.378 221.803 187.378C221.202 187.378 220.682 187.527 220.243 187.825C219.808 188.119 219.474 188.503 219.24 188.976C219.005 189.449 218.888 189.956 218.888 190.497V191.366C218.888 192.108 219.016 192.737 219.271 193.252C219.531 193.763 219.892 194.153 220.352 194.422C220.812 194.686 221.347 194.818 221.956 194.818C222.352 194.818 222.71 194.763 223.03 194.652C223.354 194.537 223.633 194.366 223.867 194.141C224.102 193.911 224.283 193.625 224.411 193.284L225.868 193.693C225.715 194.188 225.457 194.622 225.095 194.997C224.732 195.368 224.285 195.658 223.752 195.866C223.22 196.071 222.621 196.173 221.956 196.173ZM237.367 196.173C236.447 196.173 235.654 195.956 234.99 195.521C234.325 195.087 233.813 194.488 233.455 193.725C233.097 192.962 232.919 192.091 232.919 191.111C232.919 190.114 233.102 189.234 233.468 188.471C233.839 187.704 234.355 187.105 235.015 186.675C235.68 186.24 236.455 186.023 237.342 186.023C238.032 186.023 238.654 186.151 239.208 186.406C239.762 186.662 240.216 187.02 240.57 187.48C240.923 187.94 241.143 188.477 241.228 189.091H239.72C239.605 188.643 239.349 188.247 238.953 187.902C238.561 187.553 238.032 187.378 237.367 187.378C236.779 187.378 236.264 187.531 235.82 187.838C235.382 188.141 235.039 188.569 234.791 189.123C234.548 189.673 234.427 190.318 234.427 191.06C234.427 191.818 234.546 192.479 234.785 193.041C235.028 193.604 235.369 194.04 235.808 194.352C236.251 194.663 236.771 194.818 237.367 194.818C237.759 194.818 238.115 194.75 238.435 194.614C238.754 194.477 239.025 194.281 239.247 194.026C239.468 193.77 239.626 193.463 239.72 193.105H241.228C241.143 193.685 240.932 194.207 240.595 194.671C240.263 195.131 239.822 195.498 239.272 195.771C238.727 196.039 238.092 196.173 237.367 196.173ZM249.621 191.955V186.151H251.129V195.969H249.621V194.307H249.519C249.289 194.805 248.931 195.229 248.445 195.579C247.959 195.924 247.345 196.097 246.604 196.097C245.99 196.097 245.445 195.962 244.968 195.694C244.49 195.421 244.115 195.012 243.843 194.467C243.57 193.917 243.433 193.224 243.433 192.389V186.151H244.942V192.287C244.942 193.003 245.142 193.574 245.543 194C245.948 194.426 246.463 194.639 247.09 194.639C247.465 194.639 247.846 194.543 248.234 194.352C248.626 194.16 248.954 193.866 249.218 193.469C249.487 193.073 249.621 192.568 249.621 191.955ZM260.847 188.349L259.492 188.733C259.407 188.507 259.281 188.288 259.115 188.075C258.953 187.857 258.731 187.678 258.45 187.538C258.169 187.397 257.809 187.327 257.37 187.327C256.769 187.327 256.268 187.465 255.868 187.742C255.471 188.015 255.273 188.362 255.273 188.784C255.273 189.159 255.409 189.455 255.682 189.673C255.955 189.89 256.381 190.071 256.961 190.216L258.418 190.574C259.296 190.787 259.95 191.113 260.38 191.552C260.811 191.987 261.026 192.547 261.026 193.233C261.026 193.795 260.864 194.298 260.54 194.741C260.221 195.185 259.773 195.534 259.198 195.79C258.623 196.045 257.953 196.173 257.191 196.173C256.189 196.173 255.36 195.956 254.704 195.521C254.048 195.087 253.632 194.452 253.458 193.616L254.89 193.259C255.026 193.787 255.284 194.183 255.663 194.447C256.047 194.712 256.547 194.844 257.165 194.844C257.868 194.844 258.426 194.695 258.84 194.396C259.257 194.094 259.466 193.732 259.466 193.31C259.466 192.969 259.347 192.683 259.108 192.453C258.87 192.219 258.503 192.044 258.009 191.929L256.373 191.545C255.473 191.332 254.813 191.002 254.391 190.555C253.973 190.103 253.765 189.538 253.765 188.861C253.765 188.307 253.92 187.817 254.231 187.391C254.547 186.964 254.975 186.63 255.516 186.387C256.061 186.144 256.679 186.023 257.37 186.023C258.341 186.023 259.104 186.236 259.658 186.662C260.216 187.088 260.613 187.651 260.847 188.349ZM267.567 186.151V187.429H262.479V186.151H267.567ZM263.961 183.798H265.47V193.156C265.47 193.582 265.532 193.902 265.655 194.115C265.783 194.324 265.945 194.464 266.141 194.537C266.341 194.605 266.552 194.639 266.774 194.639C266.94 194.639 267.077 194.631 267.183 194.614C267.29 194.592 267.375 194.575 267.439 194.562L267.746 195.918C267.643 195.956 267.501 195.994 267.317 196.033C267.134 196.075 266.902 196.097 266.621 196.097C266.194 196.097 265.777 196.005 265.368 195.822C264.963 195.638 264.626 195.359 264.358 194.984C264.094 194.609 263.961 194.136 263.961 193.565V183.798ZM273.719 196.173C272.833 196.173 272.055 195.962 271.386 195.54C270.721 195.119 270.201 194.528 269.826 193.77C269.455 193.011 269.27 192.125 269.27 191.111C269.27 190.088 269.455 189.195 269.826 188.433C270.201 187.67 270.721 187.077 271.386 186.656C272.055 186.234 272.833 186.023 273.719 186.023C274.605 186.023 275.381 186.234 276.046 186.656C276.715 187.077 277.235 187.67 277.605 188.433C277.98 189.195 278.168 190.088 278.168 191.111C278.168 192.125 277.98 193.011 277.605 193.77C277.235 194.528 276.715 195.119 276.046 195.54C275.381 195.962 274.605 196.173 273.719 196.173ZM273.719 194.818C274.392 194.818 274.946 194.646 275.381 194.3C275.816 193.955 276.137 193.501 276.346 192.939C276.555 192.376 276.659 191.767 276.659 191.111C276.659 190.455 276.555 189.843 276.346 189.276C276.137 188.71 275.816 188.251 275.381 187.902C274.946 187.553 274.392 187.378 273.719 187.378C273.046 187.378 272.492 187.553 272.057 187.902C271.622 188.251 271.301 188.71 271.092 189.276C270.883 189.843 270.779 190.455 270.779 191.111C270.779 191.767 270.883 192.376 271.092 192.939C271.301 193.501 271.622 193.955 272.057 194.3C272.492 194.646 273.046 194.818 273.719 194.818ZM280.471 195.969V186.151H281.928V187.685H282.056C282.26 187.161 282.591 186.754 283.047 186.464C283.502 186.17 284.05 186.023 284.689 186.023C285.337 186.023 285.876 186.17 286.306 186.464C286.741 186.754 287.08 187.161 287.323 187.685H287.425C287.676 187.178 288.054 186.775 288.556 186.477C289.059 186.174 289.662 186.023 290.365 186.023C291.243 186.023 291.961 186.298 292.52 186.847C293.078 187.393 293.357 188.243 293.357 189.398V195.969H291.848V189.398C291.848 188.673 291.65 188.156 291.254 187.844C290.858 187.533 290.391 187.378 289.854 187.378C289.164 187.378 288.629 187.587 288.25 188.004C287.87 188.418 287.681 188.942 287.681 189.577V195.969H286.147V189.244C286.147 188.686 285.966 188.237 285.603 187.896C285.241 187.55 284.775 187.378 284.203 187.378C283.811 187.378 283.445 187.482 283.104 187.691C282.767 187.9 282.495 188.19 282.286 188.56C282.081 188.927 281.979 189.351 281.979 189.832V195.969H280.471ZM300.232 196.173C299.286 196.173 298.469 195.964 297.783 195.547C297.102 195.125 296.575 194.537 296.205 193.783C295.838 193.024 295.655 192.142 295.655 191.136C295.655 190.131 295.838 189.244 296.205 188.477C296.575 187.706 297.091 187.105 297.751 186.675C298.416 186.24 299.192 186.023 300.078 186.023C300.589 186.023 301.094 186.108 301.593 186.278C302.092 186.449 302.545 186.726 302.955 187.109C303.364 187.489 303.69 187.991 303.933 188.618C304.175 189.244 304.297 190.016 304.297 190.932V191.571H296.729V190.267H302.763C302.763 189.713 302.652 189.219 302.43 188.784C302.213 188.349 301.902 188.006 301.497 187.755C301.097 187.504 300.624 187.378 300.078 187.378C299.477 187.378 298.957 187.527 298.518 187.825C298.084 188.119 297.749 188.503 297.515 188.976C297.281 189.449 297.163 189.956 297.163 190.497V191.366C297.163 192.108 297.291 192.737 297.547 193.252C297.807 193.763 298.167 194.153 298.627 194.422C299.087 194.686 299.622 194.818 300.232 194.818C300.628 194.818 300.986 194.763 301.305 194.652C301.629 194.537 301.908 194.366 302.143 194.141C302.377 193.911 302.558 193.625 302.686 193.284L304.143 193.693C303.99 194.188 303.732 194.622 303.37 194.997C303.008 195.368 302.56 195.658 302.028 195.866C301.495 196.071 300.896 196.173 300.232 196.173ZM306.592 195.969V186.151H308.049V187.634H308.151C308.33 187.148 308.654 186.754 309.123 186.451C309.592 186.148 310.12 185.997 310.708 185.997C310.819 185.997 310.957 185.999 311.124 186.004C311.29 186.008 311.415 186.014 311.501 186.023V187.557C311.45 187.544 311.332 187.525 311.149 187.499C310.97 187.469 310.781 187.455 310.58 187.455C310.103 187.455 309.677 187.555 309.302 187.755C308.931 187.951 308.637 188.224 308.42 188.573C308.207 188.918 308.1 189.312 308.1 189.756V195.969H306.592ZM320.243 188.349L318.888 188.733C318.803 188.507 318.677 188.288 318.511 188.075C318.349 187.857 318.128 187.678 317.846 187.538C317.565 187.397 317.205 187.327 316.766 187.327C316.165 187.327 315.665 187.465 315.264 187.742C314.868 188.015 314.67 188.362 314.67 188.784C314.67 189.159 314.806 189.455 315.079 189.673C315.351 189.89 315.778 190.071 316.357 190.216L317.814 190.574C318.692 190.787 319.346 191.113 319.777 191.552C320.207 191.987 320.422 192.547 320.422 193.233C320.422 193.795 320.26 194.298 319.937 194.741C319.617 195.185 319.17 195.534 318.594 195.79C318.019 196.045 317.35 196.173 316.587 196.173C315.586 196.173 314.757 195.956 314.101 195.521C313.444 195.087 313.029 194.452 312.854 193.616L314.286 193.259C314.422 193.787 314.68 194.183 315.059 194.447C315.443 194.712 315.944 194.844 316.562 194.844C317.265 194.844 317.823 194.695 318.236 194.396C318.654 194.094 318.863 193.732 318.863 193.31C318.863 192.969 318.743 192.683 318.505 192.453C318.266 192.219 317.9 192.044 317.405 191.929L315.769 191.545C314.87 191.332 314.209 191.002 313.787 190.555C313.37 190.103 313.161 189.538 313.161 188.861C313.161 188.307 313.317 187.817 313.628 187.391C313.943 186.964 314.371 186.63 314.912 186.387C315.458 186.144 316.076 186.023 316.766 186.023C317.738 186.023 318.501 186.236 319.055 186.662C319.613 187.088 320.009 187.651 320.243 188.349Z" fill="#050038"/>
</svg>
