<svg width="360" height="202" viewBox="0 0 360 202" fill="none" xmlns="http://www.w3.org/2000/svg">
<path d="M130.936 112.329H118.971V98.38H108.541V112.329H100.031V95.1807H89.6011V120.52H108.349V139.972H118.971V120.52H130.936V112.329ZM155.762 108.874C151.731 108.874 148.404 110.026 145.844 112.137L146.228 104.139H168.88V95.1807H137.782L137.078 120.2H147.316C148.788 118.344 150.899 117.448 153.459 117.448C157.874 117.448 160.945 120.136 160.945 124.487C160.945 128.71 158.002 131.589 153.459 131.589C148.916 131.589 145.844 128.774 145.652 124.039H134.711C134.583 134.021 142.197 140.611 153.267 140.611C164.401 140.611 171.887 133.957 171.887 124.231C171.887 114.953 165.168 108.874 155.762 108.874ZM179.733 139.972H189.907V105.93L190.291 105.866L199.633 136.132H208.912L218.318 105.866L218.702 105.93V139.972H228.876V95.1807H212.751L204.432 125.127H204.177L195.858 95.1807H179.733V139.972ZM270.954 113.801H258.668V101.643H249.902V113.801H237.681V122.695H249.902V134.853H258.668V122.695H270.954V113.801Z" fill="#050038"/>
<path d="M89.3211 192.923V187.119H90.8296V196.938H89.3211V195.276H89.2188C88.9887 195.774 88.6308 196.198 88.145 196.548C87.6592 196.893 87.0455 197.065 86.3041 197.065C85.6904 197.065 85.145 196.931 84.6677 196.663C84.1904 196.39 83.8154 195.981 83.5427 195.435C83.27 194.886 83.1336 194.193 83.1336 193.358V187.119H84.6421V193.256C84.6421 193.972 84.8424 194.543 85.243 194.969C85.6478 195.395 86.1634 195.608 86.7899 195.608C87.1649 195.608 87.5463 195.512 87.934 195.32C88.3261 195.129 88.6542 194.835 88.9184 194.438C89.1869 194.042 89.3211 193.537 89.3211 192.923ZM100.547 189.318L99.192 189.702C99.1068 189.476 98.9811 189.256 98.8149 189.043C98.653 188.826 98.4314 188.647 98.1501 188.506C97.8689 188.366 97.5088 188.295 97.0699 188.295C96.469 188.295 95.9683 188.434 95.5677 188.711C95.1714 188.984 94.9733 189.331 94.9733 189.753C94.9733 190.128 95.1096 190.424 95.3824 190.641C95.6551 190.859 96.0812 191.04 96.6608 191.185L98.1182 191.543C98.996 191.756 99.6501 192.082 100.081 192.521C100.511 192.955 100.726 193.516 100.726 194.202C100.726 194.764 100.564 195.267 100.24 195.71C99.9207 196.153 99.4733 196.503 98.898 196.759C98.3227 197.014 97.6537 197.142 96.8909 197.142C95.8895 197.142 95.0606 196.925 94.4044 196.49C93.7481 196.055 93.3327 195.42 93.1579 194.585L94.5898 194.227C94.7261 194.756 94.9839 195.152 95.3632 195.416C95.7467 195.68 96.2474 195.812 96.8653 195.812C97.5684 195.812 98.1267 195.663 98.54 195.365C98.9577 195.062 99.1665 194.7 99.1665 194.278C99.1665 193.937 99.0471 193.652 98.8085 193.422C98.5699 193.188 98.2034 193.013 97.7091 192.898L96.0727 192.514C95.1736 192.301 94.5131 191.971 94.0912 191.523C93.6736 191.072 93.4648 190.507 93.4648 189.83C93.4648 189.276 93.6203 188.786 93.9314 188.359C94.2467 187.933 94.675 187.599 95.2162 187.356C95.7616 187.113 96.3795 186.991 97.0699 186.991C98.0415 186.991 98.8042 187.205 99.3582 187.631C99.9165 188.057 100.313 188.619 100.547 189.318ZM107.113 197.142C106.167 197.142 105.351 196.933 104.665 196.516C103.983 196.094 103.457 195.506 103.086 194.751C102.72 193.993 102.537 193.111 102.537 192.105C102.537 191.099 102.72 190.213 103.086 189.446C103.457 188.675 103.973 188.074 104.633 187.643C105.298 187.209 106.074 186.991 106.96 186.991C107.471 186.991 107.976 187.077 108.475 187.247C108.973 187.418 109.427 187.695 109.836 188.078C110.245 188.457 110.571 188.96 110.814 189.587C111.057 190.213 111.179 190.984 111.179 191.901V192.54H103.611V191.236H109.645C109.645 190.682 109.534 190.187 109.312 189.753C109.095 189.318 108.784 188.975 108.379 188.724C107.978 188.472 107.505 188.347 106.96 188.347C106.359 188.347 105.839 188.496 105.4 188.794C104.966 189.088 104.631 189.472 104.397 189.945C104.162 190.418 104.045 190.925 104.045 191.466V192.335C104.045 193.077 104.173 193.705 104.429 194.221C104.689 194.732 105.049 195.122 105.509 195.391C105.969 195.655 106.504 195.787 107.113 195.787C107.51 195.787 107.868 195.732 108.187 195.621C108.511 195.506 108.79 195.335 109.025 195.109C109.259 194.879 109.44 194.594 109.568 194.253L111.025 194.662C110.872 195.156 110.614 195.591 110.252 195.966C109.89 196.337 109.442 196.626 108.91 196.835C108.377 197.04 107.778 197.142 107.113 197.142ZM113.473 196.938V187.119H114.931V188.602H115.033C115.212 188.116 115.536 187.722 116.005 187.42C116.473 187.117 117.002 186.966 117.59 186.966C117.701 186.966 117.839 186.968 118.005 186.972C118.172 186.977 118.297 186.983 118.383 186.991V188.526C118.331 188.513 118.214 188.494 118.031 188.468C117.852 188.438 117.662 188.423 117.462 188.423C116.985 188.423 116.559 188.523 116.184 188.724C115.813 188.92 115.519 189.192 115.302 189.542C115.089 189.887 114.982 190.281 114.982 190.724V196.938H113.473ZM127.125 189.318L125.77 189.702C125.685 189.476 125.559 189.256 125.393 189.043C125.231 188.826 125.009 188.647 124.728 188.506C124.447 188.366 124.087 188.295 123.648 188.295C123.047 188.295 122.546 188.434 122.146 188.711C121.75 188.984 121.551 189.331 121.551 189.753C121.551 190.128 121.688 190.424 121.96 190.641C122.233 190.859 122.659 191.04 123.239 191.185L124.696 191.543C125.574 191.756 126.228 192.082 126.659 192.521C127.089 192.955 127.304 193.516 127.304 194.202C127.304 194.764 127.142 195.267 126.818 195.71C126.499 196.153 126.051 196.503 125.476 196.759C124.901 197.014 124.232 197.142 123.469 197.142C122.468 197.142 121.639 196.925 120.983 196.49C120.326 196.055 119.911 195.42 119.736 194.585L121.168 194.227C121.304 194.756 121.562 195.152 121.941 195.416C122.325 195.68 122.826 195.812 123.443 195.812C124.147 195.812 124.705 195.663 125.118 195.365C125.536 195.062 125.745 194.7 125.745 194.278C125.745 193.937 125.625 193.652 125.387 193.422C125.148 193.188 124.782 193.013 124.287 192.898L122.651 192.514C121.752 192.301 121.091 191.971 120.669 191.523C120.252 191.072 120.043 190.507 120.043 189.83C120.043 189.276 120.198 188.786 120.509 188.359C120.825 187.933 121.253 187.599 121.794 187.356C122.34 187.113 122.958 186.991 123.648 186.991C124.62 186.991 125.382 187.205 125.936 187.631C126.495 188.057 126.891 188.619 127.125 189.318ZM137.527 197.168C136.905 197.168 136.34 197.05 135.833 196.816C135.326 196.577 134.923 196.234 134.625 195.787C134.326 195.335 134.177 194.79 134.177 194.151C134.177 193.588 134.288 193.132 134.51 192.783C134.731 192.429 135.027 192.152 135.398 191.952C135.769 191.751 136.178 191.602 136.625 191.504C137.077 191.402 137.531 191.321 137.987 191.261C138.584 191.185 139.067 191.127 139.438 191.089C139.813 191.046 140.086 190.976 140.256 190.878C140.431 190.78 140.518 190.609 140.518 190.366V190.315C140.518 189.685 140.346 189.195 140 188.845C139.66 188.496 139.142 188.321 138.447 188.321C137.727 188.321 137.162 188.479 136.753 188.794C136.344 189.109 136.057 189.446 135.89 189.804L134.459 189.293C134.714 188.696 135.055 188.232 135.481 187.899C135.912 187.562 136.38 187.328 136.888 187.196C137.399 187.06 137.902 186.991 138.396 186.991C138.711 186.991 139.074 187.03 139.483 187.107C139.896 187.179 140.294 187.33 140.678 187.56C141.066 187.79 141.388 188.138 141.643 188.602C141.899 189.067 142.027 189.689 142.027 190.469V196.938H140.518V195.608H140.441C140.339 195.821 140.169 196.049 139.93 196.292C139.691 196.535 139.374 196.741 138.978 196.912C138.581 197.082 138.098 197.168 137.527 197.168ZM137.757 195.812C138.353 195.812 138.856 195.695 139.265 195.461C139.679 195.227 139.99 194.924 140.199 194.553C140.412 194.183 140.518 193.793 140.518 193.384V192.003C140.454 192.08 140.314 192.15 140.096 192.214C139.883 192.273 139.636 192.327 139.355 192.374C139.078 192.416 138.807 192.455 138.543 192.489C138.283 192.518 138.072 192.544 137.91 192.565C137.518 192.616 137.152 192.7 136.811 192.815C136.474 192.925 136.201 193.094 135.993 193.32C135.788 193.541 135.686 193.844 135.686 194.227C135.686 194.751 135.88 195.148 136.267 195.416C136.66 195.68 137.156 195.812 137.757 195.812ZM144.78 196.938V187.119H146.237V188.602H146.34C146.519 188.116 146.843 187.722 147.311 187.42C147.78 187.117 148.309 186.966 148.897 186.966C149.007 186.966 149.146 186.968 149.312 186.972C149.478 186.977 149.604 186.983 149.689 186.991V188.526C149.638 188.513 149.521 188.494 149.338 188.468C149.159 188.438 148.969 188.423 148.769 188.423C148.291 188.423 147.865 188.523 147.49 188.724C147.12 188.92 146.826 189.192 146.608 189.542C146.395 189.887 146.289 190.281 146.289 190.724V196.938H144.78ZM155.167 197.142C154.281 197.142 153.503 196.931 152.834 196.509C152.169 196.087 151.649 195.497 151.274 194.739C150.904 193.98 150.718 193.094 150.718 192.08C150.718 191.057 150.904 190.164 151.274 189.401C151.649 188.638 152.169 188.046 152.834 187.624C153.503 187.202 154.281 186.991 155.167 186.991C156.054 186.991 156.829 187.202 157.494 187.624C158.163 188.046 158.683 188.638 159.054 189.401C159.429 190.164 159.616 191.057 159.616 192.08C159.616 193.094 159.429 193.98 159.054 194.739C158.683 195.497 158.163 196.087 157.494 196.509C156.829 196.931 156.054 197.142 155.167 197.142ZM155.167 195.787C155.84 195.787 156.394 195.614 156.829 195.269C157.264 194.924 157.585 194.47 157.794 193.908C158.003 193.345 158.108 192.736 158.108 192.08C158.108 191.423 158.003 190.812 157.794 190.245C157.585 189.678 157.264 189.22 156.829 188.871C156.394 188.521 155.84 188.347 155.167 188.347C154.494 188.347 153.94 188.521 153.505 188.871C153.071 189.22 152.749 189.678 152.54 190.245C152.331 190.812 152.227 191.423 152.227 192.08C152.227 192.736 152.331 193.345 152.54 193.908C152.749 194.47 153.071 194.924 153.505 195.269C153.94 195.614 154.494 195.787 155.167 195.787ZM168.106 192.923V187.119H169.615V196.938H168.106V195.276H168.004C167.774 195.774 167.416 196.198 166.93 196.548C166.444 196.893 165.831 197.065 165.089 197.065C164.476 197.065 163.93 196.931 163.453 196.663C162.976 196.39 162.601 195.981 162.328 195.435C162.055 194.886 161.919 194.193 161.919 193.358V187.119H163.427V193.256C163.427 193.972 163.628 194.543 164.028 194.969C164.433 195.395 164.949 195.608 165.575 195.608C165.95 195.608 166.331 195.512 166.719 195.32C167.111 195.129 167.439 194.835 167.704 194.438C167.972 194.042 168.106 193.537 168.106 192.923ZM173.886 191.031V196.938H172.378V187.119H173.835V188.653H173.963C174.193 188.155 174.543 187.754 175.011 187.452C175.48 187.145 176.085 186.991 176.827 186.991C177.491 186.991 178.073 187.128 178.572 187.401C179.07 187.669 179.458 188.078 179.735 188.628C180.012 189.173 180.15 189.864 180.15 190.699V196.938H178.642V190.801C178.642 190.03 178.442 189.429 178.041 188.999C177.641 188.564 177.091 188.347 176.392 188.347C175.91 188.347 175.48 188.451 175.101 188.66C174.726 188.869 174.43 189.173 174.212 189.574C173.995 189.974 173.886 190.46 173.886 191.031ZM186.614 197.142C185.796 197.142 185.074 196.935 184.448 196.522C183.821 196.104 183.331 195.516 182.977 194.758C182.624 193.995 182.447 193.094 182.447 192.054C182.447 191.023 182.624 190.128 182.977 189.369C183.331 188.611 183.823 188.025 184.454 187.612C185.085 187.198 185.813 186.991 186.64 186.991C187.279 186.991 187.784 187.098 188.155 187.311C188.53 187.52 188.815 187.759 189.011 188.027C189.212 188.291 189.367 188.509 189.478 188.679H189.606V183.847H191.114V196.938H189.657V195.429H189.478C189.367 195.608 189.21 195.834 189.005 196.107C188.801 196.375 188.509 196.616 188.129 196.829C187.75 197.038 187.245 197.142 186.614 197.142ZM186.819 195.787C187.424 195.787 187.935 195.629 188.353 195.314C188.771 194.994 189.088 194.553 189.305 193.991C189.523 193.424 189.631 192.77 189.631 192.028C189.631 191.295 189.525 190.654 189.312 190.104C189.099 189.55 188.783 189.12 188.366 188.813C187.948 188.502 187.433 188.347 186.819 188.347C186.18 188.347 185.647 188.511 185.221 188.839C184.799 189.163 184.482 189.604 184.269 190.162C184.06 190.716 183.955 191.338 183.955 192.028C183.955 192.727 184.062 193.362 184.275 193.933C184.492 194.5 184.812 194.952 185.234 195.288C185.66 195.621 186.188 195.787 186.819 195.787ZM203.419 187.119V188.398H198.331V187.119H203.419ZM199.814 184.767H201.323V194.125C201.323 194.551 201.384 194.871 201.508 195.084C201.636 195.293 201.798 195.433 201.994 195.506C202.194 195.574 202.405 195.608 202.627 195.608C202.793 195.608 202.929 195.599 203.036 195.582C203.142 195.561 203.227 195.544 203.291 195.531L203.598 196.886C203.496 196.925 203.353 196.963 203.17 197.001C202.987 197.044 202.754 197.065 202.473 197.065C202.047 197.065 201.629 196.974 201.22 196.79C200.815 196.607 200.479 196.328 200.21 195.953C199.946 195.578 199.814 195.105 199.814 194.534V184.767ZM207.408 191.031V196.938H205.899V183.847H207.408V188.653H207.536C207.766 188.146 208.111 187.744 208.571 187.445C209.036 187.143 209.653 186.991 210.425 186.991C211.094 186.991 211.68 187.126 212.183 187.394C212.685 187.658 213.075 188.065 213.352 188.615C213.634 189.161 213.774 189.855 213.774 190.699V196.938H212.266V190.801C212.266 190.021 212.063 189.418 211.658 188.992C211.258 188.562 210.702 188.347 209.99 188.347C209.496 188.347 209.053 188.451 208.661 188.66C208.273 188.869 207.966 189.173 207.74 189.574C207.519 189.974 207.408 190.46 207.408 191.031ZM220.65 197.142C219.704 197.142 218.888 196.933 218.202 196.516C217.521 196.094 216.994 195.506 216.623 194.751C216.257 193.993 216.074 193.111 216.074 192.105C216.074 191.099 216.257 190.213 216.623 189.446C216.994 188.675 217.51 188.074 218.17 187.643C218.835 187.209 219.611 186.991 220.497 186.991C221.008 186.991 221.513 187.077 222.012 187.247C222.511 187.418 222.964 187.695 223.373 188.078C223.783 188.457 224.109 188.96 224.351 189.587C224.594 190.213 224.716 190.984 224.716 191.901V192.54H217.148V191.236H223.182C223.182 190.682 223.071 190.187 222.849 189.753C222.632 189.318 222.321 188.975 221.916 188.724C221.516 188.472 221.043 188.347 220.497 188.347C219.896 188.347 219.376 188.496 218.937 188.794C218.503 189.088 218.168 189.472 217.934 189.945C217.699 190.418 217.582 190.925 217.582 191.466V192.335C217.582 193.077 217.71 193.705 217.966 194.221C218.226 194.732 218.586 195.122 219.046 195.391C219.506 195.655 220.041 195.787 220.65 195.787C221.047 195.787 221.405 195.732 221.724 195.621C222.048 195.506 222.327 195.335 222.562 195.109C222.796 194.879 222.977 194.594 223.105 194.253L224.562 194.662C224.409 195.156 224.151 195.591 223.789 195.966C223.427 196.337 222.979 196.626 222.447 196.835C221.914 197.04 221.315 197.142 220.65 197.142ZM234.297 196.938L231.306 187.119H232.891L235.013 194.636H235.116L237.212 187.119H238.823L240.894 194.611H240.996L243.119 187.119H244.704L241.712 196.938H240.229L238.082 189.395H237.928L235.78 196.938H234.297ZM250.353 197.142C249.466 197.142 248.689 196.931 248.02 196.509C247.355 196.087 246.835 195.497 246.46 194.739C246.089 193.98 245.904 193.094 245.904 192.08C245.904 191.057 246.089 190.164 246.46 189.401C246.835 188.638 247.355 188.046 248.02 187.624C248.689 187.202 249.466 186.991 250.353 186.991C251.239 186.991 252.015 187.202 252.679 187.624C253.348 188.046 253.868 188.638 254.239 189.401C254.614 190.164 254.802 191.057 254.802 192.08C254.802 193.094 254.614 193.98 254.239 194.739C253.868 195.497 253.348 196.087 252.679 196.509C252.015 196.931 251.239 197.142 250.353 197.142ZM250.353 195.787C251.026 195.787 251.58 195.614 252.015 195.269C252.449 194.924 252.771 194.47 252.98 193.908C253.189 193.345 253.293 192.736 253.293 192.08C253.293 191.423 253.189 190.812 252.98 190.245C252.771 189.678 252.449 189.22 252.015 188.871C251.58 188.521 251.026 188.347 250.353 188.347C249.679 188.347 249.125 188.521 248.691 188.871C248.256 189.22 247.934 189.678 247.726 190.245C247.517 190.812 247.412 191.423 247.412 192.08C247.412 192.736 247.517 193.345 247.726 193.908C247.934 194.47 248.256 194.924 248.691 195.269C249.125 195.614 249.679 195.787 250.353 195.787ZM257.104 196.938V187.119H258.562V188.602H258.664C258.843 188.116 259.167 187.722 259.636 187.42C260.104 187.117 260.633 186.966 261.221 186.966C261.332 186.966 261.47 186.968 261.636 186.972C261.802 186.977 261.928 186.983 262.013 186.991V188.526C261.962 188.513 261.845 188.494 261.662 188.468C261.483 188.438 261.293 188.423 261.093 188.423C260.616 188.423 260.19 188.523 259.815 188.724C259.444 188.92 259.15 189.192 258.932 189.542C258.719 189.887 258.613 190.281 258.613 190.724V196.938H257.104ZM265.31 183.847V196.938H263.802V183.847H265.31ZM271.78 197.142C270.962 197.142 270.24 196.935 269.614 196.522C268.987 196.104 268.497 195.516 268.143 194.758C267.79 193.995 267.613 193.094 267.613 192.054C267.613 191.023 267.79 190.128 268.143 189.369C268.497 188.611 268.989 188.025 269.62 187.612C270.251 187.198 270.979 186.991 271.806 186.991C272.445 186.991 272.95 187.098 273.321 187.311C273.696 187.52 273.981 187.759 274.177 188.027C274.378 188.291 274.533 188.509 274.644 188.679H274.772V183.847H276.28V196.938H274.823V195.429H274.644C274.533 195.608 274.376 195.834 274.171 196.107C273.967 196.375 273.675 196.616 273.295 196.829C272.916 197.038 272.411 197.142 271.78 197.142ZM271.985 195.787C272.59 195.787 273.101 195.629 273.519 195.314C273.937 194.994 274.254 194.553 274.472 193.991C274.689 193.424 274.797 192.77 274.797 192.028C274.797 191.295 274.691 190.654 274.478 190.104C274.265 189.55 273.949 189.12 273.532 188.813C273.114 188.502 272.599 188.347 271.985 188.347C271.346 188.347 270.813 188.511 270.387 188.839C269.965 189.163 269.648 189.604 269.435 190.162C269.226 190.716 269.121 191.338 269.121 192.028C269.121 192.727 269.228 193.362 269.441 193.933C269.658 194.5 269.978 194.952 270.4 195.288C270.826 195.621 271.354 195.787 271.985 195.787Z" fill="#050038"/>
</svg>
