<svg width="288" height="62" viewBox="0 0 288 62" fill="none" xmlns="http://www.w3.org/2000/svg">
<g clip-path="url(#clip0_1_1777)">
<path d="M13.3361 41.1838C19.838 41.1838 22.3742 37.2135 22.3742 30.4205C22.3742 23.629 19.4082 18.8935 13.5266 18.8935H6.93477V41.1838H13.3361ZM0 12.9632H14.3877C23.5203 12.9632 29.4019 20.3292 29.4019 30.4205C29.4019 35.9683 27.5364 40.8486 23.9501 43.8617C21.4155 45.965 18.1157 47.1615 13.8132 47.1615H0V12.9632ZM49.2079 34.9182C49.2079 30.1339 46.9613 26.8814 42.9925 26.8814C38.9749 26.8814 36.774 30.1339 36.774 34.9182C36.774 39.7008 38.9749 42.9045 42.9925 42.9045C46.9613 42.9045 49.2079 39.7008 49.2079 34.9182ZM30.1762 34.9182C30.1762 27.5993 35.3886 21.9554 42.9925 21.9554C50.5948 21.9554 55.8073 27.5993 55.8073 34.9182C55.8073 42.2339 50.5948 47.8793 42.9925 47.8793C35.3871 47.8793 30.1746 42.2355 30.1746 34.9182M56.8818 34.9182C56.8818 27.5993 61.6645 21.9554 69.1236 21.9554C75.4853 21.9554 79.4053 25.6393 80.2665 30.9478H73.9062C73.4765 28.7957 71.803 27.168 69.4117 27.168C65.49 27.168 63.4828 30.1827 63.4828 34.9182C63.4828 39.5576 65.3468 42.6668 69.3156 42.6668C71.9462 42.6668 73.8118 41.2799 74.2416 38.506H80.5058C80.0759 43.7185 76.0096 47.8793 69.459 47.8793C61.7133 47.8793 56.8818 42.2355 56.8818 34.9182ZM97.4388 47.1629V44.293H97.2955C95.622 46.5411 93.7093 47.8321 90.2663 47.8321C84.8145 47.8321 81.754 44.3419 81.754 38.983V22.6246H88.2086V37.8826C88.2086 40.7525 89.5012 42.3315 92.2735 42.3315C95.3339 42.3315 97.1995 40.0362 97.1995 36.7837V22.6246H103.703V47.1629H97.4388ZM135.388 47.1629H141.889V22.6246H135.388V47.1629ZM135.388 19.1953H141.889V13.114H135.388V19.1953ZM161.755 33.8162C161.755 30.2299 159.842 27.1695 155.921 27.1695C152.621 27.1695 150.422 29.7513 150.422 33.8649C150.422 38.0258 152.621 40.466 155.97 40.466C160.082 40.466 161.755 37.4527 161.755 33.8177M144.588 47.8793H151.041C151.568 49.4096 152.953 50.6059 155.966 50.6059C159.649 50.6059 161.419 48.8365 161.419 45.488V42.8086H161.275C159.839 44.4348 157.976 45.6785 154.866 45.6785C149.416 45.6785 144.06 41.3744 144.06 33.961C144.06 26.6421 148.459 21.9554 154.676 21.9554C157.736 21.9554 159.983 23.1504 161.466 25.208H161.562V22.6246H167.825V45.296C167.825 48.7404 166.725 51.083 164.909 52.7581C162.851 54.6708 159.696 55.5319 156.063 55.5319C149.368 55.5319 145.255 52.662 144.586 47.8793M176.977 25.9731H177.12C178.794 23.3425 181.042 21.9554 184.389 21.9554C189.458 21.9554 192.852 25.781 192.852 31.1383V47.1615H186.349V32.0955C186.349 29.4648 184.818 27.5993 182.093 27.5993C179.224 27.5993 177.12 29.8946 177.12 33.2431V47.1615H170.616V22.6246H176.977V25.9731ZM120.568 26.5462C115.498 25.4487 113.107 24.6349 113.107 21.8595C113.107 19.4209 115.545 17.8418 119.276 17.8418C122.68 17.8418 125.282 19.4392 125.815 22.6246H132.484C131.806 15.9839 126.879 12.3413 119.323 12.3413C111.722 12.3413 106.221 15.8331 106.221 22.5773C106.221 29.7041 111.815 31.3304 117.937 32.7173C123.149 33.9138 126.401 34.5828 126.401 37.9298C126.401 41.0879 123.293 42.3315 119.755 42.3315C114.878 42.3315 112.534 40.7052 112.055 36.5916H105.265C105.504 43.8144 110.764 47.9266 120.041 47.9266C127.74 47.9266 133.335 44.0537 133.335 37.1175C133.335 29.7513 127.596 28.0779 120.568 26.5462Z" fill="#050038"/>
</g>
<defs>
<clipPath id="clip0_1_1777">
<rect width="287.938" height="61.7009" fill="white" transform="translate(0 0.000976562)"/>
</clipPath>
</defs>
</svg>
