<svg width="288" height="62" viewBox="0 0 288 62" fill="none" xmlns="http://www.w3.org/2000/svg">
<g clip-path="url(#clip0_1_1790)">
<path d="M287.938 0.000976562H0V61.7019H287.938V0.000976562Z" fill="white"/>
<path d="M4.20257 16.9927V20.7345H0V25.6137H4.20257V45.228C4.20257 46.7162 5.72503 47.9085 7.6394 47.9085C9.55377 47.9085 11.1124 46.7252 11.1124 45.2371V25.6227H16.6987V20.7436H11.1124V16.9927C11.1124 12.4794 14.6095 11.6469 19.3969 12.7234V7.84418C12.656 6.32248 4.20257 7.02997 4.20257 16.9927ZM25.7279 25.6227H25.5832V20.7436H19.9909V45.2432C19.9909 46.7314 21.4982 47.9238 23.4277 47.9238C25.3571 47.9238 26.8916 46.7314 26.8916 45.2432V32.908C26.8916 27.0895 30.639 25.6106 35.1762 25.6106V20.1215C31.0731 20.1001 27.2293 21.4693 25.7279 25.6227ZM74.0244 20.1337C67.3617 20.1337 61.9654 23.4728 61.9654 30.0353C61.9654 33.5301 63.4999 36.11 65.9449 37.7598C65.764 37.8787 65.5891 38.0006 65.4172 38.1288C62.3874 40.3945 62.0618 44.3009 64.8384 46.4326C63.4788 47.6523 61.5523 49.8358 61.5523 52.8792C61.5523 57.7095 66.0142 60.8292 74.0213 60.8292C82.0286 60.8292 88.1425 57.0326 88.1425 51.1867C88.1425 45.3408 84.1268 43.0446 76.8009 43.0446H72.0105C68.6551 43.0446 68.9415 40.6995 70.0479 39.6901C70.1052 39.6383 70.1655 39.5894 70.2319 39.5376C71.4787 39.8027 72.7503 39.9316 74.0244 39.9219C80.6901 39.9219 86.0834 36.5674 86.0834 30.0262C86.0985 28.6718 85.8347 27.3289 85.3086 26.0832C86.329 25.8009 87.3802 25.6483 88.4379 25.6289V20.7497C85.4744 20.7497 83.5631 20.9509 81.5372 21.9481C79.4841 20.7253 76.8704 20.1184 74.0244 20.1184V20.1337ZM70.3614 47.9329H76.795C79.4359 47.9329 81.2357 48.7624 81.2357 51.1867C81.2357 54.4436 78.4742 55.944 74.0002 55.944C67.1326 55.9286 67.5426 50.22 70.3614 47.9176V47.9329ZM74.0244 35.0427C71.1755 35.0427 68.8601 33.9235 68.8601 30.0324C68.8601 26.1412 71.1755 25.022 74.0244 25.022C76.8734 25.022 79.1917 26.1381 79.1917 30.0324C79.1917 33.9265 76.8793 35.0427 74.0244 35.0427ZM47.7146 20.1184C40.2259 20.1184 35.6555 24.8055 35.6555 34.018C35.6555 43.2306 40.232 47.9176 47.7146 47.9176C55.1972 47.9176 59.7737 43.2306 59.7737 34.018C59.7737 24.8055 55.2063 20.1184 47.7146 20.1184ZM47.7146 43.0293C44.8626 43.0293 42.5503 41.8583 42.5503 34.018C42.5503 26.1778 44.8777 25.0129 47.7146 25.0129C50.5514 25.0129 52.8789 26.1808 52.8789 34.018C52.8789 41.8553 50.5666 43.0293 47.7146 43.0293Z" fill="#050038"/>
</g>
<defs>
<clipPath id="clip0_1_1790">
<rect width="287.938" height="61.7009" fill="white" transform="translate(0 0.000976562)"/>
</clipPath>
</defs>
</svg>
