<svg width="134" height="45" viewBox="0 0 134 45" fill="none" xmlns="http://www.w3.org/2000/svg">
<path d="M126.18 0.631836H7.4445C3.59001 0.631836 0.465332 3.75652 0.465332 7.611V37.3888C0.465332 41.2433 3.59001 44.3679 7.4445 44.3679H126.18C130.034 44.3679 133.159 41.2433 133.159 37.3888V7.611C133.159 3.75652 130.034 0.631836 126.18 0.631836Z" fill="#050038"/>
<path d="M27.6593 22.8359C27.6713 21.9039 27.9189 20.99 28.379 20.1794C28.8391 19.3687 29.4968 18.6876 30.2908 18.1994C29.7864 17.479 29.1209 16.8861 28.3473 16.4679C27.5736 16.0497 26.713 15.8176 25.834 15.79C23.9589 15.5932 22.141 16.9121 21.1854 16.9121C20.2114 16.9121 18.7402 15.8096 17.156 15.8422C16.1312 15.8753 15.1325 16.1732 14.2573 16.7071C13.3819 17.241 12.6598 17.9924 12.1613 18.8883C10.0017 22.6273 11.6125 28.1225 13.6813 31.1449C14.7163 32.6248 15.9259 34.278 17.5087 34.2194C19.0576 34.1551 19.6362 33.2317 21.5057 33.2317C23.358 33.2317 23.9007 34.2194 25.5157 34.1821C27.1777 34.1551 28.2248 32.6955 29.2236 31.2015C29.9673 30.147 30.5395 28.9816 30.9191 27.7482C29.9535 27.3399 29.1295 26.6563 28.5499 25.7827C27.9702 24.9092 27.6604 23.8843 27.6593 22.8359Z" fill="white"/>
<path d="M24.6082 13.8021C25.5144 12.7142 25.9609 11.3159 25.8527 9.9043C24.4683 10.0496 23.1894 10.7114 22.2709 11.7575C21.8219 12.2686 21.478 12.8631 21.2589 13.5071C21.0397 14.1512 20.9496 14.8321 20.9938 15.511C21.6863 15.5182 22.3713 15.3681 22.9974 15.072C23.6235 14.776 24.1743 14.3418 24.6082 13.8021Z" fill="white"/>
<path d="M47.239 30.4723H41.9534L40.684 34.2203H38.4453L43.4517 20.3535H45.7777L50.7842 34.2203H48.5072L47.239 30.4723ZM42.5008 28.7428H46.6905L44.6251 22.66H44.5673L42.5008 28.7428Z" fill="white"/>
<path d="M61.5961 29.1661C61.5961 32.3079 59.9145 34.3263 57.3769 34.3263C56.7341 34.3599 56.0948 34.2119 55.5323 33.8991C54.9697 33.5863 54.5066 33.1213 54.196 32.5575H54.148V37.565H52.0728V24.1106H54.0815V25.7921H54.1196C54.4446 25.2311 54.9154 24.7686 55.4823 24.4538C56.0492 24.1391 56.6907 23.9839 57.3388 24.0048C59.9046 24.0048 61.5961 26.0331 61.5961 29.1661ZM59.463 29.1661C59.463 27.1193 58.4053 25.7736 56.7913 25.7736C55.2057 25.7736 54.1392 27.1476 54.1392 29.1661C54.1392 31.2032 55.2057 32.5674 56.7913 32.5674C58.4053 32.5674 59.463 31.2315 59.463 29.1661Z" fill="white"/>
<path d="M72.725 29.1661C72.725 32.3079 71.0434 34.3263 68.5058 34.3263C67.863 34.3599 67.2237 34.2119 66.6612 33.899C66.0986 33.5863 65.6354 33.1213 65.3248 32.5575H65.2768V37.565H63.2017V24.1106H65.2103V25.7921H65.2485C65.5734 25.2311 66.0443 24.7685 66.6111 24.4538C67.178 24.1391 67.8195 23.9839 68.4676 24.0048C71.0336 24.0048 72.725 26.0331 72.725 29.1661ZM70.5919 29.1661C70.5919 27.1193 69.5341 25.7736 67.9202 25.7736C66.3347 25.7736 65.2681 27.1476 65.2681 29.1661C65.2681 31.2032 66.3347 32.5674 67.9202 32.5674C69.5342 32.5674 70.5919 31.2315 70.5919 29.1661Z" fill="white"/>
<path d="M80.0784 30.3574C80.2322 31.7325 81.568 32.6354 83.3935 32.6354C85.1426 32.6354 86.401 31.7325 86.401 30.4926C86.401 29.4162 85.6421 28.7718 83.845 28.3301L82.0478 27.8972C79.5015 27.2822 78.3194 26.0914 78.3194 24.159C78.3194 21.7664 80.4044 20.123 83.3651 20.123C86.2952 20.123 88.3039 21.7664 88.3716 24.159H86.2767C86.1514 22.7751 85.0074 21.9399 83.3357 21.9399C81.664 21.9399 80.52 22.785 80.52 24.0151C80.52 24.9954 81.2507 25.5723 83.038 26.0138L84.5657 26.389C87.4108 27.0618 88.593 28.2047 88.593 30.233C88.593 32.8273 86.5265 34.4521 83.2397 34.4521C80.1645 34.4521 78.0882 32.8654 77.9541 30.3573L80.0784 30.3574Z" fill="white"/>
<path d="M93.0725 21.7178V24.1103H94.995V25.7537H93.0725V31.3272C93.0725 32.193 93.4568 32.5965 94.3017 32.5965C94.5306 32.5925 94.7586 32.5765 94.9847 32.5485V34.1821C94.6051 34.2531 94.2189 34.2852 93.8318 34.278C91.7853 34.278 90.987 33.5092 90.987 31.5485V25.7537H89.5171V24.1103H90.987V21.7178H93.0725Z" fill="white"/>
<path d="M96.1069 29.1662C96.1069 25.9853 97.9811 23.9863 100.902 23.9863C103.833 23.9863 105.698 25.9852 105.698 29.1662C105.698 32.3558 103.844 34.346 100.902 34.346C97.9625 34.346 96.1069 32.3558 96.1069 29.1662ZM103.584 29.1662C103.584 26.9841 102.584 25.6962 100.902 25.6962C99.2206 25.6962 98.2221 26.9939 98.2221 29.1662C98.2221 31.357 99.2206 32.635 100.902 32.635C102.584 32.635 103.584 31.357 103.584 29.1662Z" fill="white"/>
<path d="M107.408 24.1105H109.387V25.8312H109.435C109.569 25.2938 109.884 24.8188 110.327 24.4862C110.769 24.1536 111.314 23.9836 111.867 24.0047C112.107 24.0038 112.345 24.0298 112.578 24.0821V26.0232C112.276 25.9309 111.961 25.8885 111.646 25.8977C111.344 25.8855 111.044 25.9387 110.765 26.0536C110.486 26.1684 110.235 26.3423 110.03 26.5633C109.824 26.7843 109.669 27.0471 109.575 27.3337C109.481 27.6204 109.449 27.924 109.483 28.2237V34.2204H107.408V24.1105Z" fill="white"/>
<path d="M122.147 31.2512C121.868 33.0865 120.081 34.346 117.794 34.346C114.854 34.346 113.028 32.3755 113.028 29.2142C113.028 26.043 114.863 23.9863 117.707 23.9863C120.504 23.9863 122.263 25.9077 122.263 28.9732V29.6841H115.123V29.8096C115.09 30.1816 115.136 30.5564 115.259 30.9091C115.382 31.2619 115.578 31.5843 115.836 31.8551C116.093 32.126 116.406 32.339 116.751 32.4801C117.097 32.621 117.469 32.6869 117.843 32.6732C118.333 32.7191 118.825 32.6056 119.246 32.3493C119.666 32.0931 119.993 31.708 120.177 31.2512H122.147ZM115.133 28.2338H120.187C120.205 27.8992 120.155 27.5645 120.038 27.2504C119.921 26.9365 119.741 26.6499 119.507 26.409C119.275 26.1681 118.995 25.9779 118.685 25.8503C118.375 25.7228 118.042 25.6607 117.707 25.6678C117.369 25.6659 117.034 25.7307 116.721 25.8589C116.409 25.987 116.125 26.1758 115.885 26.4144C115.645 26.6529 115.456 26.9366 115.326 27.2489C115.198 27.5611 115.132 27.8959 115.133 28.2338V28.2338Z" fill="white"/>
<path d="M42.2408 9.91623C42.6758 9.88506 43.1123 9.95076 43.519 10.1087C43.9255 10.2666 44.292 10.5128 44.5919 10.8296C44.8918 11.1462 45.1178 11.5255 45.2534 11.9402C45.3888 12.3548 45.4307 12.7943 45.3759 13.227C45.3759 15.3556 44.2255 16.5792 42.2408 16.5792H39.834V9.91623H42.2408ZM40.8689 15.6369H42.1251C42.436 15.6555 42.7472 15.6045 43.0358 15.4877C43.3245 15.3709 43.5836 15.1912 43.7941 14.9616C44.0045 14.732 44.1612 14.4585 44.2525 14.1608C44.344 13.863 44.3678 13.5487 44.3224 13.2406C44.3646 12.9337 44.3382 12.6213 44.2455 12.3257C44.1527 12.0302 43.9956 11.7588 43.7856 11.5311C43.5757 11.3034 43.3178 11.1249 43.0307 11.0085C42.7436 10.8921 42.4344 10.8406 42.1251 10.8579H40.8689V15.6369Z" fill="white"/>
<path d="M46.5444 14.0631C46.5128 13.7327 46.5507 13.3992 46.6554 13.0842C46.7602 12.7693 46.9297 12.4797 47.1529 12.2341C47.3761 11.9884 47.6483 11.7922 47.9519 11.6578C48.2554 11.5235 48.5837 11.4541 48.9157 11.4541C49.2477 11.4541 49.576 11.5235 49.8795 11.6578C50.1831 11.7922 50.4552 11.9884 50.6785 12.2341C50.9017 12.4797 51.0712 12.7693 51.176 13.0842C51.2808 13.3992 51.3186 13.7327 51.287 14.0631C51.3192 14.3938 51.2819 14.7277 51.1773 15.0433C51.0728 15.3587 50.9034 15.6489 50.6801 15.895C50.4568 16.1411 50.1845 16.3378 49.8806 16.4724C49.5767 16.607 49.2481 16.6765 48.9157 16.6765C48.5834 16.6765 48.2547 16.607 47.9509 16.4724C47.6469 16.3378 47.3746 16.1411 47.1512 15.895C46.928 15.6489 46.7586 15.3587 46.654 15.0433C46.5495 14.7277 46.5122 14.3938 46.5444 14.0631ZM50.2663 14.0631C50.2663 12.9731 49.7766 12.3357 48.9173 12.3357C48.0548 12.3357 47.5695 12.9731 47.5695 14.0631C47.5695 15.1618 48.0548 15.7942 48.9173 15.7942C49.7767 15.7942 50.2663 15.1574 50.2663 14.0631Z" fill="white"/>
<path d="M57.5915 16.579H56.5621L55.5229 12.8757H55.4444L54.4095 16.579H53.3899L52.0039 11.5508H53.0104L53.9112 15.3876H53.9853L55.0191 11.5508H55.971L57.0049 15.3876H57.0833L57.9797 11.5508H58.9721L57.5915 16.579Z" fill="white"/>
<path d="M60.1372 11.5512H61.0925V12.35H61.1667C61.2924 12.0631 61.5046 11.8226 61.7736 11.6621C62.0425 11.5014 62.3549 11.4288 62.6671 11.4542C62.9118 11.4358 63.1575 11.4727 63.386 11.5621C63.6144 11.6515 63.8198 11.7912 63.987 11.9708C64.1541 12.1504 64.2787 12.3654 64.3515 12.5997C64.4244 12.834 64.4434 13.0816 64.4075 13.3243V16.5794H63.4152V13.5735C63.4152 12.7655 63.0641 12.3636 62.3302 12.3636C62.164 12.3559 61.9982 12.3842 61.8441 12.4465C61.6899 12.5089 61.5511 12.6038 61.437 12.7249C61.323 12.8458 61.2365 12.9902 61.1834 13.1477C61.1303 13.3053 61.112 13.4726 61.1296 13.6379V16.5795H60.1372V11.5512Z" fill="white"/>
<path d="M65.9897 9.58789H66.9821V16.5791H65.9897V9.58789Z" fill="white"/>
<path d="M68.3618 14.0632C68.3302 13.7328 68.368 13.3993 68.4728 13.0843C68.5777 12.7693 68.7471 12.4798 68.9705 12.2341C69.1937 11.9884 69.4659 11.7922 69.7694 11.6578C70.0731 11.5235 70.4014 11.4541 70.7333 11.4541C71.0653 11.4541 71.3936 11.5235 71.6972 11.6578C72.0008 11.7922 72.2729 11.9884 72.4962 12.2341C72.7195 12.4798 72.889 12.7693 72.9938 13.0843C73.0986 13.3993 73.1365 13.7328 73.1048 14.0632C73.137 14.394 73.0996 14.7278 72.9951 15.0433C72.8906 15.3588 72.7212 15.649 72.4978 15.8951C72.2745 16.1412 72.0021 16.3378 71.6982 16.4724C71.3944 16.6071 71.0657 16.6766 70.7333 16.6766C70.401 16.6766 70.0723 16.6071 69.7684 16.4724C69.4645 16.3378 69.1921 16.1412 68.9688 15.8951C68.7455 15.649 68.5761 15.3588 68.4715 15.0433C68.367 14.7278 68.3296 14.394 68.3618 14.0632ZM72.0836 14.0632C72.0836 12.9732 71.594 12.3358 70.7347 12.3358C69.8721 12.3358 69.3869 12.9732 69.3869 14.0632C69.3869 15.1619 69.8722 15.7943 70.7347 15.7943C71.594 15.7943 72.0836 15.1575 72.0836 14.0632Z" fill="white"/>
<path d="M74.1479 15.1574C74.1479 14.2523 74.8219 13.7305 76.0182 13.6564L77.3802 13.5779V13.1438C77.3802 12.6127 77.029 12.3129 76.3508 12.3129C75.7968 12.3129 75.4129 12.5162 75.3029 12.8718H74.3421C74.4435 12.0081 75.256 11.4541 76.3965 11.4541C77.6572 11.4541 78.3682 12.0817 78.3682 13.1438V16.5794H77.4129V15.8728H77.3344C77.175 16.1262 76.9512 16.3329 76.6859 16.4717C76.4205 16.6103 76.1231 16.6761 75.8241 16.6623C75.613 16.6843 75.3996 16.6618 75.1978 16.5962C74.996 16.5307 74.81 16.4235 74.6521 16.2817C74.4942 16.1399 74.3677 15.9666 74.2809 15.773C74.1941 15.5793 74.1488 15.3697 74.1479 15.1574ZM77.3802 14.7278V14.3074L76.1523 14.3859C75.4598 14.4323 75.1458 14.6678 75.1458 15.1111C75.1458 15.5636 75.5384 15.827 76.0782 15.827C76.2364 15.843 76.3962 15.8271 76.548 15.7801C76.6999 15.7331 76.8408 15.6559 76.9622 15.5534C77.0837 15.4508 77.1833 15.3249 77.2551 15.183C77.3269 15.0412 77.3694 14.8864 77.3802 14.7278Z" fill="white"/>
<path d="M79.6733 14.0627C79.6733 12.4739 80.4902 11.4673 81.7606 11.4673C82.0748 11.4529 82.3867 11.5282 82.6598 11.6843C82.9328 11.8406 83.1558 12.0713 83.3025 12.3495H83.3767V9.58789H84.369V16.5791H83.4182V15.7846H83.3396C83.1815 16.0609 82.9508 16.2888 82.6724 16.4435C82.3941 16.598 82.0787 16.6736 81.7606 16.6619C80.4814 16.662 79.6733 15.6554 79.6733 14.0627ZM80.6984 14.0627C80.6984 15.1293 81.2012 15.771 82.042 15.771C82.8784 15.771 83.3953 15.1199 83.3953 14.0671C83.3953 13.0191 82.873 12.3589 82.042 12.3589C81.2066 12.3589 80.6984 13.005 80.6984 14.0627Z" fill="white"/>
<path d="M88.4741 14.0631C88.4425 13.7327 88.4803 13.3992 88.5851 13.0842C88.6899 12.7693 88.8594 12.4797 89.0826 12.2341C89.3058 11.9884 89.578 11.7922 89.8816 11.6578C90.1851 11.5235 90.5134 11.4541 90.8453 11.4541C91.1774 11.4541 91.5056 11.5235 91.8092 11.6578C92.1128 11.7922 92.3849 11.9884 92.6082 12.2341C92.8314 12.4797 93.0009 12.7693 93.1059 13.0842C93.2102 13.3992 93.2483 13.7327 93.2167 14.0631C93.2492 14.3938 93.2111 14.7277 93.1069 15.0433C93.0025 15.3587 92.8331 15.6489 92.6098 15.895C92.3864 16.1411 92.1142 16.3378 91.8102 16.4724C91.5064 16.607 91.1777 16.6765 90.8453 16.6765C90.513 16.6765 90.1844 16.607 89.8805 16.4724C89.5766 16.3378 89.3043 16.1411 89.0809 15.895C88.8576 15.6489 88.6882 15.3587 88.5837 15.0433C88.4792 14.7277 88.4419 14.3938 88.4741 14.0631ZM92.196 14.0631C92.196 12.9731 91.7063 12.3357 90.847 12.3357C89.9845 12.3357 89.4992 12.9731 89.4992 14.0631C89.4992 15.1618 89.9845 15.7942 90.847 15.7942C91.7063 15.7942 92.196 15.1574 92.196 14.0631Z" fill="white"/>
<path d="M94.5493 11.5512H95.505V12.35H95.5794C95.7051 12.0631 95.9172 11.8226 96.1862 11.6621C96.4551 11.5014 96.7678 11.4288 97.0795 11.4542C97.3242 11.4358 97.5699 11.4727 97.7988 11.5621C98.0268 11.6515 98.2324 11.7912 98.3999 11.9708C98.5665 12.1504 98.6912 12.3654 98.7638 12.5997C98.8373 12.834 98.8559 13.0816 98.8206 13.3243V16.5794H97.8277V13.5735C97.8277 12.7655 97.4768 12.3636 96.7426 12.3636C96.577 12.3559 96.4104 12.3842 96.2569 12.4465C96.1024 12.5089 95.9638 12.6038 95.8493 12.7249C95.7358 12.8458 95.6492 12.9902 95.5962 13.1477C95.5431 13.3053 95.5245 13.4726 95.5422 13.6379V16.5795H94.5493V11.5512Z" fill="white"/>
<path d="M104.427 10.2988V11.5737H105.517V12.4095H104.427V14.9951C104.427 15.5218 104.645 15.7524 105.138 15.7524C105.265 15.752 105.391 15.7443 105.517 15.7296V16.5561C105.339 16.588 105.158 16.6049 104.977 16.6068C103.873 16.6068 103.434 16.2186 103.434 15.2492V12.4095H102.636V11.5736H103.434V10.2988H104.427Z" fill="white"/>
<path d="M106.873 9.58789H107.856V12.3588H107.934C108.066 12.0693 108.284 11.8274 108.559 11.6662C108.833 11.505 109.151 11.4323 109.468 11.4581C109.711 11.4448 109.955 11.4855 110.18 11.5771C110.406 11.6687 110.609 11.809 110.774 11.9881C110.94 12.1671 111.064 12.3805 111.137 12.6129C111.211 12.8453 111.231 13.0911 111.2 13.3326V16.5791H110.206V13.5775C110.206 12.7743 109.832 12.3676 109.131 12.3676C108.96 12.3536 108.789 12.377 108.628 12.4362C108.468 12.4955 108.321 12.5891 108.201 12.7106C108.08 12.832 107.988 12.9783 107.93 13.1392C107.872 13.3002 107.85 13.4718 107.865 13.6423V16.5791H106.873V9.58789Z" fill="white"/>
<path d="M116.984 15.2218C116.849 15.6814 116.557 16.079 116.159 16.3448C115.76 16.6108 115.281 16.7282 114.806 16.6766C114.474 16.6853 114.145 16.6218 113.841 16.4906C113.536 16.3594 113.264 16.1635 113.043 15.9166C112.822 15.6696 112.658 15.3776 112.561 15.0606C112.464 14.7437 112.437 14.4094 112.483 14.0812C112.438 13.7519 112.465 13.417 112.562 13.0991C112.659 12.7812 112.823 12.4878 113.042 12.2387C113.262 11.9896 113.533 11.7907 113.836 11.6553C114.139 11.52 114.469 11.4514 114.801 11.4542C116.2 11.4542 117.044 12.4101 117.044 13.989V14.3353H113.494V14.3909C113.478 14.5755 113.501 14.7612 113.562 14.9362C113.622 15.1113 113.719 15.2717 113.844 15.4074C113.971 15.543 114.124 15.6507 114.294 15.7238C114.464 15.7968 114.647 15.8335 114.833 15.8314C115.07 15.8599 115.31 15.8172 115.523 15.7086C115.736 15.6001 115.912 15.4306 116.028 15.2218H116.984ZM113.494 13.6013H116.033C116.046 13.4326 116.023 13.2631 115.966 13.1038C115.909 12.9444 115.819 12.7987 115.703 12.676C115.586 12.5534 115.445 12.4564 115.289 12.3914C115.133 12.3265 114.965 12.2949 114.795 12.2988C114.624 12.2966 114.454 12.3289 114.295 12.3936C114.136 12.4583 113.991 12.5542 113.87 12.6755C113.749 12.797 113.653 12.9414 113.588 13.1004C113.523 13.2595 113.491 13.4298 113.494 13.6013Z" fill="white"/>
<path d="M126.18 0.631836H7.4445C3.59001 0.631836 0.465332 3.75652 0.465332 7.611V37.3888C0.465332 41.2433 3.59001 44.3679 7.4445 44.3679H126.18C130.034 44.3679 133.159 41.2433 133.159 37.3888V7.611C133.159 3.75652 130.034 0.631836 126.18 0.631836Z" stroke="#A6A6A6" stroke-width="0.930556"/>
</svg>
