<svg width="152" height="45" viewBox="0 0 152 45" fill="none" xmlns="http://www.w3.org/2000/svg">
<g clip-path="url(#clip0_1_1942)">
<path d="M144.165 0.585938H8.0173C4.1547 0.585938 1.02344 3.7172 1.02344 7.5798V37.4203C1.02344 41.2829 4.1547 44.4142 8.0173 44.4142H144.165C148.027 44.4142 151.158 41.2829 151.158 37.4203V7.5798C151.158 3.7172 148.027 0.585938 144.165 0.585938Z" fill="#050038"/>
<path d="M53.6179 11.582C53.6179 12.5196 53.3403 13.2662 52.7843 13.8232C52.1527 14.4853 51.3295 14.8167 50.3177 14.8167C49.3486 14.8167 48.5246 14.481 47.8471 13.8087C47.1683 13.1368 46.8296 12.3037 46.8296 11.3097C46.8296 10.3152 47.1683 9.48258 47.8471 8.81026C48.5246 8.1384 49.3486 7.80225 50.3177 7.80225C50.7985 7.80225 51.2589 7.89624 51.6959 8.08379C52.133 8.27179 52.4836 8.52133 52.7459 8.83387L52.1557 9.42438C51.7112 8.89329 51.0993 8.62797 50.3177 8.62797C49.6108 8.62797 48.9997 8.87628 48.484 9.37324C47.9681 9.87079 47.7104 10.5159 47.7104 11.3097C47.7104 12.1035 47.9681 12.7486 48.484 13.2461C48.9997 13.7432 49.6108 13.9914 50.3177 13.9914C51.0674 13.9914 51.6925 13.7418 52.1929 13.2418C52.5177 12.916 52.7056 12.4633 52.7558 11.8819H50.3177V11.0754H53.5712C53.6026 11.2507 53.6179 11.419 53.6179 11.582Z" fill="white"/>
<path d="M53.6191 11.5821H53.5072C53.5062 12.4983 53.2387 13.2098 52.7062 13.7441L52.705 13.745L52.7047 13.7459C52.0931 14.3853 51.3071 14.7035 50.3187 14.7048C49.3755 14.7035 48.586 14.3818 47.9268 13.7296C47.2691 13.0761 46.9438 12.2784 46.9426 11.3097C46.9438 10.3407 47.2691 9.54338 47.9268 8.89036C48.586 8.23774 49.3755 7.91558 50.3187 7.91423C50.7852 7.91423 51.2293 8.00521 51.6529 8.1866C52.0768 8.36934 52.4118 8.60881 52.6613 8.90613L52.747 8.83396L52.6679 8.75484L52.0777 9.3458L52.1568 9.42446L52.2431 9.35284C51.7778 8.79546 51.1249 8.51448 50.3187 8.51616C49.5858 8.51526 48.941 8.77711 48.4077 9.29298C47.8692 9.81054 47.5987 10.4919 47.5995 11.3097C47.5987 12.1277 47.8692 12.809 48.4077 13.3266C48.941 13.8425 49.5858 14.1043 50.3187 14.1034C51.0934 14.1048 51.7534 13.842 52.2731 13.321C52.6203 12.973 52.8169 12.4909 52.8685 11.8915L52.8789 11.77H50.4306V11.1874H53.5723V11.0755L53.462 11.0952C53.4927 11.2648 53.5072 11.426 53.5072 11.5821H53.6191H53.731C53.731 11.412 53.7152 11.2373 53.6824 11.0554L53.6658 10.9636H50.2068V11.8819V11.9938H52.757V11.8819L52.6455 11.8723C52.5962 12.4354 52.4169 12.8594 52.1148 13.1627C51.634 13.6418 51.0439 13.8783 50.3187 13.8796C49.6382 13.8787 49.0608 13.6444 48.5629 13.1658C48.0699 12.6888 47.8245 12.08 47.8233 11.3097C47.8245 10.5396 48.0699 9.93074 48.5629 9.45376C49.0608 8.97518 49.6382 8.74085 50.3187 8.73996C51.0755 8.74175 51.6468 8.99174 52.0712 9.49666L52.1499 9.59019L52.8262 8.91307L52.8986 8.84056L52.8326 8.76223C52.5577 8.43447 52.1914 8.17429 51.7411 7.98115C51.29 7.78745 50.814 7.69043 50.3187 7.69043C49.3239 7.68954 48.4654 8.03923 47.769 8.73123C47.0701 9.42189 46.7179 10.29 46.7188 11.3097C46.7179 12.3291 47.0701 13.1977 47.7695 13.8888C48.4654 14.5804 49.3239 14.9296 50.3187 14.9287C51.3547 14.9296 52.2142 14.5855 52.8663 13.9006L52.7854 13.8232L52.8645 13.9023C53.4441 13.3231 53.7317 12.5407 53.731 11.5821H53.6191Z" fill="white"/>
<path d="M58.7776 8.77747H55.7199V10.9063H58.4773V11.7131H55.7199V13.842H58.7776V14.6668H54.8579V7.95264H58.7776V8.77747Z" fill="white"/>
<path d="M58.7767 8.77755V8.66565H55.6071V11.0183H58.3645V11.6009L55.6071 11.6013V13.954H58.6648V14.555H54.9689V8.06462H58.6648V8.77755H58.7767V8.66565V8.77755H58.8886V7.95272V7.84082H54.7451V14.7788H58.8886V13.8421V13.7301H55.8309V11.8251H58.5883V10.9064V10.7945H55.8309V8.88945H58.8886V8.77755H58.7767Z" fill="white"/>
<path d="M62.4159 14.6668H61.5525V8.77747H59.6772V7.95264H64.2911V8.77747H62.4159V14.6668Z" fill="white"/>
<path d="M62.415 14.6669V14.555H61.6635V8.66565H59.7883V8.06462H64.1783V8.66565H62.3031V14.6669H62.415V14.555V14.6669H62.5269V8.88945H64.4021V7.95272V7.84082H59.5645V8.77755V8.88945H61.4397V14.7788H62.415H62.5269V14.6669H62.415Z" fill="white"/>
<path d="M67.6294 14.6668V7.95264H68.4919V14.6668H67.6294Z" fill="white"/>
<path d="M67.628 14.6669H67.7399V8.06462H68.3786V14.555H67.628V14.6669H67.7399H67.628V14.7788H68.4905H68.6024V7.84082H67.628H67.5161V14.7788H67.628V14.6669Z" fill="white"/>
<path d="M72.3181 14.6668H71.4548V8.77747H69.5796V7.95264H74.1933V8.77747H72.3181V14.6668Z" fill="white"/>
<path d="M72.3172 14.6669V14.555H71.5658V8.66565H69.6906V8.06462H74.0805V8.66565H72.2053V14.6669H72.3172V14.555V14.6669H72.4291V8.88945H74.3043V7.95272V7.84082H69.4668V8.77755V8.88945H71.342V14.7788H72.3172H72.4291V14.6669H72.3172Z" fill="white"/>
<path d="M78.6407 13.237C79.1376 13.7401 79.7457 13.9914 80.4648 13.9914C81.1838 13.9914 81.7923 13.7401 82.2885 13.237C82.7859 12.7339 83.0351 12.0907 83.0351 11.3097C83.0351 10.5286 82.7859 9.88552 82.2885 9.38241C81.7923 8.8793 81.1838 8.62797 80.4648 8.62797C79.7457 8.62797 79.1376 8.8793 78.6407 9.38241C78.1445 9.88552 77.8954 10.5286 77.8954 11.3097C77.8954 12.0907 78.1445 12.7339 78.6407 13.237ZM82.9266 13.7991C82.2665 14.4779 81.4456 14.8167 80.4648 14.8167C79.4829 14.8167 78.6625 14.4779 78.0039 13.7991C77.3433 13.1211 77.0146 12.291 77.0146 11.3097C77.0146 10.3283 77.3433 9.49825 78.0039 8.82033C78.6625 8.14142 79.4829 7.80225 80.4648 7.80225C81.4405 7.80225 82.2591 8.14321 82.9222 8.82469C83.5845 9.50618 83.9158 10.3344 83.9158 11.3097C83.9158 12.291 83.5852 13.1211 82.9266 13.7991Z" fill="white"/>
<path d="M78.6412 13.2371L78.5616 13.3158C79.0771 13.839 79.7201 14.1048 80.4653 14.1034C81.2101 14.1048 81.854 13.839 82.3685 13.3158C82.8874 12.7921 83.1483 12.1145 83.1475 11.3097C83.1483 10.5051 82.8874 9.82752 82.3685 9.30383C81.854 8.78058 81.2101 8.51481 80.4653 8.51616C79.7201 8.51481 79.0771 8.78058 78.5616 9.30383C78.0441 9.82752 77.7827 10.5051 77.7841 11.3097C77.7827 12.1145 78.0441 12.7921 78.5616 13.3158L78.6412 13.2371L78.7208 13.1584C78.2461 12.6753 78.0087 12.0677 78.0079 11.3097C78.0087 10.5519 78.2461 9.94427 78.7208 9.46113C79.1998 8.9782 79.772 8.7413 80.4653 8.73996C81.1581 8.7413 81.7316 8.9782 82.2094 9.46113C82.685 9.94427 82.9223 10.5519 82.9233 11.3097C82.9223 12.0677 82.685 12.6753 82.2094 13.1584C81.7316 13.6414 81.1581 13.8783 80.4653 13.8796C79.772 13.8783 79.1998 13.6414 78.7208 13.1584L78.6412 13.2371ZM82.9272 13.7992L82.8472 13.7214C82.2055 14.3788 81.4209 14.7035 80.4653 14.7049C79.5093 14.7035 78.7247 14.3788 78.0843 13.7214L78.0813 13.7179L78.0843 13.7214C77.444 13.0618 77.128 12.2662 77.1271 11.3097C77.128 10.3534 77.444 9.55783 78.0843 8.89819C78.7247 8.24077 79.5093 7.91558 80.4653 7.91424C81.4147 7.91558 82.1976 8.24211 82.8428 8.903C83.4854 9.56567 83.8032 10.36 83.8045 11.3097C83.8032 12.2662 83.4862 13.0618 82.8472 13.7214L82.9272 13.7992L83.0077 13.877C83.686 13.1802 84.029 12.316 84.0283 11.3097C84.029 10.3093 83.6847 9.44686 83.0032 8.747C82.3213 8.04448 81.4671 7.6892 80.4653 7.69043C79.4582 7.6892 78.6015 8.0428 77.924 8.74264V8.74219C77.2442 9.43934 76.9024 10.3036 76.9033 11.3097C76.9024 12.316 77.2442 13.1802 77.924 13.8773L77.9269 13.8805L77.924 13.877C78.6015 14.5767 79.4582 14.9296 80.4653 14.9287C81.472 14.9296 82.3287 14.5767 83.0077 13.877L82.9272 13.7992Z" fill="white"/>
<path d="M85.1265 14.6668V7.95264H86.1765L89.4395 13.1758H89.4766L89.4395 11.8818V7.95264H90.3029V14.6668H89.4023L85.9885 9.1905H85.9513L85.9885 10.4849V14.6668H85.1265Z" fill="white"/>
<path d="M85.1275 14.6669H85.2394V8.06462H86.1153L89.3784 13.2878H89.4777H89.5926L89.5524 11.8802V8.06462H90.1919V14.555H89.4655L86.0516 9.07868H85.9523H85.8374L85.8776 10.4868V14.555H85.1275V14.6669H85.2394H85.1275V14.7788H85.9895H86.1014V10.4831L86.0642 9.18756L85.9523 9.19058V9.30248H85.9895V9.19058L85.8946 9.25011L89.3413 14.7788H90.3038H90.4157V7.84082H89.4405H89.3286V11.8833L89.3658 13.1788L89.4777 13.1759V13.064H89.4405V13.1759L89.5354 13.1165L86.2395 7.84082H85.1275H85.0156V14.7788H85.1275V14.6669Z" fill="white"/>
<path d="M120.221 33.6906H122.309V19.7015H120.221V33.6906ZM139.028 24.7407L136.634 30.8056H136.563L134.078 24.7407H131.829L135.554 33.2176L133.431 37.9328H135.609L141.35 24.7407H139.028ZM127.187 32.1017C126.501 32.1017 125.548 31.7598 125.548 30.9136C125.548 29.8339 126.736 29.4199 127.761 29.4199C128.681 29.4199 129.112 29.6179 129.67 29.8881C129.508 31.1838 128.392 32.1017 127.187 32.1017ZM127.439 24.4346C125.927 24.4346 124.361 25.1008 123.713 26.5765L125.566 27.3502C125.962 26.5765 126.7 26.3243 127.474 26.3243C128.554 26.3243 129.651 26.9725 129.67 28.1244V28.2682C129.292 28.0522 128.482 27.7283 127.492 27.7283C125.494 27.7283 123.461 28.8259 123.461 30.8777C123.461 32.7495 125.098 33.9555 126.933 33.9555C128.339 33.9555 129.112 33.3256 129.598 32.5878H129.67V33.6674H131.685V28.304C131.685 25.8208 129.832 24.4346 127.439 24.4346ZM114.534 26.4436H111.564V21.6485H114.534C116.095 21.6485 116.981 22.941 116.981 24.046C116.981 25.1301 116.095 26.4436 114.534 26.4436ZM114.48 19.7015H109.477V33.6906H111.564V28.3906H114.48C116.794 28.3906 119.069 26.7151 119.069 24.046C119.069 21.377 116.794 19.7015 114.48 19.7015ZM87.1973 32.1043C85.7548 32.1043 84.547 30.8965 84.547 29.2377C84.547 27.5614 85.7548 26.3353 87.1973 26.3353C88.6215 26.3353 89.7392 27.5614 89.7392 29.2377C89.7392 30.8965 88.6215 32.1043 87.1973 32.1043ZM89.5949 25.524H89.5227C89.0542 24.9653 88.1524 24.4604 87.0168 24.4604C84.6371 24.4604 82.4559 26.5516 82.4559 29.2377C82.4559 31.9058 84.6371 33.9791 87.0168 33.9791C88.1524 33.9791 89.0542 33.4741 89.5227 32.8976H89.5949V33.5826C89.5949 35.4037 88.6215 36.3771 87.0531 36.3771C85.7732 36.3771 84.9799 35.4574 84.655 34.6824L82.8345 35.4395C83.3573 36.7014 84.7456 38.252 87.0531 38.252C89.5048 38.252 91.5781 36.8094 91.5781 33.2941V24.749H89.5949V25.524ZM93.0201 33.6906H95.1111V19.7011H93.0201V33.6906ZM98.194 29.0755C98.1399 27.2365 99.6189 26.2994 100.682 26.2994C101.512 26.2994 102.214 26.7138 102.448 27.3092L98.194 29.0755ZM104.684 27.4892C104.288 26.4252 103.079 24.4604 100.61 24.4604C98.1576 24.4604 96.121 26.3894 96.121 29.2198C96.121 31.8879 98.1399 33.9791 100.844 33.9791C103.025 33.9791 104.288 32.6449 104.811 31.8699L103.189 30.7881C102.648 31.5815 101.908 32.1043 100.844 32.1043C99.7802 32.1043 99.0239 31.6174 98.5362 30.6622L104.9 28.0299L104.684 27.4892ZM53.9835 25.9208V27.9398H58.8149C58.6706 29.0755 58.2921 29.9047 57.7151 30.4817C57.0123 31.185 55.9125 31.96 53.9835 31.96C51.0088 31.96 48.6834 29.5624 48.6834 26.5879C48.6834 23.6132 51.0088 21.2153 53.9835 21.2153C55.588 21.2153 56.7596 21.8464 57.625 22.6577L59.0492 21.2336C57.8415 20.0797 56.2368 19.1963 53.9835 19.1963C49.909 19.1963 46.4839 22.5135 46.4839 26.5879C46.4839 30.6622 49.909 33.9791 53.9835 33.9791C56.1831 33.9791 57.8415 33.2583 59.1392 31.9058C60.4734 30.5718 60.8882 28.6969 60.8882 27.1828C60.8882 26.7138 60.8523 26.2814 60.7797 25.9208H53.9835ZM66.381 32.1043C64.9385 32.1043 63.6945 30.9144 63.6945 29.2198C63.6945 27.5071 64.9385 26.3353 66.381 26.3353C67.823 26.3353 69.067 27.5071 69.067 29.2198C69.067 30.9144 67.823 32.1043 66.381 32.1043ZM66.381 24.4604C63.7487 24.4604 61.6032 26.4615 61.6032 29.2198C61.6032 31.96 63.7487 33.9791 66.381 33.9791C69.0128 33.9791 71.1582 31.96 71.1582 29.2198C71.1582 26.4615 69.0128 24.4604 66.381 24.4604ZM76.8027 32.1043C75.3607 32.1043 74.1166 30.9144 74.1166 29.2198C74.1166 27.5071 75.3607 26.3353 76.8027 26.3353C78.2447 26.3353 79.4888 27.5071 79.4888 29.2198C79.4888 30.9144 78.2447 32.1043 76.8027 32.1043ZM76.8027 24.4604C74.1704 24.4604 72.0255 26.4615 72.0255 29.2198C72.0255 31.96 74.1704 33.9791 76.8027 33.9791C79.4346 33.9791 81.5799 31.96 81.5799 29.2198C81.5799 26.4615 79.4346 24.4604 76.8027 24.4604Z" fill="white"/>
<path d="M12.3178 36.364L12.2346 36.2844C11.909 35.9398 11.7168 35.4049 11.7168 34.7121V34.8751V10.1269C11.7168 10.1246 11.7168 10.123 11.7168 10.1212C11.7168 10.1233 11.7168 10.1251 11.7168 10.1274V10.2908C11.7168 9.54071 11.9409 8.97556 12.3164 8.63672L26.1809 22.5008L12.3178 36.364ZM11.7168 10.1199C11.7168 10.0583 11.7185 9.99839 11.7216 9.93936C11.7185 9.99792 11.7168 10.0583 11.7168 10.1199ZM11.7216 9.93665C11.7216 9.93591 11.7216 9.93498 11.7219 9.93414C11.7216 9.93498 11.7216 9.93591 11.7216 9.93665ZM11.7219 9.92882C11.7219 9.92845 11.7219 9.92798 11.7219 9.92752C11.7219 9.92798 11.7219 9.92845 11.7219 9.92882Z" fill="url(#paint0_linear_1_1942)"/>
<path d="M30.8023 27.2879L30.9078 27.228L36.3831 24.1171C36.9051 23.8202 37.2529 23.4605 37.4266 23.0798C37.2534 23.4605 36.9054 23.8207 36.3831 24.1174L30.9078 27.2285L30.8023 27.2879ZM30.8037 27.124L26.1816 22.501L30.8033 17.8789L36.3831 21.0489C37.0916 21.4516 37.4894 21.9704 37.5559 22.5006C37.5559 22.501 37.5559 22.5019 37.5559 22.5027C37.4894 23.0317 37.0916 23.551 36.3831 23.9535L30.8037 27.124Z" fill="url(#paint1_linear_1_1942)"/>
<path d="M13.3056 36.8921C12.9183 36.8921 12.5804 36.7662 12.3168 36.5284L12.3173 36.528C12.5808 36.7658 12.9191 36.8921 13.3065 36.8921C13.3401 36.8921 13.3742 36.8912 13.4087 36.8895C13.3738 36.8912 13.3392 36.8921 13.3056 36.8921ZM13.3061 36.7282C12.9188 36.7286 12.5808 36.6023 12.3173 36.3645V36.3641L26.1804 22.501L30.8025 27.1238L14.5596 36.3527C14.1103 36.6075 13.6845 36.7282 13.3061 36.7282ZM12.3134 36.5254C12.2889 36.5032 12.2648 36.4795 12.2412 36.455L12.3134 36.5254Z" fill="url(#paint2_linear_1_1942)"/>
<path d="M26.1804 22.5012L12.3159 8.63707C12.5794 8.39973 12.917 8.27384 13.3038 8.27384C13.6833 8.27384 14.1094 8.39492 14.5597 8.65017L30.802 17.8791L26.1804 22.5012ZM30.9065 17.7746L14.5597 8.48679C14.1094 8.23143 13.6833 8.11035 13.3038 8.11035C13.3021 8.11035 13.3008 8.11035 13.299 8.11035C13.3012 8.11035 13.3029 8.11035 13.3056 8.11035C13.6842 8.11035 14.1099 8.23098 14.5597 8.48634L30.9065 17.7746Z" fill="url(#paint3_linear_1_1942)"/>
<path d="M13.4086 36.8898C13.7604 36.8697 14.1499 36.7485 14.5595 36.5165L30.8009 27.2881L14.5595 36.5165C14.1502 36.749 13.7604 36.8697 13.4086 36.8898ZM12.3166 36.5287L12.3132 36.5257C12.3144 36.5266 12.3158 36.5278 12.3166 36.5287ZM12.241 36.4553L12.2339 36.4484V36.4479C12.2366 36.4505 12.2387 36.453 12.241 36.4553Z" fill="black"/>
<path d="M30.8022 27.2874L30.9077 27.2275L30.8022 27.2874Z" fill="url(#paint4_linear_1_1942)"/>
<path d="M13.3063 36.8923C12.919 36.8923 12.5806 36.766 12.3171 36.5282L12.3166 36.5286C12.3158 36.5277 12.3144 36.5265 12.3132 36.5255L12.241 36.4552C12.2387 36.453 12.2366 36.4504 12.2339 36.4478L12.3171 36.3647C12.5806 36.6025 12.9185 36.7288 13.3058 36.7284C13.6843 36.7284 14.1101 36.6077 14.5595 36.3529L30.8022 27.124L30.9063 27.2281L30.8009 27.288L14.5595 36.5164C14.1499 36.7485 13.7604 36.8696 13.4086 36.8897C13.374 36.8914 13.3399 36.8923 13.3063 36.8923Z" fill="url(#paint5_linear_1_1942)"/>
<path d="M12.2346 36.4478C11.909 36.1032 11.7168 35.5682 11.7168 34.8755V34.875C11.7168 35.5682 11.909 36.1027 12.2346 36.4473V36.4478Z" fill="black"/>
<path d="M12.2346 36.4473C11.909 36.1028 11.7168 35.5682 11.7168 34.875V34.7119C11.7168 35.4048 11.909 35.9398 12.2346 36.2843L12.3178 36.3639L12.2346 36.4473Z" fill="url(#paint6_linear_1_1942)"/>
<path d="M12.2339 36.4477L12.3171 36.3643V36.3645L12.2339 36.4477Z" fill="url(#paint7_linear_1_1942)"/>
<path d="M37.4263 23.0798C37.5122 22.8909 37.5556 22.6968 37.5556 22.5027C37.5556 22.5024 37.5556 22.502 37.5556 22.502C37.5556 22.6964 37.5122 22.8904 37.4263 23.0798Z" fill="black"/>
<path d="M30.9063 27.2272L30.8022 27.1231L36.3816 23.9528C37.0902 23.5502 37.488 23.0309 37.5544 22.502C37.5544 22.6961 37.5111 22.8902 37.4251 23.079C37.2515 23.4597 36.9036 23.8195 36.3816 24.1162L30.9063 27.2272Z" fill="url(#paint8_linear_1_1942)"/>
<path d="M37.5543 22.501V22.5005C37.5538 21.9152 37.1627 21.3299 36.3814 20.8858L30.9062 17.7748H30.9058L30.9062 17.7744L36.3814 20.8853C37.1635 21.3294 37.5552 21.9156 37.5543 22.501Z" fill="#404040"/>
<path d="M37.5549 22.5001C37.4884 21.9699 37.0907 21.451 36.382 21.0484L30.8022 17.8785L30.9063 17.7744H30.9068L36.382 20.8854C37.1632 21.3295 37.5544 21.9148 37.5549 22.5001Z" fill="url(#paint9_linear_1_1942)"/>
<path d="M11.7168 10.1216C11.7168 10.1211 11.7168 10.1206 11.7168 10.1202C11.7168 10.1206 11.7168 10.1211 11.7168 10.1216ZM11.7216 9.93973C11.7216 9.9388 11.7216 9.93796 11.7216 9.93703C11.7216 9.93796 11.7216 9.9388 11.7216 9.93973ZM11.7219 9.93442C11.7219 9.93265 11.7219 9.93097 11.7219 9.9292C11.7219 9.93097 11.7219 9.93265 11.7219 9.93442ZM11.7219 9.92789C11.7867 8.77829 12.4118 8.11427 13.296 8.11035C12.9127 8.11259 12.5787 8.23848 12.3173 8.47403V8.47359L12.3142 8.47672C12.2867 8.50156 12.2605 8.52786 12.2346 8.55494C11.9409 8.86569 11.7556 9.3312 11.7219 9.92789Z" fill="#404040"/>
<path d="M11.7168 10.2907V10.1273C11.7168 10.125 11.7168 10.1233 11.7168 10.1211C11.7168 10.1206 11.7168 10.1202 11.7168 10.1198C11.7168 10.0581 11.7185 9.99784 11.7216 9.93927C11.7216 9.93834 11.7216 9.9375 11.7216 9.93657C11.7216 9.93582 11.7216 9.93489 11.7219 9.93405C11.7219 9.93219 11.7219 9.93051 11.7219 9.92874C11.7219 9.92827 11.7219 9.9279 11.7219 9.92743C11.7556 9.33076 11.9409 8.86525 12.2346 8.5545L12.3164 8.63663C11.9409 8.97547 11.7168 9.54053 11.7168 10.2907ZM12.3142 8.47628L12.3173 8.47314C12.3164 8.47449 12.3151 8.47538 12.3142 8.47628Z" fill="url(#paint10_linear_1_1942)"/>
<path d="M30.8018 17.879L14.5595 8.65017C14.1092 8.39492 13.683 8.27384 13.3036 8.27384C12.9168 8.27384 12.5793 8.39973 12.3158 8.63707L12.2339 8.55494C12.2598 8.52786 12.2859 8.50156 12.3135 8.47672C12.3144 8.47582 12.3158 8.47493 12.3166 8.47403C12.578 8.23848 12.9119 8.11259 13.2953 8.11035C13.2962 8.11035 13.2974 8.11035 13.2988 8.11035C13.3006 8.11035 13.3018 8.11035 13.3036 8.11035C13.683 8.11035 14.1092 8.23143 14.5595 8.48679L30.9063 17.7747L30.9058 17.7749L30.8018 17.879Z" fill="url(#paint11_linear_1_1942)"/>
<path d="M144.165 0.585938H8.0173C4.1547 0.585938 1.02344 3.7172 1.02344 7.5798V37.4203C1.02344 41.2829 4.1547 44.4142 8.0173 44.4142H144.165C148.027 44.4142 151.158 41.2829 151.158 37.4203V7.5798C151.158 3.7172 148.027 0.585938 144.165 0.585938Z" stroke="#A6A6A6" stroke-width="0.932515"/>
</g>
<defs>
<linearGradient id="paint0_linear_1_1942" x1="24.9515" y1="9.86588" x2="6.17157" y2="28.6458" gradientUnits="userSpaceOnUse">
<stop stop-color="#00A0FF"/>
<stop offset="0.00657445" stop-color="#00A1FF"/>
<stop offset="0.2601" stop-color="#00BEFF"/>
<stop offset="0.5122" stop-color="#00D2FF"/>
<stop offset="0.7604" stop-color="#00DFFF"/>
<stop offset="1" stop-color="#00E3FF"/>
</linearGradient>
<linearGradient id="paint1_linear_1_1942" x1="38.4192" y1="22.5018" x2="11.3423" y2="22.5018" gradientUnits="userSpaceOnUse">
<stop stop-color="#FFE000"/>
<stop offset="0.4087" stop-color="#FFBD00"/>
<stop offset="0.7754" stop-color="#FFA500"/>
<stop offset="1" stop-color="#FF9C00"/>
</linearGradient>
<linearGradient id="paint2_linear_1_1942" x1="28.3385" y1="25.0694" x2="2.87152" y2="50.5364" gradientUnits="userSpaceOnUse">
<stop stop-color="#FF3A44"/>
<stop offset="1" stop-color="#C31162"/>
</linearGradient>
<linearGradient id="paint3_linear_1_1942" x1="8.72244" y1="0.317059" x2="20.0945" y2="11.6891" gradientUnits="userSpaceOnUse">
<stop stop-color="#32A071"/>
<stop offset="0.0685" stop-color="#2DA771"/>
<stop offset="0.4762" stop-color="#15CF74"/>
<stop offset="0.8009" stop-color="#06E775"/>
<stop offset="1" stop-color="#00F076"/>
</linearGradient>
<linearGradient id="paint4_linear_1_1942" x1="38.4189" y1="22.5012" x2="11.3428" y2="22.5012" gradientUnits="userSpaceOnUse">
<stop stop-color="#CCB300"/>
<stop offset="0.4087" stop-color="#CC9700"/>
<stop offset="0.7754" stop-color="#CC8400"/>
<stop offset="1" stop-color="#CC7D00"/>
</linearGradient>
<linearGradient id="paint5_linear_1_1942" x1="28.3382" y1="25.0696" x2="2.87132" y2="50.5366" gradientUnits="userSpaceOnUse">
<stop stop-color="#CC2E36"/>
<stop offset="1" stop-color="#9C0E4E"/>
</linearGradient>
<linearGradient id="paint6_linear_1_1942" x1="24.9515" y1="9.8657" x2="6.17155" y2="28.6456" gradientUnits="userSpaceOnUse">
<stop stop-color="#008DE0"/>
<stop offset="0.00657445" stop-color="#008DE0"/>
<stop offset="0.2601" stop-color="#00A7E0"/>
<stop offset="0.5122" stop-color="#00B8E0"/>
<stop offset="0.7604" stop-color="#00C4E0"/>
<stop offset="1" stop-color="#00C7E0"/>
</linearGradient>
<linearGradient id="paint7_linear_1_1942" x1="28.3385" y1="25.0695" x2="2.87138" y2="50.5369" gradientUnits="userSpaceOnUse">
<stop stop-color="#E0333C"/>
<stop offset="1" stop-color="#AB0F56"/>
</linearGradient>
<linearGradient id="paint8_linear_1_1942" x1="38.4177" y1="22.5009" x2="11.3409" y2="22.5009" gradientUnits="userSpaceOnUse">
<stop stop-color="#E0C500"/>
<stop offset="0.4087" stop-color="#E0A600"/>
<stop offset="0.7754" stop-color="#E09100"/>
<stop offset="1" stop-color="#E08900"/>
</linearGradient>
<linearGradient id="paint9_linear_1_1942" x1="38.4182" y1="22.5012" x2="11.3413" y2="22.5012" gradientUnits="userSpaceOnUse">
<stop stop-color="#FFE840"/>
<stop offset="0.4087" stop-color="#FFCE40"/>
<stop offset="0.7754" stop-color="#FFBC40"/>
<stop offset="1" stop-color="#FFB540"/>
</linearGradient>
<linearGradient id="paint10_linear_1_1942" x1="24.9514" y1="9.86579" x2="6.17157" y2="28.6456" gradientUnits="userSpaceOnUse">
<stop stop-color="#40B8FF"/>
<stop offset="0.00657445" stop-color="#40B9FF"/>
<stop offset="0.2601" stop-color="#40CEFF"/>
<stop offset="0.5122" stop-color="#40DDFF"/>
<stop offset="0.7604" stop-color="#40E7FF"/>
<stop offset="1" stop-color="#40EAFF"/>
</linearGradient>
<linearGradient id="paint11_linear_1_1942" x1="8.72222" y1="0.317064" x2="20.0942" y2="11.6891" gradientUnits="userSpaceOnUse">
<stop stop-color="#65B895"/>
<stop offset="0.0685" stop-color="#62BD95"/>
<stop offset="0.4762" stop-color="#50DB97"/>
<stop offset="0.8009" stop-color="#44ED98"/>
<stop offset="1" stop-color="#40F498"/>
</linearGradient>
<clipPath id="clip0_1_1942">
<rect width="152" height="45" fill="white"/>
</clipPath>
</defs>
</svg>
